<svg id="Layer_1" data-name="Layer 1" xmlns="http://www.w3.org/2000/svg" viewBox="0 0 1920 480"><defs><style>.cls-1{fill:#fff;}.cls-2{fill:#e0e0e0;}.cls-3{fill:#f5f5f5;}.cls-4{fill:#ebebeb;}.cls-5{fill:#263238;}.cls-6{fill:#455a64;}.cls-7{fill:#ef3139;}.cls-8,.cls-9{isolation:isolate;}.cls-14,.cls-8{opacity:0.3;}.cls-10,.cls-9{opacity:0.4;}.cls-11{opacity:0.2;}.cls-12{fill:#ffbe9d;}.cls-13{fill:#eb996e;}.cls-15{fill:#fafafa;}</style></defs><rect class="cls-1" y="-600" width="1920" height="1080"/><g id="freepik--background-complete--inject-7"><rect class="cls-1" x="563.1941" y="98.0083" width="95.174" height="130.2471" transform="translate(-15.3705 250.3081) rotate(-22.88)"/><path class="cls-2" d="M679.944,204.5989s-.11-.1956-.281-.5744-.4155-.9654-.7333-1.6987c-.66-1.5153-1.6009-3.6661-2.8229-6.538-2.4442-5.7315-6-14.0659-10.51-24.6L628.9353,84.7759l.5621.2322-87.6461,37.0406h0l.2444-.6232c18.8686,44.8374,36.4174,86.3507,50.5444,120.0918l-.5011-.1955L655.8939,214.62l17.7565-7.3323,4.6805-1.9309c1.0632-.44,1.65-.6477,1.65-.6477s-.5011.2445-1.54.6966L673.8337,207.3l-17.5976,7.54-63.7915,27.13-.3667.1466-.1222-.3544c-14.2614-33.6677-31.7735-75.1444-50.7521-120.0063l-.1833-.44.44-.1833h0l87.695-36.9673.4033-.1711.1589.3911c14.9213,35.5863,27.533,65.649,36.43,86.84l10.2653,24.6123c1.1609,2.8108,2.0653,4.986,2.6763,6.5014.2933.7088.5133,1.222.6843,1.662A4.4786,4.4786,0,0,1,679.944,204.5989Z"/><path class="cls-2" d="M605.3984,123.1c.0978.2444-9.361,4.46-21.1172,9.4343s-21.3983,8.7988-21.496,8.5544,9.3487-4.46,21.1172-9.4343S605.3984,122.8553,605.3984,123.1Z"/><path class="cls-2" d="M632.8947,123.7963c.0978.2444-14.518,6.648-32.6412,14.2981s-32.9223,13.6626-32.9956,13.4426,14.5181-6.6357,32.6412-14.2981S632.797,123.5519,632.8947,123.7963Z"/><path class="cls-2" d="M637.49,134.6726c.0978.2444-14.5181,6.648-32.6535,14.2981s-32.91,13.6627-32.9956,13.4427,14.5059-6.6358,32.6412-14.2981S637.38,134.44,637.49,134.6726Z"/><path class="cls-2" d="M642.06,145.5489c.11.2445-14.5059,6.6481-32.6412,14.2981s-32.91,13.6627-32.9956,13.4427,14.5058-6.66,32.6412-14.31S641.9746,145.3168,642.06,145.5489Z"/><path class="cls-2" d="M646.6673,156.4375c.0978.2322-14.518,6.6358-32.6412,14.2859s-32.91,13.6626-32.9956,13.4426S595.5486,177.53,613.684,169.88,646.57,156.1931,646.6673,156.4375Z"/><path class="cls-2" d="M651.2623,167.3138c.0978.2322-14.5181,6.6358-32.6412,14.2859s-32.9223,13.6626-32.9956,13.4427,14.5058-6.648,32.6412-14.2981S651.1523,167.0694,651.2623,167.3138Z"/><path class="cls-2" d="M655.845,178.19c.11.2444-14.5058,6.6357-32.6412,14.2858s-32.91,13.6627-32.9956,13.4427,14.5058-6.648,32.6412-14.2981S655.7472,177.97,655.845,178.19Z"/><path class="cls-2" d="M630.0718,201.8859c.11.2322-7.7112,3.764-17.451,7.8823s-17.7321,7.3079-17.8421,7.0146,7.7234-3.7762,17.4632-7.8945S629.974,201.6415,630.0718,201.8859Z"/><rect class="cls-3" x="856.8772" y="7.2437" width="95.8584" height="119.8963" transform="translate(628.399 931.361) rotate(-76.51)"/><rect class="cls-4" x="862.8303" y="11.4352" width="83.7844" height="111.4763" transform="translate(628.3527 931.2653) rotate(-76.51)"/><polygon class="cls-2" points="840.73 94.895 890.749 53.332 906.599 90.642 926.568 77.517 949.139 120.888 840.73 94.895"/><path class="cls-2" d="M925.6391,55.141A8.7744,8.7744,0,1,1,919.15,44.5579,8.7743,8.7743,0,0,1,925.6391,55.141Z"/><path class="cls-4" d="M1198.0974,92.3527c5.7192-13.3816,2.2486-27.35-7.1613-38.446a40.328,40.328,0,0,0-39.46-12.8072,44.0919,44.0919,0,0,0-87.4628,5.6948,32.9959,32.9959,0,0,0-25.2111,44.7885Z"/><path class="cls-2" d="M711.0455,51.2182a7.0147,7.0147,0,1,1-8.8111-4.5583,7.0146,7.0146,0,0,1,8.8111,4.5583Z"/><circle class="cls-2" cx="727.0529" cy="46.1619" r="7.0146" transform="translate(555.0937 754.0933) rotate(-79.98)"/><path class="cls-2" d="M733.8735,44.0324a2.2867,2.2867,0,0,1-.2444-.4888l-.611-1.4542c-.5377-1.2221-1.32-3.1041-2.4441-5.3771s-2.4441-4.9738-4.2161-7.9678-3.6662-6.2936-5.8537-9.8743l.4033.11A74.6563,74.6563,0,0,1,708.0514,24.48a75.5,75.5,0,0,1-11.8906,2.7374l.11-.5621a30.5513,30.5513,0,0,1,13.32,16.8888,28.6131,28.6131,0,0,1,1.2221,6.2081c.0733.7332,0,1.3076.0733,1.6864a2.2155,2.2155,0,0,1,0,.5866s-.0856-.7943-.2567-2.2486a31.4779,31.4779,0,0,0-1.4176-6.11,30.845,30.845,0,0,0-4.4116-8.42,29.77,29.77,0,0,0-8.86-8.0533l-.7333-.44.8433-.1222a75.7639,75.7639,0,0,0,11.7806-2.75,74.8535,74.8535,0,0,0,12.795-5.4137l.2566-.1345.1467.2445c2.1019,3.5928,4.0939,6.9046,5.78,9.9231s3.0674,5.7559,4.1183,8.0656,1.772,4.1794,2.2608,5.4626l.5256,1.5153A2.915,2.915,0,0,1,733.8735,44.0324Z"/><path class="cls-2" d="M726.2479,27.6568a101.2246,101.2246,0,0,1-10.5464,3.6662,98.85,98.85,0,0,1-10.73,3.0674,97.9643,97.9643,0,0,1,10.5464-3.6662A98.0027,98.0027,0,0,1,726.2479,27.6568Z"/></g><g id="freepik--Floor--inject-7"><path class="cls-5" d="M1328.65,468.576c0,.1833-160.7742.3177-359.0656.3177s-359.09-.0733-359.09-.3177,160.75-.3178,359.09-.3178S1328.65,468.4049,1328.65,468.576Z"/></g><g id="freepik--Device--inject-7"><path class="cls-5" d="M1047.65,101.1026H631.6238a12.9783,12.9783,0,0,0-12.9783,12.9783V407.9374a12.966,12.966,0,0,0,12.9538,12.9782H791.2981s10.1553,31.407-21.3249,47.66h149.299s-35.55-12.2206-26.4087-47.66H1047.65A12.9782,12.9782,0,0,0,1060.64,407.95V114.0809A12.99,12.99,0,0,0,1047.65,101.1026Z"/><path class="cls-6" d="M845.191,390.022c5.6581,8.0778-3.19,16.9377-11.28,11.28a2.7028,2.7028,0,0,1-.6966-.6966c-5.6459-8.09,3.2018-16.9255,11.28-11.28A2.7028,2.7028,0,0,1,845.191,390.022Z"/><path class="cls-1" d="M637.6608,106.48h404.0129a11.854,11.854,0,0,1,11.854,11.854h0V367.1573H625.8068V118.3337a11.854,11.854,0,0,1,11.854-11.854Z"/><rect class="cls-7" x="915.032" y="197.2531" width="74.9001" height="111.1219" transform="translate(528.306 1142.3149) rotate(-79.37)"/><rect class="cls-8" x="915.032" y="197.2531" width="74.9001" height="111.1219" transform="translate(528.306 1142.3149) rotate(-79.37)"/><path class="cls-5" d="M1014.0063,226.2538a9.6691,9.6691,0,0,1-1.2221.7821l-3.5318,2.1019L996.14,236.6291l-43.6031,24.6245-.3544.1955-.2689-.3055-.66-.7577c-12.8561-14.97-24.4534-28.5473-33.0078-38.4216l-9.9109-11.7562c-1.1121-1.332-1.992-2.4441-2.6641-3.2262a6.5712,6.5712,0,0,1-.8676-1.2221,9.9286,9.9286,0,0,1,1.0265,1.0388l2.7985,3.104,10.1676,11.5485,33.24,38.336.6477.7577-.6233-.11,43.7376-24.3679c5.5481-3.0185,10.0575-5.487,13.2837-7.259l3.6662-1.9309A7.1584,7.1584,0,0,1,1014.0063,226.2538Z"/><path class="cls-5" d="M890.9693,279.4011c-.1711-.2077,9.9353-8.7621,22.5714-19.0885s23.0359-18.5264,23.2192-18.3309-9.96,8.7377-22.5837,19.0886S891.14,279.5844,890.9693,279.4011Z"/><path class="cls-5" d="M973.2384,247.86c.2566-.1344,6.4891,11.4018,13.9314,25.7732s13.2716,26.1032,13.0272,26.2376-6.4769-11.414-13.9193-25.7732S972.9817,247.982,973.2384,247.86Z"/><path class="cls-5" d="M765.5615,315.0975a1.7267,1.7267,0,0,1-.0611-.4277,5.8681,5.8681,0,0,0-.0977-1.2221,5.1958,5.1958,0,0,0-.0611-.941c-.0612-.3421-.11-.7087-.1711-1.1243a19.6235,19.6235,0,0,0-.5744-2.7618,25.482,25.482,0,0,0-2.994-7.1,26.6522,26.6522,0,0,0-6.7947-7.54,26.3473,26.3473,0,0,0-11.2063-4.9494,26.6665,26.6665,0,0,0-13.9559,1.2221,26.9827,26.9827,0,0,0-3.4584,1.5153,26.4413,26.4413,0,0,0-3.2629,2.102,29.4205,29.4205,0,0,0-3.0063,2.5541,30.1165,30.1165,0,0,0-2.603,3.08,25.6643,25.6643,0,0,0-3.7884,7.3323,28.1941,28.1941,0,0,0-1.3687,8.3711,28.6582,28.6582,0,0,0,1.3565,8.3834,25.9806,25.9806,0,0,0,3.8006,7.3323,28.868,28.868,0,0,0,2.603,3.08,29.5569,29.5569,0,0,0,3.0063,2.5663,26.43,26.43,0,0,0,3.2629,2.102,26.9827,26.9827,0,0,0,3.4584,1.5153,26.6655,26.6655,0,0,0,13.9559,1.2221,26.3478,26.3478,0,0,0,11.2063-4.8883,26.7737,26.7737,0,0,0,6.8069-7.5523,25.5662,25.5662,0,0,0,2.9818-7.0879,19.6278,19.6278,0,0,0,.5744-2.7619,9.1035,9.1035,0,0,1,.1711-1.1243l.0611-.941a10.9276,10.9276,0,0,1,.0977-1.222,1.9293,1.9293,0,0,1,.0612-.44,2.4494,2.4494,0,0,1,0,.44v2.2241a11.1683,11.1683,0,0,1-.1467,1.1365,19.4405,19.4405,0,0,1-.5132,2.7985,25.8474,25.8474,0,0,1-2.9208,7.21A27.3978,27.3978,0,0,1,729.45,340.59a29.3383,29.3383,0,0,1-3.5562-1.552,28.3934,28.3934,0,0,1-3.324-2.1386,29.6645,29.6645,0,0,1-3.0918-2.6152,28.68,28.68,0,0,1-2.6641-3.1407,26.1755,26.1755,0,0,1-3.8984-7.4913,26.885,26.885,0,0,1,0-17.1088,26.5766,26.5766,0,0,1,3.8984-7.479,30.0836,30.0836,0,0,1,2.6641-3.1407,29.6645,29.6645,0,0,1,3.0918-2.6152,28.3934,28.3934,0,0,1,3.324-2.1386,29.3232,29.3232,0,0,1,3.5562-1.5521,27.2525,27.2525,0,0,1,14.2492-1.1365,26.9475,26.9475,0,0,1,11.39,5.12,26.5921,26.5921,0,0,1,6.8191,7.7234,25.5534,25.5534,0,0,1,2.9329,7.21,19.1376,19.1376,0,0,1,.5133,2.7986c0,.4155.1222.7821.1466,1.1365s0,.66,0,.941v1.2831A2.29,2.29,0,0,1,765.5615,315.0975Z"/><path class="cls-5" d="M732.7859,315.0975a2.88,2.88,0,0,1,0,.721v2.0286c0,1.8576-.0978,4.3872-.1711,7.4546l-.3422-.22,17.9765-9.6053v.55h-.0733l-.1588-.0977-.3056-.1956-.6232-.391-1.2221-.77-2.4441-1.5154-4.546-2.8718-7.8457-5.1205.3666-.1833c-.1588,3.0674-.281,5.5848-.3788,7.4423-.0611.8188-.0978,1.491-.1344,2.0287a.3544.3544,0,1,1-.0978-.0122v-2.0287c0-1.8575.11-4.3871.1711-7.4545v-.4033l.3544.22,7.87,4.8882,4.5706,2.8474,2.4441,1.5031,1.222.77.6233.3911.3055.1955.1589.0978h.0733v.55l-18.0865,9.5809-.3666.1956v-.4155c.1466-3.0674.281-5.5848.3788-7.4424,0-.8188.0978-1.4909.1344-2.0286A2.5694,2.5694,0,0,1,732.7859,315.0975Z"/><rect class="cls-3" x="668.9315" y="155.8929" width="144.9729" height="115.9001" transform="matrix(0.9501, -0.3118, 0.3118, 0.9501, -29.7138, 241.8651)"/><path class="cls-5" d="M792.2147,136.1635l-.66.2322-1.9187.6477-7.4668,2.4441-28.1685,9.3243-99.4389,32.8246.1833-.3667,36.1974,110.1076h0l-.4033-.1955,137.7383-45.1429-.1711.33c-10.84-33.1912-19.8095-60.7-26.0909-79.935-3.1285-9.63-5.5849-17.17-7.2591-22.3392l-1.9064-5.89c-.4277-1.3321-.6355-2.0409-.6355-2.0409s.2322.66.6722,1.98,1.1,3.2751,1.943,5.8169c1.7109,5.1327,4.2039,12.6484,7.3324,22.2415l26.4087,79.9961.0856.2566-.2566.0855L690.686,291.7562l-.3056.0977-.0977-.2933h0c-13.0394-39.7658-25.37-77.3442-36.1119-110.12l-.0855-.2688.2688-.0856,99.6957-32.58,28.1073-9.1655,7.43-2.4441,1.9064-.611Z"/><rect class="cls-7" x="673.93" y="163.2179" width="134.781" height="101.3088" transform="translate(-29.7278 241.8361) rotate(-18.17)"/><polygon class="cls-9" points="693.093 283.006 718.182 208.497 758.18 236.825 770.401 210.648 821.153 240.967 693.093 283.006"/><g class="cls-10"><path d="M755.2473,188.2111a10.6027,10.6027,0,1,1-.0092-.0282Z"/></g><path class="cls-7" d="M781.9127,239.2076l3.74,68.8019a4.6317,4.6317,0,0,0,4.5949,4.3995l123.8069.9043a4.6439,4.6439,0,0,0,4.6683-4.6193v0l.4033-53.5507a4.656,4.656,0,0,0-4.6316-4.68l-.0122,0-76.1344-.061a4.6561,4.6561,0,0,1-3.2873-1.3565L821.923,235.908a4.6681,4.6681,0,0,0-3.2507-1.3564l-32.0913-.2322a4.6315,4.6315,0,0,0-4.6752,4.5876Q781.9043,239.0573,781.9127,239.2076Z"/><g class="cls-11"><path d="M781.9127,239.2076l3.74,68.8019a4.6317,4.6317,0,0,0,4.5949,4.3995l123.8069.9043a4.6439,4.6439,0,0,0,4.6683-4.6193v0l.4033-53.5507a4.656,4.656,0,0,0-4.6316-4.68l-.0122,0-76.1344-.061a4.6561,4.6561,0,0,1-3.2873-1.3565L821.923,235.908a4.6681,4.6681,0,0,0-3.2507-1.3564l-32.0913-.2322a4.6315,4.6315,0,0,0-4.6752,4.5876Q781.9043,239.0573,781.9127,239.2076Z"/></g><rect class="cls-1" x="795.3313" y="187.2098" width="91.6545" height="125.42" transform="translate(-27.8608 371.6286) rotate(-24.52)"/><path class="cls-5" d="M908.8969,287.9556l-.2811-.55c-.1833-.391-.4277-.9165-.7576-1.6009q-1.0143-2.163-2.8841-6.22l-10.803-23.4024c-9.2021-20.0662-22.2659-48.5158-37.7128-82.1713l.55.2078-83.3567,38.0794h0l.2322-.6111c19.4063,42.6377,37.3828,82.11,51.9742,114.1526l-.4888-.1833,60.6264-27.46,16.8889-7.6012,4.4605-1.98c1.0143-.4522,1.5642-.6721,1.5642-.6721l-1.4543.7087-4.3627,2.0409-16.73,7.7356-60.6875,27.9-.33.1589-.1589-.3422L773.0406,212.0656l-.1833-.4154.4155-.1833h0l83.3933-38.0061.3789-.1711.1711.3788c15.3368,33.8267,28.3029,62.4228,37.4561,82.5868l10.5464,23.39q1.7964,4.0327,2.7741,6.1836c.2932.6843.5254,1.2221.6965,1.5887A4.4786,4.4786,0,0,1,908.8969,287.9556Z"/><path class="cls-5" d="M834.9134,211.528c.0978.2322-8.8843,4.546-20.0784,9.6542s-20.3473,9.0555-20.4451,8.8355,8.8722-4.5583,20.0663-9.6665S834.8034,211.2958,834.9134,211.528Z"/><path class="cls-5" d="M861.3466,211.4424c.11.2322-13.7848,6.7947-31.0281,14.6647s-31.297,14.0659-31.407,13.8337,13.7849-6.7946,31.0281-14.6647S861.2488,211.21,861.3466,211.4424Z"/><path class="cls-5" d="M866.0637,221.781c.11.2322-13.7848,6.7947-31.0281,14.6648s-31.2969,14.0536-31.4069,13.8214,13.7848-6.7824,31.0281-14.6647S865.966,221.5488,866.0637,221.781Z"/><path class="cls-5" d="M870.7931,232.1319c.0978.2322-13.797,6.7946-31.0281,14.6647s-31.3091,14.0659-31.4191,13.8337,13.7848-6.7946,31.04-14.6647S870.6831,231.9,870.7931,232.1319Z"/><path class="cls-5" d="M875.4736,242.4705c.0977.2322-13.7848,6.7946-31.0281,14.6647s-31.3092,14.0537-31.407,13.8215,13.7849-6.7946,31.0281-14.6647S875.4,242.2383,875.4736,242.4705Z"/><path class="cls-5" d="M880.2274,252.8213c.11.22-13.7848,6.7947-31.0281,14.6648S817.89,281.552,817.7924,281.32s13.7848-6.7947,31.0281-14.6647S880.1174,252.5892,880.2274,252.8213Z"/><path class="cls-5" d="M884.9446,263.16c.11.2322-13.7849,6.7946-31.0282,14.6647S822.62,291.8784,822.51,291.6462s13.7849-6.7947,31.0281-14.6647S884.8468,262.9278,884.9446,263.16Z"/><path class="cls-5" d="M860.8089,286.7335c.11.22-7.3324,3.8373-16.5834,8.0656s-16.8644,7.4668-16.9744,7.2468,7.3323-3.85,16.5955-8.0778S860.6867,286.4524,860.8089,286.7335Z"/><rect class="cls-1" x="810.8603" y="174.8422" width="95.174" height="130.2471" transform="translate(-32.5311 214.0277) rotate(-13.95)"/><path class="cls-5" d="M920.3232,291.6951s-.0733-.22-.1833-.6233-.2689-1.0143-.4644-1.7842c-.4033-1.5887-1.0021-3.8984-1.76-6.8924-1.54-6.0492-3.7517-14.8236-6.5624-25.9321-5.5848-22.2415-13.4427-53.7707-22.84-91.0679l.5133.3055-92.3511,22.9869h0l.3544-.5743,31.3092,126.4221-.4644-.2811,67.1521-16.4612,18.6975-4.546,4.8883-1.2221c1.1243-.2688,1.7231-.3788,1.7231-.3788s-.5377.1588-1.6253.44l-4.8883,1.2221-18.5508,4.7171-67.2133,16.9133-.3788.0977-.0856-.3788c-8.8477-35.44-19.724-79.1773-31.4925-126.3854l-.11-.4644.4644-.11h0l92.3633-22.9014.4277-.11.0978.4278c9.2143,37.4561,16.9988,69.1074,22.4981,91.4345l6.3058,25.9077c.721,2.9574,1.2221,5.2426,1.65,6.8313l.4033,1.7475A3.1912,3.1912,0,0,1,920.3232,291.6951Z"/><path class="cls-5" d="M859.3546,199.6006c.0611.2567-9.9353,2.9574-22.327,6.037s-22.4981,5.3649-22.5592,5.1205,9.9353-2.9574,22.327-6.037S859.2935,199.344,859.3546,199.6006Z"/><path class="cls-5" d="M886.3621,204.5622c0,.2444-15.3734,4.3017-34.4621,9.0432s-34.6454,8.3834-34.7064,8.1267,15.3735-4.3016,34.4743-9.0432S886.301,204.3056,886.3621,204.5622Z"/><path class="cls-5" d="M889.21,216.0129c.0611.2567-15.3735,4.3139-34.4743,9.0555s-34.6331,8.3833-34.6942,8.1267,15.3735-4.3017,34.4743-9.0555S889.1484,215.7563,889.21,216.0129Z"/><path class="cls-5" d="M892.0569,227.4758c.0611.2567-15.3734,4.3017-34.4742,9.0433s-34.6577,8.3955-34.6577,8.1389,15.3613-4.3139,34.4743-9.0555S891.9958,227.2192,892.0569,227.4758Z"/><path class="cls-5" d="M894.9043,238.9388c.0611.2444-15.3735,4.3016-34.4743,9.0432s-34.6331,8.3833-34.6943,8.1267,15.3613-4.3016,34.4743-9.0432S894.8432,238.6821,894.9043,238.9388Z"/><path class="cls-5" d="M897.7518,250.39c0,.2566-15.3735,4.3138-34.4743,9.0554s-34.6332,8.3833-34.6943,8.1267,15.3613-4.3016,34.4621-9.0554S897.6784,250.1328,897.7518,250.39Z"/><path class="cls-5" d="M900.5991,261.8524c.0611.2566-15.3735,4.3016-34.4743,9.0432s-34.6454,8.3956-34.6454,8.1389,15.3613-4.3138,34.4621-9.0554S900.5258,261.5957,900.5991,261.8524Z"/><path class="cls-5" d="M871.453,281.2587c.0611.2566-8.2122,2.53-18.4775,5.0715s-18.6364,4.4116-18.6975,4.155,8.2-2.53,18.4653-5.0715S871.3919,281.002,871.453,281.2587Z"/><path class="cls-7" d="M773.1383,248.5564l9.7032,84.3221a3.006,3.006,0,0,0,2.9451,2.64l131.8236.9655a2.9818,2.9818,0,0,0,3.0063-2.7252l7.2468-84.2488a2.97,2.97,0,0,0-2.6886-3.2263q-.128-.0117-.2566-.0122L776.12,245.1835a2.9816,2.9816,0,0,0-2.9818,3.3729Z"/><path class="cls-5" d="M928.902,171.5177c-.061,0,.4155-.66.8922-1.9553a8.787,8.787,0,0,0,0-5.67,8.5544,8.5544,0,0,0-10.8123-5.427l-.04.0132a8.4811,8.4811,0,0,0-5.7315,8.2,8.3841,8.3841,0,0,0,1.5153,4.68,8.5543,8.5543,0,0,0,7.2713,3.6661,8.8108,8.8108,0,0,0,5.316-1.9919c1.0632-.8921,1.4787-1.552,1.54-1.5154a2.2222,2.2222,0,0,1-.2933.4888,7.4563,7.4563,0,0,1-1.0754,1.2221,8.8723,8.8723,0,0,1-9.5443,1.5031,9.0405,9.0405,0,1,1,10.18-14.5425,8.9212,8.9212,0,0,1,1.8575,9.4832,7.3321,7.3321,0,0,1-.77,1.4176A2.1386,2.1386,0,0,1,928.902,171.5177Z"/><path class="cls-5" d="M953.2821,188.59c-.061,0,.4155-.66.8922-1.9553a8.8851,8.8851,0,0,0,.0611-5.6826,8.5039,8.5039,0,1,0-7.7968,11.1941,8.8355,8.8355,0,0,0,5.316-2.0042c1.0509-.88,1.4787-1.552,1.5275-1.5031s-.0855.1833-.2932.4766a6.4885,6.4885,0,0,1-1.0755,1.222,8.6882,8.6882,0,0,1-5.4626,2.2608,9.0065,9.0065,0,0,1-9.4267-8.5658q-.0049-.1043-.0076-.2085a9.0041,9.0041,0,0,1,17.5216-3.1793q.04.1165.0761.2341a8.8109,8.8109,0,0,1-.2566,5.9025,6.5791,6.5791,0,0,1-.77,1.43C953.4166,188.4555,953.3066,188.6021,953.2821,188.59Z"/><path class="cls-5" d="M953.38,188.7365a4.2337,4.2337,0,0,1,.3177-.5988c.2445-.44.5744-1.0021.99-1.7109.8432-1.4909,2.102-3.6661,3.5318-6.4646s3.0674-6.257,4.7293-10.2409,3.4218-8.4811,5.3649-13.3082l.1589.3788a91.2463,91.2463,0,0,1-15.2391-8.6277,93.3213,93.3213,0,0,1-11.7318-9.7032l.5133-.2566a37.6022,37.6022,0,0,1-1.3932,15.1657,38.2844,38.2844,0,0,1-5.2182,10.84,35.6794,35.6794,0,0,1-5.1815,5.9759,20.933,20.933,0,0,1-1.6131,1.3687,3.9662,3.9662,0,0,1-.5866.44,3.0927,3.0927,0,0,1,.5133-.5133c.3422-.3421.8921-.7821,1.54-1.442a39.4636,39.4636,0,0,0,5.01-6.037,38.6776,38.6776,0,0,0,5.0349-10.7785,37.1021,37.1021,0,0,0,1.3442-14.9458l-.0977-.8554.611.5988a96.1847,96.1847,0,0,0,11.6829,9.63,95.1691,95.1691,0,0,0,15.1169,8.5544l.2688.11-.11.2689c-1.9675,4.8149-3.7517,9.3121-5.4626,13.2837s-3.3729,7.418-4.8882,10.2165-2.7863,4.8882-3.6662,6.4036l-1.0754,1.65A3.227,3.227,0,0,1,953.38,188.7365Z"/><path class="cls-5" d="M963.9263,168.6825c-.11.1345-5.3038-3.324-11.6218-7.7478s-11.353-8.1267-11.2552-8.2734,5.3038,3.324,11.6218,7.7479S964.024,168.5359,963.9263,168.6825Z"/><path class="cls-1" d="M869.0211,292.0372c-.2811,0-.1344-2.53-1.662-6.11a17.9876,17.9876,0,0,0-3.7884-5.5725,17.585,17.585,0,0,0-7.0024-4.1917,17.8407,17.8407,0,0,0-8.1633-.44,17.3889,17.3889,0,0,0-6.2447,2.4441c-3.2629,2.1508-4.595,4.3261-4.8027,4.155s.1711-.6233.8432-1.552a15.3966,15.3966,0,0,1,3.3973-3.41,17.1088,17.1088,0,0,1,6.55-2.9451,17.4312,17.4312,0,0,1,20.115,11.0962,16.2977,16.2977,0,0,1,.9288,4.7294A4.8872,4.8872,0,0,1,869.0211,292.0372Z"/><path class="cls-1" d="M860.8089,285.9025c.2322-.3055,4.0572,2.2119,8.5544,5.6215l.2444.1955-1.0754.33c1.8209-5.1938,3.5562-9.251,3.9228-9.1166s-.8066,4.375-2.6152,9.5687l-.3055.9166-.77-.5866-.2567-.1956C863.974,289.1776,860.5278,286.208,860.8089,285.9025Z"/><path class="cls-1" d="M836.3677,289.1776c.2811,0-.1711,2.4441.8554,6.11a17.6471,17.6471,0,0,0,2.8963,5.8659,17.1091,17.1091,0,0,0,6.11,5.0471,20.49,20.49,0,0,0,1.9431.8188c.66.1833,1.3076.4033,1.9675.5377a17.4866,17.4866,0,0,0,3.8373.3911,17.256,17.256,0,0,0,6.4035-1.2954,19.7613,19.7613,0,0,0,3.9228-2.163c.88-.5988,1.3443-.99,1.43-.9043s-.2811.5743-1.0877,1.332a15.4557,15.4557,0,0,1-3.8372,2.5907,16.8626,16.8626,0,0,1-6.7824,1.6742,17.3058,17.3058,0,0,1-4.1428-.3421,19.6925,19.6925,0,0,1-2.1386-.5622,18.2419,18.2419,0,0,1-2.102-.88,17.3532,17.3532,0,0,1-6.538-5.5359,17.1071,17.1071,0,0,1-2.8107-6.3914,16.393,16.393,0,0,1-.3544-2.6519,19.6646,19.6646,0,0,1,.061-2.0164A12.8672,12.8672,0,0,1,836.3677,289.1776Z"/><path class="cls-1" d="M843.8589,296.2778c-.2688.2688-3.7639-2.7008-7.7967-6.6358l-.2322-.22,1.112-.1956c-2.4441,4.8883-4.6682,8.7377-4.9982,8.5544s1.3321-4.24,3.7518-9.1776l.4277-.8677.6843.6721.2322.22C841.0726,292.5749,844.1278,295.9967,843.8589,296.2778Z"/></g><g id="freepik--Server--inject-7"><rect class="cls-6" x="1160.5923" y="341.0052" width="155.4093" height="42.0877"/><rect class="cls-5" x="1164.7595" y="346.2967" width="8.3711" height="32.2135"/><path class="cls-1" d="M1182.9927,353.0669a2.6641,2.6641,0,1,1-2.6641-2.6641h.0123A2.6641,2.6641,0,0,1,1182.9927,353.0669Z"/><path class="cls-1" d="M1182.9927,364.4565a2.6641,2.6641,0,1,1-2.6641-2.6641h.0123a2.6518,2.6518,0,0,1,2.6518,2.6519Z"/><rect class="cls-5" x="1193.6368" y="350.4028" width="8.2244" height="24.7467"/><rect class="cls-5" x="1205.5153" y="350.4028" width="8.2244" height="24.7467"/><rect class="cls-5" x="1217.4059" y="350.4028" width="8.2244" height="24.7467"/><rect class="cls-5" x="1229.2843" y="350.4028" width="8.2244" height="24.7467"/><rect class="cls-5" x="1241.175" y="350.4028" width="8.2244" height="24.7467"/><rect class="cls-5" x="1253.0533" y="350.4028" width="8.2244" height="24.7467"/><rect class="cls-5" x="1264.9318" y="350.4028" width="8.2244" height="24.7467"/><rect class="cls-5" x="1276.8224" y="350.4028" width="8.2244" height="24.7467"/><rect class="cls-5" x="1288.7009" y="350.4028" width="8.2244" height="24.7467"/><rect class="cls-5" x="1300.5915" y="350.4028" width="8.2244" height="24.7467"/><rect class="cls-5" x="1316.0017" y="341.0052" width="27.7652" height="42.0877"/><rect class="cls-6" x="1160.5923" y="387.4312" width="155.4093" height="42.0877"/><rect class="cls-5" x="1164.7595" y="392.7228" width="8.3711" height="32.2135"/><path class="cls-1" d="M1182.9927,399.5052a2.6641,2.6641,0,1,1-2.6641-2.6641h.0123a2.6518,2.6518,0,0,1,2.6518,2.6518Z"/><path class="cls-1" d="M1182.9927,410.8825a2.6641,2.6641,0,1,1-2.6641-2.6641l.0123,0A2.664,2.664,0,0,1,1182.9927,410.8825Z"/><rect class="cls-5" x="1193.6368" y="396.8411" width="8.2244" height="24.7467"/><rect class="cls-5" x="1205.5153" y="396.8411" width="8.2244" height="24.7467"/><rect class="cls-5" x="1217.4059" y="396.8411" width="8.2244" height="24.7467"/><rect class="cls-5" x="1229.2843" y="396.8411" width="8.2244" height="24.7467"/><rect class="cls-5" x="1241.175" y="396.8411" width="8.2244" height="24.7467"/><rect class="cls-5" x="1253.0533" y="396.8411" width="8.2244" height="24.7467"/><rect class="cls-5" x="1264.9318" y="396.8411" width="8.2244" height="24.7467"/><rect class="cls-5" x="1276.8224" y="396.8411" width="8.2244" height="24.7467"/><rect class="cls-5" x="1288.7009" y="396.8411" width="8.2244" height="24.7467"/><rect class="cls-5" x="1300.5915" y="396.8411" width="8.2244" height="24.7467"/><rect class="cls-5" x="1316.0017" y="387.4312" width="27.7652" height="42.0877"/><rect class="cls-6" x="1160.5923" y="433.2218" width="155.4093" height="42.0877"/><rect class="cls-5" x="1164.7595" y="438.5133" width="8.3711" height="32.2135"/><path class="cls-1" d="M1182.9927,445.2835a2.6641,2.6641,0,1,1-2.6762-2.6519h.0244A2.6518,2.6518,0,0,1,1182.9927,445.2835Z"/><path class="cls-1" d="M1182.9927,456.6731a2.6641,2.6641,0,1,1-2.6641-2.6641h.0123A2.6642,2.6642,0,0,1,1182.9927,456.6731Z"/><rect class="cls-5" x="1193.6368" y="442.6317" width="8.2244" height="24.7467"/><rect class="cls-5" x="1205.5153" y="442.6317" width="8.2244" height="24.7467"/><rect class="cls-5" x="1217.4059" y="442.6317" width="8.2244" height="24.7467"/><rect class="cls-5" x="1229.2843" y="442.6317" width="8.2244" height="24.7467"/><rect class="cls-5" x="1241.175" y="442.6317" width="8.2244" height="24.7467"/><rect class="cls-5" x="1253.0533" y="442.6317" width="8.2244" height="24.7467"/><rect class="cls-5" x="1264.9318" y="442.6317" width="8.2244" height="24.7467"/><rect class="cls-5" x="1276.8224" y="442.6317" width="8.2244" height="24.7467"/><rect class="cls-5" x="1288.7009" y="442.6317" width="8.2244" height="24.7467"/><rect class="cls-5" x="1300.5915" y="442.6317" width="8.2244" height="24.7467"/><rect class="cls-5" x="1316.0017" y="433.2218" width="27.7652" height="42.0877"/><rect class="cls-5" x="1343.7669" y="361.7924" width="10.5952" height="7.3568"/><path class="cls-5" d="M1216.5627,163.4521v-7.9067a1.1243,1.1243,0,0,1,1.1242-1.1243h7.3324a1.1243,1.1243,0,0,1,1.1243,1.1243v7.9067a4.8027,4.8027,0,0,1-4.8027,4.8027h0A4.8027,4.8027,0,0,1,1216.5627,163.4521Z"/><rect class="cls-5" x="1343.7669" y="406.3976" width="10.5952" height="7.3568"/><rect class="cls-5" x="1343.7669" y="449.2797" width="10.5952" height="7.3568"/><rect class="cls-5" x="1149.2761" y="449.2797" width="10.5952" height="7.3568"/><path class="cls-5" d="M1378.6689,386.5758a6.2984,6.2984,0,0,1,0,1.5031,10.6974,10.6974,0,0,1-.11,1.772,19.21,19.21,0,0,1-.3788,2.31,18.237,18.237,0,0,1-.7822,2.75c-.1711.4766-.3177.99-.55,1.4909l-.7211,1.5276a23.8059,23.8059,0,0,1-10.473,10.4608l-1.5276.721c-.4889.2322-1.0021.3789-1.4787.5622a20.616,20.616,0,0,1-2.75.77,19.3663,19.3663,0,0,1-2.3219.3788,10.4872,10.4872,0,0,1-1.76.11,6.2364,6.2364,0,0,1-1.5031,0c0-.1467,2.1509-.0733,5.4871-.88a21.8207,21.8207,0,0,0,2.664-.831c.4644-.1955.9654-.3422,1.4421-.5744l1.4787-.7332a24.148,24.148,0,0,0,10.2164-10.2164c.2566-.5011.4888-.99.7332-1.4787s.3788-.9776.5743-1.442a21.8167,21.8167,0,0,0,.831-2.6641C1378.5956,388.7266,1378.5223,386.5636,1378.6689,386.5758Z"/><path class="cls-5" d="M1378.6689,340.3453a6.2984,6.2984,0,0,1,0,1.5031,10.6974,10.6974,0,0,1-.11,1.772,19.37,19.37,0,0,1-.3788,2.3219,18.5028,18.5028,0,0,1-.7822,2.7374c-.1711.4766-.3177.99-.55,1.4909l-.7211,1.5276a26.0039,26.0039,0,0,1-4.3994,6.11,25.466,25.466,0,0,1-6.11,4.3994l-1.5275.721c-.4889.2322-1.0021.3789-1.4787.5622a18.9266,18.9266,0,0,1-2.75.77,17.1976,17.1976,0,0,1-2.3219.3788,10.4872,10.4872,0,0,1-1.76.11,6.2364,6.2364,0,0,1-1.5031,0c0-.1466,2.1508-.0733,5.487-.8677a20.0046,20.0046,0,0,0,2.6641-.8432,15.357,15.357,0,0,0,1.442-.5744l1.4788-.721a24.3307,24.3307,0,0,0,10.2164-10.2164c.2566-.5132.4888-1.0021.7332-1.4786s.3788-.99.5743-1.4543a21.1713,21.1713,0,0,0,.831-2.6641A55.4506,55.4506,0,0,0,1378.6689,340.3453Z"/><path class="cls-5" d="M1154.5676,452.9336h-2.2l-6.318.0611-23.2192.0978-76.7086.0977H1013.86c-3.41,0-6.7091.0978-9.9964-.1466a32.9935,32.9935,0,0,1-9.2632-2.2364c-.7455-.2444-1.4054-.6477-2.102-.9532a17.5306,17.5306,0,0,1-2.0042-1.0754l-1.9064-1.2221-1.76-1.32a15.0614,15.0614,0,0,1-1.65-1.3931c-.5133-.4889-1.0755-.941-1.5521-1.4543a33.2758,33.2758,0,0,1-2.664-3.1407,32.6265,32.6265,0,0,1-3.9106-6.6847,33.1043,33.1043,0,0,1-2.5909-12.88V410.687c0-2.75,0-4.8882.0611-6.3181v0c0,1.4665,0,3.5929.0611,6.3181s0,6.11,0,9.9965a32.6515,32.6515,0,0,0,2.64,12.8072,31.9318,31.9318,0,0,0,3.8861,6.5624,32.7347,32.7347,0,0,0,2.64,3.0918c.4643.5011,1.0142.941,1.5275,1.4176a14.6689,14.6689,0,0,0,1.6376,1.3687l1.7353,1.2954,1.87,1.1487a16.0059,16.0059,0,0,0,1.98,1.0388c.6844.3055,1.3443.6966,2.0653.941a32.84,32.84,0,0,0,9.1043,2.163c3.2018.2322,6.55.0977,9.9476.1344h32.2624l76.7087.0978,23.2191.0977h7.9678Z"/><path class="cls-5" d="M1221.3165,166.2384V183.25c0,10.9985-.0733,26.8853-.1222,46.4383,0,9.7764-.0733,20.5306-.1222,32.0424V275.014c0,1.5031.1344,3.0184.22,4.5338a41.4638,41.4638,0,0,0,6.11,17.5854,40.6086,40.6086,0,0,0,14.09,13.5527c.3666.22.721.4521,1.0876.6477l1.1488.55,2.2852,1.1,2.4441.8921a17.6881,17.6881,0,0,0,2.4442.77l2.4441.6477c.831.2077,1.6987.2811,2.5541.4277a38.6812,38.6812,0,0,0,5.1938.4522c14.09.0855,28.6939,0,43.6275,0h54.1372a20.14,20.14,0,0,1,20.1028,19.2718V424.704a39.3637,39.3637,0,0,1-.2933,6.11,25.9321,25.9321,0,0,1-9.8986,16.8767,25.2973,25.2973,0,0,1-11.5,4.986c-.721.0977-1.3442.2077-1.8942.2566l-1.3687.0611h-1.1242a9.4412,9.4412,0,0,0,1.112-.0978l1.3809-.0855a14.2377,14.2377,0,0,0,1.87-.2811,25.8509,25.8509,0,0,0,21.0683-21.7894,40.1134,40.1134,0,0,0,.2688-6V404.3322c0-19.5529-.0733-42.9187-.1221-68.8142a19.553,19.553,0,0,0-19.3941-18.6608H1261.29a37.6607,37.6607,0,0,1-5.2671-.4644c-.8677-.1466-1.7475-.2322-2.603-.44l-2.53-.6477a17.2726,17.2726,0,0,1-2.4441-.7943l-2.4441-.8922-2.322-1.1243-1.1609-.5621-1.1-.66a41.0989,41.0989,0,0,1-14.2737-13.76,41.9667,41.9667,0,0,1-6.208-17.8421c-.0734-1.54-.1712-3.08-.2078-4.595s0-3.0062,0-4.4971v-8.7867c.0733-11.5118.1344-22.2536.1955-32.0424.1344-19.5529.2444-35.44.33-46.4382,0-5.4626.0856-9.7154.1222-12.6117v-3.2873A8.959,8.959,0,0,0,1221.3165,166.2384Z"/></g><g id="freepik--Character--inject-7"><path class="cls-5" d="M1177.7012,173.84c-2.713-.6232-3.3118-3.8128-3.5562-5.6092a6.11,6.11,0,0,1,1.6254-4.9982c2.4441-2.5175,6.4891-2.4442,9.7765-1.4176a48.38,48.38,0,0,0,7.9556,2.2974c2.6641.4522,6.2447-.6354,10.0086,1.2221,2.8841,1.3931,2.4442,3.9717,3.9229,4.8882s2.2486,1.76,3.6662,2.713c1.8453,1.2221,1.98,3.8739,1.6009,6.11s-1.0755,4.4972-.2078,6.538c.5988,1.43,1.8942,2.4442,2.4441,3.9229a4.5216,4.5216,0,0,1-1.9919,5.4626,7.759,7.759,0,0,0-1.9187,1.0754,6.6841,6.6841,0,0,0-1.1365,2.884,5.1447,5.1447,0,0,1-4.5094,3.4829,4.6316,4.6316,0,0,1-4.546-3.2873,9.85,9.85,0,0,1,.5743-5.0105,31.8464,31.8464,0,0,0,.6233-13.6259"/><path class="cls-12" d="M1201.8736,216.3918l-17.7688-1.4176c-.11-2.0775,0-10.0942,0-10.0942s-7.3934-1.1488-7.479-8.5545,1.2221-24.3556,1.2221-24.3556h0a25.6634,25.6634,0,0,1,25.81,3.2384l1.1.8432Z"/><path class="cls-5" d="M1179.7665,185.3025a1.0876,1.0876,0,0,0,.0733-1.5153,1.0754,1.0754,0,1,0-.0772,1.5189Z"/><path class="cls-5" d="M1177.7623,182.9929c.11.1222.831-.4278,1.8575-.44s1.76.5255,1.87.3911,0-.2811-.3911-.5255a2.4436,2.4436,0,0,0-1.4908-.4766,2.53,2.53,0,0,0-1.4788.5011C1177.8112,182.7,1177.7012,182.9317,1177.7623,182.9929Z"/><path class="cls-5" d="M1189.5429,183.775a1.0754,1.0754,0,1,0,1.4811.3458l-.0023-.0037a1.0632,1.0632,0,0,0-1.4616-.3528Z"/><path class="cls-5" d="M1188.8341,183.4328c.1222.1222.8432-.4277,1.87-.44s1.7475.5254,1.87.391-.0611-.2933-.3911-.5377a2.53,2.53,0,0,0-2.97,0C1188.8952,183.14,1188.7853,183.3717,1188.8341,183.4328Z"/><path class="cls-5" d="M1184.728,192.2805a4.9634,4.9634,0,0,0-1.6376-.3422c-.2688,0-.4766-.0855-.501-.2322a1.4905,1.4905,0,0,1,.1955-.77c.2567-.6721.5255-1.3442.8065-2.0652a28.1094,28.1094,0,0,0,1.7353-5.4382,28.7156,28.7156,0,0,0-2.2852,5.2426l-.7577,2.0775a1.7356,1.7356,0,0,0-.1466,1.1121.66.66,0,0,0,.4644.4155,1.2228,1.2228,0,0,0,.4521,0A4.682,4.682,0,0,0,1184.728,192.2805Z"/><path class="cls-13" d="M1184.1292,204.77a17.1823,17.1823,0,0,0,9.63-2.7375s-2.2731,5.316-9.6421,4.6561Z"/><path class="cls-5" d="M1177.7012,173.84a12.3058,12.3058,0,0,0,10.3753,0c3.9716-1.6375,8.5544-2.2363,9.4221-1.3931s.8432,4.8027,4.5582,6.2325c0,0-.8187,7.5156,2.2,7.4668s2.0164-11.8418,2.0164-11.8418l-7.0879-4.1306-7.8945-2.1141-7.6379.5132-5.9514,1.161Z"/><path class="cls-12" d="M1203.8411,183.7261c.1221-.0611,5.0837-1.5031,4.8882,3.544s-5.1938,3.8494-5.206,3.6661S1203.8411,183.7261,1203.8411,183.7261Z"/><path class="cls-13" d="M1205.1609,189.1032a1.2377,1.2377,0,0,0,.2322.1466.8926.8926,0,0,0,.66,0,2.1878,2.1878,0,0,0,1.0632-1.9309,2.8224,2.8224,0,0,0-.2078-1.222.9654.9654,0,0,0-.6355-.6966.4275.4275,0,0,0-.5254.22c-.0734.1344,0,.2444-.0734.2444s-.11-.0856-.061-.2933a.5244.5244,0,0,1,.2077-.3055.6842.6842,0,0,1,.501-.1223,1.2956,1.2956,0,0,1,.8921.8188,2.97,2.97,0,0,1,.2566,1.4176,2.2609,2.2609,0,0,1-1.3564,2.1386.9165.9165,0,0,1-.7944-.1589C1205.1609,189.2376,1205.1364,189.1154,1205.1609,189.1032Z"/><path class="cls-5" d="M1182.0639,181.6364c-.1588.2933-1.1242,0-2.2852,0s-2.1386.0855-2.2853-.22.8677-1.0388,2.3341-.9654S1182.2106,181.3186,1182.0639,181.6364Z"/><path class="cls-5" d="M1193.8568,181.7952c-.1588.2933-1.1365.0611-2.2852,0s-2.1508.0978-2.2852-.22.8676-1.0265,2.3341-.9654S1194.0279,181.5264,1193.8568,181.7952Z"/><path class="cls-5" d="M1193.5391,171.3344a10.6318,10.6318,0,0,0,11.1977,10.0343l.0208-.0012a19.7606,19.7606,0,0,0-3.104-8.0289c-1.772-2.2975-4.8882-3.8006-7.6134-2.86"/><path class="cls-5" d="M1188.7608,192.0728a1.4068,1.4068,0,0,1,0,.7943,3.1279,3.1279,0,0,1-1.0021,1.6253,3.2261,3.2261,0,0,1-1.772.7577c-.4889,0-.7821-.0733-.7821-.1344a6.9433,6.9433,0,0,0,2.2241-1.0021C1188.4431,193.2337,1188.6142,192.0483,1188.7608,192.0728Z"/><path class="cls-5" d="M1189.3963,192.6349a1.9809,1.9809,0,0,0-.8188-.3055,3.7217,3.7217,0,0,0-.88.0978.9815.9815,0,0,1,.9043-.3422C1189.1886,192.1705,1189.47,192.6349,1189.3963,192.6349Z"/><path class="cls-6" d="M1207.1528,190.6063a1.32,1.32,0,0,1,.2077,1.222,1.6619,1.6619,0,0,1-.77,1.1,1.8087,1.8087,0,0,1-1.65.0978,1.6743,1.6743,0,0,1-1.0021-1.32,1.7962,1.7962,0,0,1,.3055-1.3076c.501-.6721,1.1365-.5377,1.0876-.501a1.2217,1.2217,0,0,0-.941.5988,1.6617,1.6617,0,0,0-.22,1.222,1.4911,1.4911,0,0,0,.8676,1.1243,1.6617,1.6617,0,0,0,1.43-.0611,1.5883,1.5883,0,0,0,.7211-.9532A2.3089,2.3089,0,0,0,1207.1528,190.6063Z"/><path class="cls-6" d="M1175.3548,163.7332a4.3631,4.3631,0,0,0,2.0286,3.4951,9.1782,9.1782,0,0,0,4.3139,1.3443,14.0539,14.0539,0,0,0,5.5482-.6111c1.9064-.5621,3.4584-1.8086,5.2548-2.1019a5.2181,5.2181,0,0,1,4.3505,1.332,5.12,5.12,0,0,1,1.4787,2.7375,3.3075,3.3075,0,0,1,0,1.1487,7.9666,7.9666,0,0,0-.1466-1.1243,5.1686,5.1686,0,0,0-1.5031-2.6274,5.0229,5.0229,0,0,0-4.1917-1.2221c-1.6986.2811-3.2628,1.5276-5.2182,2.1142a14.03,14.03,0,0,1-5.6337.5988,9.0557,9.0557,0,0,1-4.3993-1.43,4.607,4.607,0,0,1-1.8331-2.5052A2.7871,2.7871,0,0,1,1175.3548,163.7332Z"/><path class="cls-6" d="M1198.2562,170.9189a2.9451,2.9451,0,0,1,.9533-.941,3.8862,3.8862,0,0,1,3.544-.3911,4.1066,4.1066,0,0,1,1.9431,1.6009,4.9857,4.9857,0,0,1,.6477,2.823,27.3047,27.3047,0,0,0,0,3.1651,3.483,3.483,0,0,0,1.7475,2.6519,11.7177,11.7177,0,0,1,2.8352,1.9553,5.78,5.78,0,0,1,1.2221,2.9818c.2077,2.0531-.11,3.8739.1955,5.3771a4.766,4.766,0,0,0,1.7231,3.0307,3.9356,3.9356,0,0,0,1.222.55,2.4428,2.4428,0,0,1-1.222-.4766,4.7294,4.7294,0,0,1-1.8576-3.08c-.3177-1.5276,0-3.3851-.2444-5.3648a5.487,5.487,0,0,0-1.1243-2.86,11.5587,11.5587,0,0,0-2.7741-1.8941,3.9045,3.9045,0,0,1-1.7964-2.8475,25.2614,25.2614,0,0,1,0-3.2017,4.8025,4.8025,0,0,0-.5988-2.7008,3.9348,3.9348,0,0,0-1.8331-1.5642,3.837,3.837,0,0,0-3.4217.3177A5,5,0,0,0,1198.2562,170.9189Z"/><path class="cls-6" d="M1212.5421,175.3672a.9162.9162,0,0,0-.0978-.6721,1.5029,1.5029,0,0,0-1.6742-.5255,7.334,7.334,0,0,1-1.3687.1833,2.0775,2.0775,0,0,1-1.442-.6966c-.831-.831-1.0143-2.1386-1.7353-3.1285a4.8887,4.8887,0,0,0-2.8718-1.8453,4.522,4.522,0,0,0-2.7864.2933,5.6348,5.6348,0,0,0-2.0775,1.6132,3.216,3.216,0,0,1,.4156-.5989,5.0105,5.0105,0,0,1,1.5886-1.222,4.668,4.668,0,0,1,2.9085-.3544,4.9741,4.9741,0,0,1,3.0185,1.9308c.7821,1.0755.9532,2.3464,1.7109,3.1163a1.8946,1.8946,0,0,0,1.2221.6477,7.8033,7.8033,0,0,0,1.332-.1466,2.31,2.31,0,0,1,1.1365.0733,1.2216,1.2216,0,0,1,.66.5866C1212.7621,175.1228,1212.5421,175.3916,1212.5421,175.3672Z"/><path class="cls-6" d="M1196.3621,164.2342a.71.71,0,0,1,.3422-.0733,2.2228,2.2228,0,0,1,.9165.1711,3.0307,3.0307,0,0,1,1.772,2.4441,6.1831,6.1831,0,0,1-.4033,3.0185,5.4518,5.4518,0,0,1-.5132,1.161,6.678,6.678,0,0,1,.3422-1.2221,6.7092,6.7092,0,0,0,.3177-2.9329,2.9206,2.9206,0,0,0-1.5886-2.2975A3.2384,3.2384,0,0,0,1196.3621,164.2342Z"/><path class="cls-6" d="M1179.1554,174.304a13.2791,13.2791,0,0,0,2.9819.611,10.6926,10.6926,0,0,0,6.9412-1.9186c1.2221-.831,2.0531-1.9186,3.1163-2.64a4.0455,4.0455,0,0,1,3.2385-.7088,6.7236,6.7236,0,0,1,2.1019.8555l.5132.3177.1711.1344a4.5135,4.5135,0,0,1-.7332-.3666,7.1623,7.1623,0,0,0-2.0775-.77,3.8863,3.8863,0,0,0-3.08.7333c-1.0266.6965-1.9064,1.7842-3.104,2.6518a10.5582,10.5582,0,0,1-7.1,1.8942A8.1381,8.1381,0,0,1,1179.1554,174.304Z"/><polygon class="cls-2" points="1138.388 428.847 1140.013 446.64 1158.429 448.62 1158.429 426.769 1138.388 428.847"/><polygon class="cls-6" points="1139.096 436.631 1158.429 436.631 1158.429 438.758 1139.341 439.234 1139.096 436.631"/><polygon class="cls-6" points="1139.475 440.786 1139.695 443.145 1158.429 443.047 1158.429 440.664 1139.475 440.786"/><polygon class="cls-6" points="1140.013 446.64 1139.891 445.259 1158.429 444.941 1158.405 446.273 1140.013 446.64"/><path class="cls-7" d="M1140.0373,448.5464v-1.9919l18.6975-.6966.281,6.55-1.1487.1222c-5.12.4888-26.091,2.1142-29.5616,1.2221C1124.3705,452.7381,1140.0373,448.5464,1140.0373,448.5464Z"/><g class="cls-14"><path class="cls-1" d="M1152.209,452.53a6.4406,6.4406,0,0,1,2.212-4.07,6.3306,6.3306,0,0,1,4.3016-1.5276l.2078,5.206Z"/></g><g class="cls-14"><path class="cls-1" d="M1132.3872,450.8683s-5.4748,1.8209-4.7416,2.7008,21.9971,0,31.3092-1.161v-.4155l-24.7711,1.2221S1133.4748,450.8683,1132.3872,450.8683Z"/></g><path class="cls-5" d="M1159.1992,451.9682a1.3621,1.3621,0,0,1-.3178,0l-.9165.0855-3.3729.2811c-2.86.22-6.7947.4767-11.1574.6477s-8.3223.2566-11.1819.2689h-4.6316a.9267.9267,0,0,1,.3178,0h.9287l3.3851-.0733c2.86,0,6.8069-.1589,11.17-.33s8.2978-.4033,11.1575-.5866l3.3851-.2078h.9165Z"/><path class="cls-5" d="M1134.147,453.4836a6.8076,6.8076,0,0,0-.6966-1.5887,7.5428,7.5428,0,0,0-1.2221-1.2221,2.53,2.53,0,0,1,1.3932,1.1244A2.4438,2.4438,0,0,1,1134.147,453.4836Z"/><path class="cls-5" d="M1139.524,450.49a4.03,4.03,0,0,1-.611-.6843c-.2933-.4155-.4766-.7822-.4277-.8188s.33.2688.6111.6843S1139.5851,450.49,1139.524,450.49Z"/><path class="cls-5" d="M1141.0028,449.6219a2.6672,2.6672,0,0,1-.6722-.4155c-.33-.2811-.5743-.5378-.5254-.5744s.3422.1344.6721.4033S1141.0394,449.573,1141.0028,449.6219Z"/><path class="cls-5" d="M1141.8826,447.8254a2.2473,2.2473,0,0,1-.9654.1711.4888.4888,0,1,1,0-.2322A2.2735,2.2735,0,0,1,1141.8826,447.8254Z"/><path class="cls-5" d="M1142.1637,446.5789a1.9676,1.9676,0,0,1-1.0755.3544,2.0654,2.0654,0,0,1-1.1242-.0977,5.338,5.338,0,0,1,1.1-.1223A5.4307,5.4307,0,0,1,1142.1637,446.5789Z"/><path class="cls-5" d="M1138.8275,448.8764a2.897,2.897,0,0,1-1.2221,0,6.9955,6.9955,0,0,1-1.2221-.2322,3.24,3.24,0,0,1-.7454-.2689.684.684,0,0,1-.3177-.3666.4642.4642,0,0,1,.1711-.4766,2.1876,2.1876,0,0,1,2.7374.5255,2.0416,2.0416,0,0,1,.4155.7821.6848.6848,0,0,1,0,.33,3.3711,3.3711,0,0,0-.5866-1.0021,2.1753,2.1753,0,0,0-1.0509-.6233,1.796,1.796,0,0,0-1.4176.1589c-.1833.1466-.0978.3666.11.4766a3.6709,3.6709,0,0,0,.6843.2689,8.9368,8.9368,0,0,0,1.2221.2688C1138.3753,448.8642,1138.8275,448.84,1138.8275,448.8764Z"/><path class="cls-5" d="M1138.5219,448.95a1.2228,1.2228,0,0,1-.1711-.8188,2.1274,2.1274,0,0,1,.2933-.8921,1.2219,1.2219,0,0,1,.9777-.6477.4766.4766,0,0,1,.391.5377,1.3924,1.3924,0,0,1-.1833.5377,3.9125,3.9125,0,0,1-.5377.7577c-.3666.3788-.6478.5255-.66.501s.22-.22.5377-.611a4.0094,4.0094,0,0,0,.4766-.7332c.1467-.2689.2444-.721,0-.77s-.5865.2932-.77.55a2.0291,2.0291,0,0,0-.3055.7821A5.5078,5.5078,0,0,0,1138.5219,448.95Z"/><path class="cls-5" d="M1158.6126,446.8844a11.7286,11.7286,0,0,0-1.3687.11,5.8413,5.8413,0,0,0-4.7171,4.0817,11.6236,11.6236,0,0,0-.2933,1.3442v-.3788a5.25,5.25,0,0,1,.1711-1.0143,5.658,5.658,0,0,1,4.8882-4.1916,4.8792,4.8792,0,0,1,1.0266,0A1.14,1.14,0,0,1,1158.6126,446.8844Z"/><path class="cls-5" d="M1149.7893,450.8073a10.4133,10.4133,0,0,1-2.7008.3788,10.6816,10.6816,0,0,1-2.7374-.11c0-.0611,1.2221,0,2.7252-.1222A19.8886,19.8886,0,0,1,1149.7893,450.8073Z"/><path class="cls-5" d="M1153.4311,450.6484s-.0856.2688-.1955.55-.1711.5377-.2322.5377-.11-.2933,0-.6232S1153.3944,450.6117,1153.4311,450.6484Z"/><path class="cls-5" d="M1154.7387,448.8886a.6107.6107,0,0,1-.2444.44c-.2445.1955-.3789.33-.4156.2933s0-.2444.2445-.44S1154.69,448.84,1154.7387,448.8886Z"/><path class="cls-5" d="M1156.6817,448.0454c0,.0733-.2566.0733-.5377.1833s-.4521.2566-.501.22.0856-.3056.4277-.4278S1156.694,447.9721,1156.6817,448.0454Z"/><path class="cls-5" d="M1158.0627,447.6055a.47.47,0,0,1-.2322.22c-.1589.0611-.2933.0733-.3178,0s.0733-.1588.2322-.22S1158.0382,447.5443,1158.0627,447.6055Z"/><polygon class="cls-6" points="1138.84 433.821 1138.95 434.908 1158.429 434.639 1158.429 433.344 1138.84 433.821"/><polygon class="cls-2" points="1091.778 385.928 1085.155 402.536 1100.663 412.655 1110.573 393.175 1091.778 385.928"/><polygon class="cls-6" points="1088.882 393.199 1106.101 401.962 1105.135 403.868 1087.904 395.631 1088.882 393.199"/><polygon class="cls-6" points="1087.33 397.073 1086.45 399.273 1103.192 407.693 1104.28 405.554 1087.33 397.073"/><polygon class="cls-6" points="1085.155 402.536 1085.668 401.253 1102.337 409.367 1101.714 410.553 1085.155 402.536"/><path class="cls-7" d="M1084.3114,404.2345l.8432-1.7964,16.9744,7.8578-2.713,5.9759-1.0754-.4155c-4.7905-1.8941-24.2212-9.9475-26.8853-12.3183C1068.4368,400.8617,1084.3114,404.2345,1084.3114,404.2345Z"/><g class="cls-14"><path class="cls-1" d="M1093.3424,413.3022a6.5386,6.5386,0,0,1,3.825-2.6152,6.27,6.27,0,0,1,4.5217.5988l-2.1753,4.7294Z"/></g><g class="cls-14"><path class="cls-1" d="M1076.4413,402.8292s-5.707-.8677-5.4626.2566,19.553,9.9964,28.4373,13.1616l.1467-.3911L1076.93,405.701S1077.4067,403.33,1076.4413,402.8292Z"/></g><path class="cls-5" d="M1099.8315,415.9786l-.3055-.0978-.8554-.33-3.1407-1.2832c-2.64-1.1-6.2692-2.6763-10.2287-4.485s-7.5279-3.5562-10.0942-4.8882l-2.9818-1.491-.8066-.4277a1.28,1.28,0,0,1-.281-.1711l.3055.1344.831.3911,3.0429,1.4787c2.5785,1.222,6.11,2.9451,10.1064,4.766s7.589,3.41,10.2042,4.5461l3.1162,1.3442.8433.3666Z"/><path class="cls-5" d="M1076.82,405.97a7.3384,7.3384,0,0,0,.0977-1.7354,8.1186,8.1186,0,0,0-.501-1.65,3.0359,3.0359,0,0,1,.4033,3.3851Z"/><path class="cls-5" d="M1082.9793,405.7377a1.9443,1.9443,0,0,1-.2322-.9043,1.8591,1.8591,0,0,1,0-.9166,4.2807,4.2807,0,0,1,.2322.8921A2.1277,2.1277,0,0,1,1082.9793,405.7377Z"/><path class="cls-5" d="M1084.678,405.64a2.9229,2.9229,0,0,1-.4155-.6721,1.5475,1.5475,0,0,1-.2078-.77c.0489-.0367.2445.2811.4155.6721S1084.7391,405.6155,1084.678,405.64Z"/><path class="cls-5" d="M1086.2789,404.4423a2.297,2.297,0,0,1-.9288-.2933,2.3574,2.3574,0,0,1-.8432-.501,2.1787,2.1787,0,0,1,.9288.2933C1085.9245,404.1612,1086.3033,404.3812,1086.2789,404.4423Z"/><path class="cls-5" d="M1087.0977,403.4524a2.7736,2.7736,0,0,1-2.0775-.77,5.2362,5.2362,0,0,1,1.0387.3911C1086.6211,403.2813,1087.11,403.3791,1087.0977,403.4524Z"/><path class="cls-5" d="M1083.0771,404.0512a3.3852,3.3852,0,0,1-1.0754-.501,7.4218,7.4218,0,0,1-1.051-.7943,3.4574,3.4574,0,0,1-.5254-.5744.5988.5988,0,0,1-.1223-.4644.4889.4889,0,0,1,.3666-.3544,2.2,2.2,0,0,1,2.2,1.7109,2.2332,2.2332,0,0,1,0,.8921c0,.2078-.0977.3177-.11.3055a3.4566,3.4566,0,0,0-.0734-1.1487,2.1383,2.1383,0,0,0-.6477-1.0388,1.906,1.906,0,0,0-1.332-.501c-.2322,0-.2689.281-.1222.4888a3.3607,3.3607,0,0,0,.4888.5377,7.5762,7.5762,0,0,0,.99.8065C1082.686,403.77,1083.1015,403.9535,1083.0771,404.0512Z"/><path class="cls-5" d="M1082.7716,403.9168a1.2221,1.2221,0,0,1,.22-.8065,2.0407,2.0407,0,0,1,.6722-.66,1.2221,1.2221,0,0,1,1.1609-.1466.4888.4888,0,0,1,.0978.66,1.4037,1.4037,0,0,1-.4033.4033,3.67,3.67,0,0,1-.8188.4155,1.7111,1.7111,0,0,1-.831.1589,6.9315,6.9315,0,0,0,.77-.3056,3.86,3.86,0,0,0,.7577-.44c.2566-.1589.55-.5255.2933-.6966s-.66,0-.9288.1222a1.9556,1.9556,0,0,0-.6354.5744A6.888,6.888,0,0,0,1082.7716,403.9168Z"/><path class="cls-5" d="M1101.6157,411.1881a7.4215,7.4215,0,0,0-1.222-.5255,5.9643,5.9643,0,0,0-3.2385-.1344,6.1109,6.1109,0,0,0-2.8107,1.6253c-.5988.611-.8432,1.0877-.88,1.0632a1.2222,1.2222,0,0,1,.1589-.3422,4.609,4.609,0,0,1,.5988-.8188,5.6094,5.6094,0,0,1,6.22-1.54,4.3727,4.3727,0,0,1,.9287.4522C1101.5546,411.09,1101.628,411.1758,1101.6157,411.1881Z"/><path class="cls-5" d="M1091.9737,410.6748a10.1677,10.1677,0,0,1-2.5908-.8921,10.6237,10.6237,0,0,1-2.4441-1.332c0-.0611,1.1121.5132,2.4441,1.1243S1091.9981,410.6137,1091.9737,410.6748Z"/><path class="cls-5" d="M1095.2977,412.19s-.2078.1955-.4277.4032-.4033.3911-.4522.3666,0-.3055.2933-.5377S1095.2732,412.1413,1095.2977,412.19Z"/><path class="cls-5" d="M1097.253,411.2125c0,.0611-.1589.1833-.4155.2811s-.4888.1344-.5133.0733.1711-.1833.4278-.2811S1097.2285,411.1514,1097.253,411.2125Z"/><path class="cls-5" d="M1099.3671,411.3836a2.5356,2.5356,0,0,1-.55-.0733,1.2081,1.2081,0,0,0-.55,0,.6805.6805,0,0,1,.5743-.1956C1099.196,411.1514,1099.416,411.2858,1099.3671,411.3836Z"/><path class="cls-5" d="M1100.797,411.5791a.5094.5094,0,0,1-.3055.0856c-.1712-.0122-.2933-.0611-.2933-.1222s.1466-.11.3055-.0978S1100.8092,411.5058,1100.797,411.5791Z"/><polygon class="cls-6" points="1089.921 390.584 1089.517 391.586 1107.005 400.19 1107.592 399.029 1089.921 390.584"/><path class="cls-5" d="M1220.1678,308.3884s-81.6092-23.0114-89.5282-19.81-50.0066,97.8748-50.0066,97.8748l28.01,13.2838,38.556-80.827s54.5649,30.1482,65.3313,21.166C1225.5448,329.2123,1220.3511,304.6978,1220.1678,308.3884Z"/><path class="cls-5" d="M1210.9534,309.5982c-1.222.3422-67.3233,0-78.3829,13.0761-4.4605,5.2548-1.5153,111.3419-1.5153,111.3419l28.9506-.7088.8065-91.6545h47.11a4.4727,4.4727,0,0,0,4.4543-4.4911q0-.107-.006-.2138Z"/><path class="cls-6" d="M1210.7579,336.96a2.4456,2.4456,0,0,1-.6966-.11l-1.9431-.4522-7.1369-1.7475c-6.0125-1.5153-14.3225-3.6662-23.3658-6.4647-4.5094-1.442-8.7621-2.9452-12.5872-4.4483-8.5544-3.3974-.2932.3788-10.0086-4.3506-2.7864-1.3564-5.0227-2.53-6.5136-3.3973l-1.7353-1.0143a2.2384,2.2384,0,0,1-.5744-.391,3.9283,3.9283,0,0,1,.6355.281l1.7843.9044c1.5275.8065,3.7883,1.9186,6.5991,3.214s6.1959,2.75,10.0209,4.2283,8.0656,2.9452,12.575,4.375c9.0188,2.8351,17.3043,5.01,23.2924,6.6357l7.0757,1.9431,1.9187.5621A4.05,4.05,0,0,1,1210.7579,336.96Z"/><path class="cls-6" d="M1154.6654,338.5366a9.1666,9.1666,0,0,1,3.1651,1.2221,9.7756,9.7756,0,0,1,2.8719,1.8209,9.4728,9.4728,0,0,1-3.1652-1.2221A9.7758,9.7758,0,0,1,1154.6654,338.5366Z"/><path class="cls-6" d="M1157.1339,335.9092a32.3231,32.3231,0,0,1,1.9186,3.0674,35.0709,35.0709,0,0,1,2.1019,2.9451,6.5874,6.5874,0,0,1-2.6152-2.603A6.6851,6.6851,0,0,1,1157.1339,335.9092Z"/><path class="cls-6" d="M1145.9521,314.34a11.6281,11.6281,0,0,1-1.9431.0734,23.6314,23.6314,0,0,0-5.1938.55,8.97,8.97,0,0,0-6,4.3016c-1.3809,2.5419-1.4787,5.8537-1.5031,9.2266-.0978,6.8068-.22,12.9782-.3422,17.4387-.0733,2.1386-.1344,3.9228-.1711,5.2794a10.7071,10.7071,0,0,1-.1589,1.9308,12.7152,12.7152,0,0,1-.0977-1.9308v-5.2916c0-4.4605.061-10.62.1588-17.4387,0-3.3607.1222-6.7824,1.6132-9.4954a8.1385,8.1385,0,0,1,2.97-3.0918,11.4515,11.4515,0,0,1,3.4462-1.3687,20.7751,20.7751,0,0,1,5.3159-.3544A11.263,11.263,0,0,1,1145.9521,314.34Z"/><path class="cls-6" d="M1137.3487,192.7815c.3423.4889,12.88,35.6475,12.88,35.6475l-20.3228,4.0573-11.2429-28.6207Z"/><polygon class="cls-5" points="1150.229 228.429 1152.013 227.329 1139.047 191.731 1137.129 192.916 1150.229 228.429"/><path class="cls-5" d="M1129.3443,202.8147a.8663.8663,0,1,1-.0015-.0053Z"/><path class="cls-12" d="M1160.5313,234.9548l-19.4186,19.0519-11.9517-29.1339h0l-.2811-1.5642,7.6378-6.11-4.5582-5.597a5.7926,5.7926,0,0,0-8.1572-.7536q-.207.1719-.3973.3625l-2.2974,2.3219a8.2614,8.2614,0,0,0-2.4441,6.2448c.2077,4.02.611,8.31.5866,7.9311h0l6.8435,40.2425a14.469,14.469,0,0,0,9.0677,12.6727c6.8924,2.8474,14.3714-6.1958,18.3309-9.63l25.5532-23.2192Z"/><path class="cls-7" d="M1239.3786,255.5466l-24.5879,3.825-.5865-1.4665,7.7967,52.7319L1161.9,293.32l1.7476-30.9059-20.47-14.7869,15.6668-24.0135a27.6431,27.6431,0,0,1,18.4775-10.9985c2.1753-.2933,3.8251-.4277,4.8883-.5622a31.5038,31.5038,0,0,0,18.9419,0h0a27.275,27.275,0,0,1,7.8456,1.5032c1.8576.6232,3.6662,1.1243,5.3526,1.6131a21.7406,21.7406,0,0,1,14.066,12.9049Z"/><path class="cls-12" d="M1166.0428,315.2075c-.2078-2.4441,9.96-3.8128,10.803-3.9839s.6233-1.4176-.1344-1.2221c-1.0877.2811-12.6483,3.0551-12.8683.66-.1222-1.332,2.2852-1.3443,2.2852-1.3443s10.9985-1.7964,10.8519-2.9207-6.6358-.3177-8.8111.1222-3.214-.4155-2.6152-1.5153c.4033-.7577,7.0146-2.2608,9.1654-2.64s8.09-1.332,4.7905-3.2384-5.12-4.6316-5.096-5.7071a1.2221,1.2221,0,0,1,2.2-.4766,13.8221,13.8221,0,0,0,2.9085,2.53,9.0927,9.0927,0,0,0,2.7741,1.332c1.2221.33,2.1631.5622,3.0185.7333,5.7681-1.8087,21.8382-7.5157,33.2156-17.72,2.053-1.8453-3.3485-20.775-3.3485-20.775l21.9115-2.86,3.1285,18.6487c4.265,25.37-52.5486,38.1282-52.5486,38.1282v-.0611a116.0035,116.0035,0,0,1-11.3651,4.6928c-5.4382,1.65-5.597,1.1609-5.67.4888-.2322-1.7842,9.4465-3.2629,7.1858-4.155S1166.2016,317.09,1166.0428,315.2075Z"/><path class="cls-15" d="M1225.85,224.0541a2.5331,2.5331,0,0,1-.5255.4644,12.5405,12.5405,0,0,1-1.6742,1.1487,19.7126,19.7126,0,0,1-6.978,2.53,20.0789,20.0789,0,0,1-10.9008-1.2221c-1.9431-.7577-3.8739-1.76-5.9514-2.5541a17.1073,17.1073,0,0,0-6.6846-1.222c-4.7294.0855-9.0677,1.6008-13.0639,2.6274a28.9627,28.9627,0,0,1-10.9985,1.222,14.1521,14.1521,0,0,1-6.9047-2.64,7.1989,7.1989,0,0,1-1.8941-1.9675,17.4614,17.4614,0,0,0,2.0408,1.76,14.2116,14.2116,0,0,0,6.8069,2.4441,29.12,29.12,0,0,0,10.7418-1.3442c3.9595-1.051,8.3345-2.603,13.1983-2.7008a17.6106,17.6106,0,0,1,6.9168,1.2221c2.1264.8065,4.045,1.8209,5.9514,2.5907a19.98,19.98,0,0,0,10.62,1.3076,20.5921,20.5921,0,0,0,6.9169-2.31C1225.056,224.6162,1225.8137,224.0052,1225.85,224.0541Z"/><path class="cls-15" d="M1235.6879,247.1021l-.1466.1956c-.11.11-.2688.2932-.4889.501a11.5819,11.5819,0,0,1-2.2,1.5887,16.6935,16.6935,0,0,1-9.6909,1.7353,36.24,36.24,0,0,1-6.7213-1.3932c-2.3586-.6721-4.8883-1.552-7.479-2.2974a29.7658,29.7658,0,0,0-8.4444-1.2954,32.56,32.56,0,0,0-9.0066,1.76c-3.0184.9533-5.9514,2.0531-8.9088,2.7253a22.7673,22.7673,0,0,1-8.7133.5132,18.1092,18.1092,0,0,1-7.2345-3.1529c-2.0409-1.4053-3.7884-2.8962-5.4382-4.155a21.1057,21.1057,0,0,0-8.6645-4.3994,14.8835,14.8835,0,0,0-3.5928-.1466l.2322-.0611c.1588,0,.391-.0856.6966-.11a9.8773,9.8773,0,0,1,2.7007.0733,20.5559,20.5559,0,0,1,8.8477,4.2894c1.6864,1.2221,3.4462,2.7007,5.4625,4.0694a17.6588,17.6588,0,0,0,7.0391,3.0063,22.083,22.083,0,0,0,8.4689-.5377c2.9085-.6721,5.817-1.76,8.8721-2.7252a32.7884,32.7884,0,0,1,9.1777-1.772,30.1387,30.1387,0,0,1,8.5544,1.3564c2.6641.77,5.1327,1.662,7.479,2.3586a36.5494,36.5494,0,0,0,6.6113,1.442,16.8272,16.8272,0,0,0,9.5321-1.5031A15.7154,15.7154,0,0,0,1235.6879,247.1021Z"/><path class="cls-15" d="M1215.1206,265.7141a11.7432,11.7432,0,0,0-7.479,1.772,36.0994,36.0994,0,0,1-3.6661,1.54,17.3424,17.3424,0,0,1-4.5583.7943,32.9121,32.9121,0,0,1-10.412-1.54c-3.5806-1.0388-6.9168-2.2-10.0453-2.8474a24.4407,24.4407,0,0,0-8.4077-.4888,15.4836,15.4836,0,0,0-5.3893,1.7109c-1.2221.6477-1.76,1.1487-1.7964,1.1a2.2438,2.2438,0,0,1,.3911-.391,9.9,9.9,0,0,1,1.222-.9288,14.7633,14.7633,0,0,1,5.4626-1.9309,23.6988,23.6988,0,0,1,8.5544.3544c3.1774.6355,6.55,1.7842,10.1065,2.8108a32.9981,32.9981,0,0,0,10.2042,1.5642,17.2776,17.2776,0,0,0,4.4238-.7088,37.8883,37.8883,0,0,0,3.6662-1.442,16.1672,16.1672,0,0,1,5.5481-1.6376,6.65,6.65,0,0,1,1.5764.11A1.9409,1.9409,0,0,1,1215.1206,265.7141Z"/><path class="cls-15" d="M1214.4363,283.1651a18.0126,18.0126,0,0,0-2.0653,0,15.7872,15.7872,0,0,0-5.23,2.0408,20.4266,20.4266,0,0,1-3.6662,1.5276,17.1064,17.1064,0,0,1-4.5217.6721,34.0848,34.0848,0,0,1-10.2775-1.6375c-3.5317-1.0266-6.8313-2.1631-9.9353-2.7986a24.0509,24.0509,0,0,0-8.31-.44,15.4353,15.4353,0,0,0-5.3282,1.76c-1.222.6477-1.7353,1.1365-1.772,1.0876a2.1294,2.1294,0,0,1,.3789-.3788,8.956,8.956,0,0,1,1.222-.9165,14.3832,14.3832,0,0,1,5.3893-1.9431,23.6108,23.6108,0,0,1,8.5544.3055c3.1529.611,6.4769,1.7353,9.9964,2.7619a34.76,34.76,0,0,0,10.082,1.662,17.1112,17.1112,0,0,0,4.3873-.5867,20.8447,20.8447,0,0,0,3.6661-1.43,14.9973,14.9973,0,0,1,5.4015-1.882,6.11,6.11,0,0,1,1.5643.0978A2.0693,2.0693,0,0,1,1214.4363,283.1651Z"/><path class="cls-15" d="M1200.3826,254.2023a1.2439,1.2439,0,0,1,.6721-.11,2.9206,2.9206,0,0,1,2.6705,3.1511q-.01.1237-.0309.2462a3.0792,3.0792,0,0,1-2.4441,2.4441,2.9816,2.9816,0,0,1-3.0184-1.6375,2.6029,2.6029,0,0,1,.281-2.7863,2.6887,2.6887,0,0,1,1.5887-1.0143,1.4252,1.4252,0,0,1,.6843,0,1.4258,1.4258,0,0,0-.611.2078,2.6517,2.6517,0,0,0-1.2954,1.0509,2.1387,2.1387,0,0,0-.1344,2.2486,2.4442,2.4442,0,0,0,2.4441,1.2221,2.5543,2.5543,0,0,0,1.98-1.8942,2.3587,2.3587,0,0,0-.6478-2.2119A3.7509,3.7509,0,0,0,1200.3826,254.2023Z"/><path class="cls-15" d="M1174.78,270.8467a1.2887,1.2887,0,0,1,.6722-.11,2.8846,2.8846,0,0,1,1.7353.7455,2.75,2.75,0,0,1,.9043,2.6519,3.0919,3.0919,0,0,1-2.4442,2.4441,3.0308,3.0308,0,0,1-3.0184-1.6376,2.615,2.615,0,0,1,.2933-2.7985,2.6641,2.6641,0,0,1,1.5764-1.0143,1.4692,1.4692,0,0,1,.6966,0s-.2444.0733-.6233.2078a2.774,2.774,0,0,0-1.222,1.0509,2.1385,2.1385,0,0,0-.1344,2.2486,2.4442,2.4442,0,0,0,2.4441,1.2221,2.5055,2.5055,0,0,0,1.9675-1.8942,2.3343,2.3343,0,0,0-.6477-2.2A3.6669,3.6669,0,0,0,1174.78,270.8467Z"/><path class="cls-15" d="M1175.5626,237.3623a1.2435,1.2435,0,0,1,.6721-.11,2.9331,2.9331,0,0,1,1.7231.7455,2.7983,2.7983,0,0,1,.9165,2.664,3.08,3.08,0,0,1-2.4441,2.4442,3.0186,3.0186,0,0,1-3.0185-1.6376,2.5665,2.5665,0,0,1,.2933-2.7863,2.6032,2.6032,0,0,1,1.5764-1.0265,1.4256,1.4256,0,0,1,.6844,0s-.2322.0733-.611.2077a2.7134,2.7134,0,0,0-1.2221,1.051,2.1507,2.1507,0,0,0-.1466,2.2608,2.4442,2.4442,0,0,0,2.4441,1.2221,2.5419,2.5419,0,0,0,1.98-1.8942,2.3341,2.3341,0,0,0-.6477-2.2A3.6664,3.6664,0,0,0,1175.5626,237.3623Z"/><path class="cls-15" d="M1217.9314,235.517a1.3161,1.3161,0,0,1,.6843-.11,2.86,2.86,0,0,1,1.7231.7454,2.75,2.75,0,0,1,.9043,2.6519,3.08,3.08,0,0,1-2.4441,2.4441,3.0428,3.0428,0,0,1-3.0185-1.6375,2.64,2.64,0,0,1,.2933-2.7985,2.6882,2.6882,0,0,1,1.5887-1.0143,1.4252,1.4252,0,0,1,.6843,0,5.8564,5.8564,0,0,0-.6232.2077,2.6768,2.6768,0,0,0-1.2221,1.051,2.1385,2.1385,0,0,0-.1344,2.2486,2.4442,2.4442,0,0,0,2.4441,1.2831,2.5539,2.5539,0,0,0,1.98-1.8942,2.3585,2.3585,0,0,0-.6477-2.2A3.6662,3.6662,0,0,0,1217.9314,235.517Z"/><path class="cls-15" d="M1201.348,215.023a1.2434,1.2434,0,0,1,.6721-.11,2.786,2.786,0,0,1,1.7231.7454,2.75,2.75,0,0,1,.9165,2.6519,3.0672,3.0672,0,0,1-2.4441,2.4441,2.994,2.994,0,0,1-3.0184-1.6375,2.5784,2.5784,0,0,1,.2932-2.7863,2.7256,2.7256,0,0,1,1.5765-1.0266,1.601,1.601,0,0,1,.6843,0,5.2671,5.2671,0,0,0-.611.2078,2.6152,2.6152,0,0,0-1.2832,1.0387,2.1635,2.1635,0,0,0-.1466,2.2609,2.444,2.444,0,0,0,2.4441,1.2831,2.5174,2.5174,0,0,0,1.98-1.8942,2.3588,2.3588,0,0,0-.6478-2.2119A3.6662,3.6662,0,0,0,1201.348,215.023Z"/><path class="cls-5" d="M1163.33,264.5165a21.6748,21.6748,0,0,1-.1955-3.8617c0-2.4442,0-5.67.1345-9.3s.22-6.7336.3055-9.3a23.741,23.741,0,0,1,.2688-3.8494,21.1134,21.1134,0,0,1,.1833,3.8617c0,2.383,0,5.67-.1222,9.3s-.2321,6.7214-.3177,9.3A26.8967,26.8967,0,0,1,1163.33,264.5165Z"/><path class="cls-5" d="M1239.3786,255.5466a2.3142,2.3142,0,0,1-.5744.1344l-1.65.2932-6.1959.9777-9.3731,1.4053c-1.7843.2567-3.6662.5622-5.646.8188l-6.1713.7333h-.3056v-.3178c-.3177-2.7374-.5621-5.6215-.9776-8.5544-.6721-5.2915-1.3076-10.3264-1.8942-14.9213a32.5558,32.5558,0,0,1,.1344-12.2206c.9044-3.3851,2.1753-6.0492,3.6662-7.4057a5.3905,5.3905,0,0,1,1.9064-1.2221,2.7053,2.7053,0,0,1,.77-.1955,6.7223,6.7223,0,0,0-2.4441,1.6009,16.2531,16.2531,0,0,0-3.3973,7.3324,32.6641,32.6641,0,0,0,0,12.1106c.5988,4.5827,1.222,9.6053,1.9431,14.8847.4033,2.9574.6477,5.8781.9654,8.6277l-.3423-.2811,6.11-.6966,5.646-.7576,9.3976-1.2221,6.2081-.7943,1.6742-.1956A2.6748,2.6748,0,0,1,1239.3786,255.5466Z"/><path class="cls-8" d="M1206.31,229.6878s-2.75,33.1911,0,33.851,5.23.9777,5.23.9777,5.2793,16.3756,5.2305,15.8867-1.98-21.0561-1.98-21.0561l-5.0593.2322Z"/><polygon class="cls-8" points="1163.33 241.322 1158.503 258.699 1163.647 262.415 1163.33 241.322"/></g><g id="freepik--Cloud--inject-7"><path class="cls-7" d="M1355.242,155.9c8.8722-20.775,3.4829-42.3688-11.0963-59.5754a62.4838,62.4838,0,0,0-61.103-19.8218,68.3375,68.3375,0,0,0-135.5386,8.811,51.1554,51.1554,0,0,0-39.106,69.413Z"/><path class="cls-1" d="M1252.2957,102.8991c-.4522,0-.2078-4.1306-2.713-9.9965A27.9363,27.9363,0,0,0,1218.64,76.2215a28.6441,28.6441,0,0,0-10.2164,4.0939c-5.316,3.5073-7.5035,7.0513-7.8334,6.7824-.11-.0733.2811-1.0265,1.3687-2.5418a25.4407,25.4407,0,0,1,5.5481-5.5726,27.9854,27.9854,0,0,1,10.7175-4.815,28.5006,28.5006,0,0,1,32.8612,18.1354,25.7862,25.7862,0,0,1,1.5154,7.7356C1252.5646,101.897,1252.4545,102.9113,1252.2957,102.8991Z"/><path class="cls-1" d="M1238.8042,92.8782c.391-.5011,6.6357,3.6661,13.98,9.19l.4033.3177-1.76.5255c2.97-8.4689,5.817-15.0925,6.4035-14.8847s-1.3076,7.149-4.2527,15.6424l-.5132,1.4787-1.2221-.9532-.4033-.3056C1244.059,98.3041,1238.4253,93.3792,1238.8042,92.8782Z"/><path class="cls-1" d="M1199.0384,98.2186c.4644,0-.2689,4.0083,1.4054,9.972a28.9132,28.9132,0,0,0,4.7416,9.5687,27.3725,27.3725,0,0,0,9.9842,8.2489,29.4045,29.4045,0,0,0,3.1529,1.3443c1.0877.3055,2.1386.6721,3.214.88a28.1078,28.1078,0,0,0,16.7423-1.4787,32.5177,32.5177,0,0,0,6.4035-3.52c1.4421-.99,2.2-1.6253,2.3341-1.4909s-.4521.941-1.772,2.1753a24.9154,24.9154,0,0,1-6.318,4.3016,27.3989,27.3989,0,0,1-11.0718,2.75,28.8216,28.8216,0,0,1-6.77-.55c-1.161-.22-2.31-.5989-3.4951-.9166a33.3005,33.3005,0,0,1-3.4218-1.442,28.3757,28.3757,0,0,1-15.2879-19.48,26.73,26.73,0,0,1-.5622-4.3506c0-1.222,0-2.4441.0855-3.2873C1198.6717,99.16,1198.8917,98.1941,1199.0384,98.2186Z"/><path class="cls-1" d="M1211.21,109.8159c-.44.4522-6.11-4.3994-12.746-10.8274l-.3666-.3667,1.8208-.3055c-3.9961,8.0534-7.6256,14.2737-8.1878,13.9926s2.1875-6.9413,6.11-15.0069l.6843-1.4053,1.1243,1.1.3789.3544C1206.6518,103.7912,1211.65,109.3638,1211.21,109.8159Z"/></g></svg>