<svg xmlns="http://www.w3.org/2000/svg" width="32" height="32" viewBox="0 0 32 32"><defs><style>.a,.c{fill:none;}.b{fill:#a4c639;}.c{stroke:#a4c639;stroke-linecap:round;stroke-linejoin:round;stroke-width:3px;}.d{fill:#fff;}</style></defs><g transform="translate(-357 -9158)"><rect class="a" width="32" height="32" transform="translate(357 9158)"/><g transform="translate(328.836 9090.991)"><path class="b" d="M89.384,207.092a1.739,1.739,0,0,1,1.739,1.739v7.462a1.739,1.739,0,0,1-3.479,0v-7.462a1.739,1.739,0,0,1,1.739-1.739Z" transform="translate(-48.704 -120.339)"/><path class="b" d="M69.3,133.645c-.006.066-.011.133-.011.2V145.15a2.172,2.172,0,0,0,2.157,2.2h11.5a2.172,2.172,0,0,0,2.157-2.2V133.845c0-.067,0-.134-.008-.2Z" transform="translate(-32.588 -55.863)"/><path class="b" d="M48.527,89.162A1.739,1.739,0,0,1,50.267,90.9v7.462a1.739,1.739,0,0,1-3.479,0V90.9a1.739,1.739,0,0,1,1.739-1.739ZM33.9,81.2a1.739,1.739,0,0,1,1.739,1.739V90.4a1.739,1.739,0,0,1-3.479,0V82.936A1.739,1.739,0,0,1,33.9,81.2Zm21.4,0a1.739,1.739,0,0,1,1.739,1.739V90.4a1.739,1.739,0,0,1-3.479,0V82.936A1.74,1.74,0,0,1,55.3,81.2ZM36.76,79.448c.048-3.473,3.079-6.32,6.97-6.695h1.748c3.891.375,6.921,3.223,6.97,6.695Z" transform="translate(0 -2.409)"/><path class="c" d="M74.743,70.009l1.835,3.178m12.643-3.178-1.835,3.178" transform="translate(-37.378)"/><path class="d" d="M101.943,95.752a.9.9,0,0,1-1.8,0v0a.9.9,0,0,1,1.8,0Zm6.717,0a.9.9,0,0,1-1.8,0v0a.9.9,0,0,1,1.8,0Z" transform="translate(-59.676 -21.825)"/></g></g></svg>