<svg xmlns="http://www.w3.org/2000/svg" width="32" height="32" viewBox="0 0 32 32"><defs><style>.a{fill:none;}.b{fill:#e25353;}.c{fill:#fefcfb;}.d{fill:#fefdfd;}</style></defs><g transform="translate(-1228 -9151)"><rect class="a" width="32" height="32" transform="translate(1228 9151)"/><g transform="translate(337.735 8680.745)"><path class="b" d="M907.036,500.257h-.2a6.129,6.129,0,0,0-1.243,0h-.2c-.023-.063-.08-.047-.126-.05a13.829,13.829,0,0,1-1.4-.17,14.013,14.013,0,0,1-11.415-16.047,13.182,13.182,0,0,1,4.048-7.765,13.668,13.668,0,0,1,12.561-3.682,13.356,13.356,0,0,1,7.35,4.077,13.758,13.758,0,0,1,3.718,7.776,5.832,5.832,0,0,0,.139,1.04v.149a6.984,6.984,0,0,0,0,1.293v.2c-.071.033-.045.1-.05.152a14.45,14.45,0,0,1-.225,1.7A14.014,14.014,0,0,1,908.1,500.118,6.709,6.709,0,0,0,907.036,500.257Zm8.618-14.29c.085-.038.144-.062.2-.089a2.353,2.353,0,0,0,1.3-1.511,1.927,1.927,0,0,0-1.441-2.64,4.789,4.789,0,0,0-1.051-.174c-1.308-.07-2.616-.019-3.925-.032-.311,0-.412.089-.466.4q-.755,4.3-1.506,8.6c-.067.385-.018.441.367.441q1.8,0,3.6,0a6.722,6.722,0,0,0,1.67-.21,2.836,2.836,0,0,0,2.416-2.912,1.748,1.748,0,0,0-.864-1.722C915.873,486.068,915.775,486.026,915.654,485.967Zm-14.486-1.333h-3.579c-.6,0-1.193,0-1.79,0a.539.539,0,0,0-.557.569c0,.37.253.57.717.57H906.4a.614.614,0,0,0,.562-.254.558.558,0,0,0,.032-.591.545.545,0,0,0-.531-.3Q903.815,484.636,901.168,484.633Zm.241,3.141h3.179c.406,0,.663-.225.657-.575a.577.577,0,0,0-.651-.559h-6.358a.571.571,0,1,0-.006,1.133Zm3.02-4.022h3.232a.564.564,0,1,0,0-1.12q-3.219,0-6.438,0a.573.573,0,0,0-.646.563c0,.341.253.557.65.558Zm-.3,6.111c.448,0,.9,0,1.343,0a.565.565,0,1,0,.009-1.13q-1.33-.009-2.661,0a.566.566,0,1,0,.016,1.131C903.263,489.865,903.694,489.863,904.125,489.863Z"/><path class="c" d="M1026.982,537.741a6.973,6.973,0,0,1,0-1.293Z" transform="translate(-106.717 -50.862)"/><path class="c" d="M956.448,606.976a6.124,6.124,0,0,1,1.243,0Z" transform="translate(-50.855 -106.719)"/><path class="d" d="M978.539,521.292c.121.059.219.1.31.153a1.747,1.747,0,0,1,.864,1.722,2.836,2.836,0,0,1-2.416,2.912,6.723,6.723,0,0,1-1.67.21q-1.8,0-3.6,0c-.384,0-.434-.057-.367-.441q.751-4.3,1.506-8.6c.054-.309.155-.4.466-.4,1.308.012,2.617-.039,3.925.032a4.788,4.788,0,0,1,1.051.174,1.927,1.927,0,0,1,1.441,2.64,2.352,2.352,0,0,1-1.3,1.511C978.683,521.229,978.625,521.254,978.539,521.292Zm-3.024.862c-.422,0-.778.008-1.134,0-.161-.005-.228.034-.256.205q-.181,1.114-.395,2.222c-.034.177.011.21.175.208.6-.007,1.209,0,1.814-.006a3.321,3.321,0,0,0,1.12-.192,1.4,1.4,0,0,0,.99-1.3.863.863,0,0,0-.773-1.049A6.96,6.96,0,0,0,975.515,522.154Zm.215-1.413a7.344,7.344,0,0,0,1.008-.034,1.619,1.619,0,0,0,1.346-.716c.45-.765.164-1.456-.688-1.589a18,18,0,0,0-2.453-.056c-.117,0-.127.087-.142.167-.119.667-.229,1.335-.359,2-.04.206.034.236.212.23C974.986,520.733,975.318,520.741,975.731,520.741Z" transform="translate(-62.885 -35.325)"/><path class="c" d="M912.526,531.857q2.648,0,5.295,0a.545.545,0,0,1,.531.3.558.558,0,0,1-.032.591.614.614,0,0,1-.562.254h-10.44c-.464,0-.714-.2-.717-.57a.539.539,0,0,1,.557-.569c.6-.006,1.193,0,1.79,0Z" transform="translate(-11.358 -47.224)"/><path class="c" d="M921.715,542.659h-3.179a.571.571,0,1,1,.006-1.133H924.9a.577.577,0,0,1,.651.559c.005.349-.251.574-.657.575Z" transform="translate(-20.306 -54.885)"/><path class="d" d="M936.123,523.341h-3.206c-.4,0-.648-.217-.65-.558a.573.573,0,0,1,.646-.563h6.438a.564.564,0,1,1,0,1.12Z" transform="translate(-31.694 -39.589)"/><path class="c" d="M942.141,552.71c-.431,0-.862,0-1.293,0a.567.567,0,1,1-.016-1.131q1.331-.008,2.661,0a.565.565,0,1,1-.008,1.13C943.036,552.714,942.589,552.71,942.141,552.71Z" transform="translate(-38.016 -62.847)"/><path class="b" d="M983.483,542.419a6.95,6.95,0,0,1,1.542.09.863.863,0,0,1,.773,1.049,1.4,1.4,0,0,1-.99,1.3,3.32,3.32,0,0,1-1.12.192c-.6.01-1.209,0-1.814.006-.164,0-.209-.031-.175-.208q.215-1.108.395-2.222c.028-.171.1-.211.256-.205C982.7,542.427,983.061,542.419,983.483,542.419Z" transform="translate(-70.853 -55.59)"/><path class="b" d="M986.418,526.439c-.413,0-.744-.008-1.075,0-.178.006-.252-.024-.212-.23.129-.665.24-1.333.359-2,.014-.08.025-.17.142-.167a18.007,18.007,0,0,1,2.453.056c.851.134,1.138.824.688,1.589a1.619,1.619,0,0,1-1.346.716A7.343,7.343,0,0,1,986.418,526.439Z" transform="translate(-73.572 -41.023)"/></g></g></svg>