<svg xmlns="http://www.w3.org/2000/svg" width="32" height="32" viewBox="0 0 32 32"><defs><style>.a{fill:#563d7c;}.b{fill:#fff;}.c{fill:none;}</style></defs><g transform="translate(-570 -9302)"><g transform="translate(575 9307)"><path class="a" d="M22.343,18.619a3.735,3.735,0,0,1-3.724,3.724H3.724A3.735,3.735,0,0,1,0,18.619V3.724A3.735,3.735,0,0,1,3.724,0h14.9a3.735,3.735,0,0,1,3.724,3.724Z"/><path class="b" d="M166.3,133h6.334a4.524,4.524,0,0,1,2.811.8,2.857,2.857,0,0,1,1.059,2.428,2.9,2.9,0,0,1-.482,1.687,3.1,3.1,0,0,1-1.38,1.088v.037a2.857,2.857,0,0,1,1.825,1.139,3.783,3.783,0,0,1,.621,2.22,3.715,3.715,0,0,1-.274,1.431,2.891,2.891,0,0,1-.858,1.15,4.373,4.373,0,0,1-1.5.767,7.341,7.341,0,0,1-2.172.285H166.3Zm2.282,5.458h3.724a2.023,2.023,0,0,0,1.369-.467,1.672,1.672,0,0,0,.548-1.343,1.7,1.7,0,0,0-.493-1.387,2.213,2.213,0,0,0-1.424-.4h-3.724Zm0,5.713h4.034a2.252,2.252,0,0,0,1.614-.54,1.99,1.99,0,0,0,.577-1.526,1.9,1.9,0,0,0-.577-1.49,2.306,2.306,0,0,0-1.614-.518h-4.034Z" transform="translate(-160.229 -128.144)"/></g><rect class="c" width="32" height="32" transform="translate(570 9302)"/></g></svg>