<svg xmlns="http://www.w3.org/2000/svg" width="32" height="32" viewBox="0 0 32 32"><defs><style>.a{fill:none;}.b{fill:#444;}</style></defs><g transform="translate(-357 -9251)"><rect class="a" width="32" height="32" transform="translate(357 9251)"/><path class="b" d="M22.727,23.864H18.679l.284-3.409H16.974l-.284,3.409H8.31l-.284-3.409H6.037l.284,3.409H2.273L0,9.091,5.682,0H19.318L25,9.091ZM18.182,4.545H14.529l.244,1.7H10.227l.244-1.7H6.818L4.545,9.091l1.136,9.091H19.318l1.136-9.091L18.182,4.545ZM16.193,15.165c-.314,0-.568-.946-.568-2.114s.254-2.114.568-2.114.568.946.568,2.114S16.507,15.165,16.193,15.165Zm-7.173.176c-.314,0-.568-.946-.568-2.114s.254-2.114.568-2.114.568.946.568,2.114S9.334,15.341,9.02,15.341Z" transform="translate(360 9255)"/></g></svg>