<svg xmlns="http://www.w3.org/2000/svg" width="32" height="32" viewBox="0 0 32 32"><defs><style>.a{fill:#364548;}.a,.b,.c,.d,.e,.f,.g,.h,.i{fill-rule:evenodd;}.b{fill:#22a0c8;}.c{fill:#37b1d9;}.d{fill:#1b81a5;}.e{fill:#1d91b4;}.f{fill:#23a3c2;}.g{fill:#34bbde;}.h{fill:#d3ecec;}.i{fill:#bdd9d7;}.j{fill:none;}</style></defs><g transform="translate(-1448 -9191)"><g transform="translate(1449 9199.518)"><path class="a" d="M44.663,5.276H47.3v2.7h1.334a5.785,5.785,0,0,0,1.833-.307,4.694,4.694,0,0,0,.891-.4,3.307,3.307,0,0,1-.618-1.705,3.6,3.6,0,0,1,.647-2.539l.277-.321.33.266A4.2,4.2,0,0,1,53.65,5.631a4.032,4.032,0,0,1,3.061.285l.362.209-.191.372a3.814,3.814,0,0,1-3.835,1.829c-2.284,5.689-7.257,8.382-13.286,8.382-3.115,0-5.973-1.164-7.6-3.928l-.027-.045-.237-.483a7.652,7.652,0,0,1-.609-3.881l.037-.4h2.256v-2.7H36.22V2.638H41.5V0h3.166V5.276" transform="translate(-27.646)"/><path class="b" d="M56.582,31.628a3.481,3.481,0,0,0-1.49-2.967,3.229,3.229,0,0,0,.3,4.016,5.549,5.549,0,0,1-3.389,1.09H35.1a7.125,7.125,0,0,0,.7,3.928l.192.352a6.523,6.523,0,0,0,.4.6q1.043.067,1.922.047h0a9.425,9.425,0,0,0,2.805-.408.2.2,0,0,1,.133.384c-.095.033-.194.064-.3.093h0a8.82,8.82,0,0,1-1.939.316c.046,0-.048.007-.048.007l-.086.007c-.306.017-.635.021-.972.021-.369,0-.732-.007-1.138-.028l-.01.007a8.284,8.284,0,0,0,6.373,2.533c5.844,0,10.8-2.59,13-8.406,1.557.16,3.054-.237,3.734-1.566a3.674,3.674,0,0,0-3.282-.023" transform="translate(-31.018 -25.354)"/><path class="c" d="M64.5,31.628a3.481,3.481,0,0,0-1.49-2.967,3.229,3.229,0,0,0,.3,4.016,5.549,5.549,0,0,1-3.389,1.09H44.017a5.489,5.489,0,0,0,2.213,4.925h0a9.425,9.425,0,0,0,2.805-.408.2.2,0,0,1,.133.384c-.095.033-.194.064-.3.093h0a9.274,9.274,0,0,1-1.991.33l-.019-.018c1.989,1.02,4.872,1.016,8.178-.253A22.985,22.985,0,0,0,64.6,31.578l-.106.05" transform="translate(-38.935 -25.354)"/><path class="d" d="M35.645,88.186a6.758,6.758,0,0,0,.669,2.166l.192.352a6.514,6.514,0,0,0,.4.6q1.043.067,1.923.047a9.425,9.425,0,0,0,2.805-.408.2.2,0,0,1,.133.384c-.095.033-.194.064-.3.093h0a9.274,9.274,0,0,1-1.987.323l-.1,0c-.305.017-.632.028-.969.028-.369,0-.746-.007-1.151-.028a8.317,8.317,0,0,0,6.386,2.537c5,0,9.355-1.9,11.881-6.094H35.645" transform="translate(-31.532 -78.011)"/><path class="e" d="M45.367,88.186a5.077,5.077,0,0,0,2.061,3.163,9.425,9.425,0,0,0,2.805-.408.2.2,0,0,1,.133.384c-.095.033-.194.064-.3.093h0a9.414,9.414,0,0,1-2,.323c1.989,1.02,4.864,1.005,8.17-.265a21.593,21.593,0,0,0,5.652-3.29H45.367" transform="translate(-40.133 -78.011)"/><path class="f" d="M55.26,29.315h2.287V31.6H55.26Zm.19.191h.18v1.905h-.18Zm.339,0h.188v1.905H55.79V29.506Zm.346,0h.188v1.905h-.188Zm.347,0h.188v1.905h-.188Zm.346,0h.188v1.905h-.188Zm.346,0h.181v1.905h-.181Zm.723-2.829h2.287v2.286H57.9V26.677Zm.191.191h.18v1.905h-.18Zm.339,0h.188v1.905h-.187V26.868Zm.346,0h.188v1.905h-.188Zm.346,0h.188v1.905h-.188Zm.346,0h.188v1.905h-.188Zm.346,0h.181v1.905h-.181Z" transform="translate(-48.884 -23.599)"/><path class="g" d="M78.125,49.543h2.287V51.83H78.125V49.543Zm.191.191h.18v1.905h-.18Zm.339,0h.188v1.905h-.187V49.734Zm.346,0h.188v1.905H79Zm.346,0h.188v1.905h-.188Zm.346,0h.188v1.905h-.188Zm.346,0h.181v1.905h-.181Z" transform="translate(-69.111 -43.827)"/><path class="f" d="M100.993,49.543h2.287V51.83h-2.287Zm.19.191h.18v1.905h-.18Zm.339,0h.188v1.905h-.188Zm.346,0h.188v1.905h-.188Zm.346,0h.188v1.905h-.188Zm.346,0h.188v1.905h-.188Zm.346,0h.18v1.905h-.18Z" transform="translate(-89.341 -43.827)"/><path class="g" d="M100.993,26.677h2.287v2.286h-2.287Zm.19.191h.18v1.905h-.18Zm.339,0h.188v1.905h-.188Zm.346,0h.188v1.905h-.188Zm.346,0h.188v1.905h-.188Zm.346,0h.188v1.905h-.188Zm.346,0h.18v1.905h-.18Zm.723,2.448h2.287V31.6h-2.287Zm.191.191H104v1.905h-.18Zm.339,0h.188v1.905h-.188Zm.346,0h.188v1.905h-.188Zm.346,0h.188v1.905h-.188Zm.346,0h.188v1.905H105.2Zm.346,0h.18v1.905h-.18Z" transform="translate(-89.341 -23.599)"/><path class="f" d="M123.859,26.677h2.287v2.286h-2.287Zm.191.191h.18v1.905h-.18Zm.339,0h.188v1.905h-.188Zm.346,0h.188v1.905h-.188Zm.346,0h.188v1.905h-.188Zm.346,0h.188v1.905h-.188Zm.346,0h.18v1.905h-.18Z" transform="translate(-109.569 -23.599)"/><path class="g" d="M123.859,3.81h2.287V6.1h-2.287Zm.191.19h.18V5.906h-.18V4Zm.339,0h.188V5.906h-.188V4Zm.346,0h.188V5.906h-.188V4Zm.346,0h.188V5.906h-.188V4Zm.346,0h.188V5.906h-.188V4Zm.346,0h.18V5.906h-.18V4Z" transform="translate(-109.569 -3.37)"/><path class="f" d="M146.725,49.543h2.287V51.83h-2.287Zm.19.191h.181v1.905h-.18V49.734Zm.339,0h.188v1.905h-.188V49.734Zm.347,0h.188v1.905H147.6Zm.346,0h.188v1.905h-.188Zm.347,0h.188v1.905h-.188Zm.346,0h.18v1.905h-.18Z" transform="translate(-129.796 -43.827)"/><path class="h" d="M91.866,101.492a.631.631,0,1,1-.631.631.631.631,0,0,1,.631-.631" transform="translate(-80.709 -89.782)"/><path class="a" d="M11.157,82.307a.45.45,0,0,1,.163.031.184.184,0,1,0,.254.248.452.452,0,1,1-.417-.279M0,80.82H29.343c-.639-.162-2.021-.381-1.793-1.218-1.162,1.344-3.964.943-4.671.28-.787,1.142-5.371.708-5.691-.182-.987,1.158-4.046,1.158-5.033,0-.32.89-4.9,1.324-5.691.182-.707.663-3.509,1.064-4.67-.28C2.022,80.439.639,80.658,0,80.82" transform="translate(0 -70.418)"/><path class="i" d="M56.214,119.045a5.556,5.556,0,0,1-2.9-2.849,9.677,9.677,0,0,1-2.088.317q-.458.026-.963.026-.583,0-1.228-.034a8.347,8.347,0,0,0,6.458,2.554q.361,0,.718-.014" transform="translate(-43.38 -102.79)"/><path class="h" d="M70.7,117.209a5.476,5.476,0,0,1-.58-1.015,9.67,9.67,0,0,1-2.089.317,6.65,6.65,0,0,0,2.669.7" transform="translate(-60.182 -102.788)"/></g><rect class="j" width="32" height="32" transform="translate(1448 9191)"/></g></svg>