<svg xmlns="http://www.w3.org/2000/svg" width="32" height="32" viewBox="0 0 32 32"><defs><style>.a{fill:none;}.b{fill:#ea4335;}.c{fill:#4285f4;}.d{fill:#34a853;}.e{fill:#fbbc05;}</style></defs><g transform="translate(-789 -9160)"><rect class="a" width="32" height="32" transform="translate(789 9160)"/><g transform="translate(791.952 9164.954)"><path class="b" d="M301.442,5.929h.81l2.308-2.308.113-.979A10.373,10.373,0,0,0,287.8,7.7a1.257,1.257,0,0,1,.81-.049l4.615-.761s.235-.388.356-.364a5.757,5.757,0,0,1,7.878-.6h-.017Z" transform="translate(-284.55 0)"/><path class="c" d="M1147.5,239.052a10.393,10.393,0,0,0-3.134-5.052l-3.238,3.238a5.757,5.757,0,0,1,2.113,4.567v.575a2.882,2.882,0,0,1,0,5.764h-5.765l-.575.583v3.457l.575.575h5.765a7.5,7.5,0,0,0,4.258-13.708Z" transform="translate(-1124.202 -231.35)"/><path class="d" d="M267.527,1483.874h5.765v-4.615h-5.765a2.857,2.857,0,0,1-1.191-.259l-.81.25-2.323,2.308-.2.81a7.462,7.462,0,0,0,4.527,1.506Z" transform="translate(-260.026 -1462.497)"/><path class="e" d="M7.5,571.6a7.5,7.5,0,0,0-4.526,13.44l3.344-3.344a2.882,2.882,0,1,1,3.813-3.813l3.344-3.344A7.494,7.494,0,0,0,7.5,571.6Z" transform="translate(0 -565.19)"/></g></g></svg>