<svg xmlns="http://www.w3.org/2000/svg" width="32" height="32" viewBox="0 0 32 32"><defs><style>.a{fill:#e44d26;}.b{fill:#f16529;}.c{fill:#ebebeb;}.d{fill:#fff;}.e{fill:none;}</style></defs><g transform="translate(-570 -9068)"><g transform="translate(573.555 9000)"><path class="a" d="M25.014,70.766,22.775,95.84,12.714,98.629,2.681,95.844.445,70.766H25.014Z"/><path class="b" d="M128,115.738l8.13-2.254,1.913-21.427H128Z" transform="translate(-115.271 -19.241)"/><path class="c" d="M51.278,127.071h4.351V124H47.917l.074.825.756,8.476h6.883V130.22h-4.07Zm.693,7.763H48.884l.431,4.829,6.3,1.749.014,0v-3.2l-.013,0-3.425-.925-.219-2.453Z" transform="translate(-42.9 -48.103)"/><path class="d" d="M127.889,133.3h3.787l-.357,3.989-3.43.926v3.2l6.305-1.747.046-.52.723-8.1.075-.826h-7.149Zm0-6.233v.008h7.429l.062-.691.14-1.559.073-.825h-7.7v3.068Z" transform="translate(-115.17 -48.103)"/></g><rect class="e" width="32" height="32" transform="translate(570 9068)"/></g></svg>