<svg xmlns="http://www.w3.org/2000/svg" width="32" height="32" viewBox="0 0 32 32"><defs><style>.a{fill:none;}.b{fill:#4e8ef7;}</style></defs><g transform="translate(-357 -9303)"><rect class="a" width="32" height="32" transform="translate(357 9303)"/><g transform="translate(360.898 9307)"><circle class="b" cx="5.104" cy="5.104" r="5.104" transform="translate(7.498 7.396)"/><path class="b" d="M23.017,3.84a1.753,1.753,0,0,0-2.9-1.325,12.511,12.511,0,1,0,2.473,2.473,1.745,1.745,0,0,0,.43-1.148ZM12.6,24.58A12.08,12.08,0,1,1,19.83,2.827a1.753,1.753,0,0,0,2.444,2.444A12.074,12.074,0,0,1,12.6,24.579Z" transform="translate(0 0)"/></g></g></svg>