<svg xmlns="http://www.w3.org/2000/svg" width="36" height="31" viewBox="0 0 36 31">
  <g id="Group_75316" data-name="Group 75316" transform="translate(-1634 -2819)">
    <path id="Polygon_17" data-name="Polygon 17" d="M21.243,0a10,10,0,0,1,8.648,4.979l3.194,5.5a10,10,0,0,1,0,10.043l-3.194,5.5A10,10,0,0,1,21.243,31H14.757a10,10,0,0,1-8.648-4.979l-3.194-5.5a10,10,0,0,1,0-10.043l3.194-5.5A10,10,0,0,1,14.757,0Z" transform="translate(1634 2819)" fill="#3d7ce1"/>
    <g id="Group_75301" data-name="Group 75301" transform="translate(1639.599 2825.742)">
      <path id="Icon_awesome-cloud" data-name="Icon awesome-cloud" d="M19.9,9.452A3.557,3.557,0,0,0,16.58,4.619a3.535,3.535,0,0,0-1.973.6A5.922,5.922,0,0,0,3.553,8.171c0,.1,0,.2.007.3A5.331,5.331,0,0,0,5.329,18.83H18.948A4.737,4.737,0,0,0,19.9,9.452Z" transform="translate(0 -2.215)" fill="#fff"/>
      <g id="algorithm" transform="translate(3.572)">
        <g id="Group_75293" data-name="Group 75293" transform="translate(2.73 2.362)">
          <path id="Path_119247" data-name="Path 119247" d="M0,0H4.678V.628H0Z" transform="translate(0.616 1.6) rotate(-19.993)" fill="#fff" stroke="#3d7ce1" stroke-width="0.5"/>
          <path id="Path_119248" data-name="Path 119248" d="M0,0H.628V7.1H0Z" transform="translate(7.092 1) rotate(-45)" fill="#fff" stroke="#3d7ce1" stroke-width="0.5"/>
          <path id="Path_119249" data-name="Path 119249" d="M0,0H.628V3.8H0Z" transform="matrix(0.136, -0.991, 0.991, 0.136, 7.901, 6.317)" fill="#fff" stroke="#3d7ce1" stroke-width="0.5"/>
          <path id="Path_119250" data-name="Path 119250" d="M0,0H.628V5.616H0Z" transform="translate(0.266 3.101) rotate(-63.435)" fill="#fff" stroke="#3d7ce1" stroke-width="0.5"/>
          <path id="Path_119251" data-name="Path 119251" d="M0,0H.628V5.029H0Z" transform="matrix(0.448, -0.894, 0.894, 0.448, 0.476, 11.371)" fill="#fff" stroke="#3d7ce1" stroke-width="0.5"/>
          <path id="Path_119252" data-name="Path 119252" d="M31,33h.628v5.337H31Z" transform="translate(-24.94 -25.944)" fill="#fff" stroke="#3d7ce1" stroke-width="0.5"/>
          <path id="Path_119253" data-name="Path 119253" d="M0,0H9.724V.628H0Z" transform="matrix(0.544, -0.839, 0.839, 0.544, 0.012, 9.08)" fill="#fff" stroke="#3d7ce1" stroke-width="0.5"/>
          <path id="Path_119254" data-name="Path 119254" d="M0,0H7.168V.628H0Z" transform="matrix(0.691, -0.723, 0.723, 0.691, 7.201, 12.638)" fill="#fff" stroke="#3d7ce1" stroke-width="0.5"/>
          <path id="Path_119255" data-name="Path 119255" d="M0,0H.628V10.127H0Z" transform="matrix(0.86, -0.511, 0.511, 0.86, 0, 3.848)" fill="#fff" stroke="#3d7ce1" stroke-width="0.5"/>
        </g>
        <path id="Path_119256" data-name="Path 119256" d="M7.4,39.2a2.149,2.149,0,0,1-.232.983A2.2,2.2,0,1,1,7.4,39.2Z" transform="translate(-3 -26.326)" fill="#fff" stroke="#3d7ce1" stroke-width="0.5"/>
        <path id="Path_119257" data-name="Path 119257" d="M28.865,47.769A2.167,2.167,0,0,1,29.4,49.2a2.2,2.2,0,1,1-4.273-.722,2.195,2.195,0,0,1,3.742-.706Z" transform="translate(-18.093 -33.187)" fill="#fff" stroke="#3d7ce1" stroke-width="0.5"/>
        <path id="Path_119258" data-name="Path 119258" d="M49.2,25a2.2,2.2,0,1,1,0,4.4A2.207,2.207,0,0,1,47,27.2a1.841,1.841,0,0,1,.022-.3A2.193,2.193,0,0,1,49.2,25Z" transform="translate(-33.187 -18.093)" fill="#fff" stroke="#3d7ce1" stroke-width="0.5"/>
        <path id="Path_119259" data-name="Path 119259" d="M29.373,24.493A2.2,2.2,0,0,1,25,24.2a2.149,2.149,0,0,1,.232-.983A2.2,2.2,0,0,1,29.4,24.2,1.841,1.841,0,0,1,29.373,24.493Z" transform="translate(-18.093 -16.035)" fill="#fff" stroke="#3d7ce1" stroke-width="0.5"/>
        <path id="Path_119260" data-name="Path 119260" d="M27.2,3a2.2,2.2,0,1,1,0,4.4A2.2,2.2,0,0,1,25,5.2,2.2,2.2,0,0,1,27.2,3Z" transform="translate(-18.093 -3)" fill="#fff" stroke="#3d7ce1" stroke-width="0.5"/>
        <path id="Path_119261" data-name="Path 119261" d="M7.263,12.447a2.192,2.192,0,0,1,.132.75,2.149,2.149,0,0,1-.232.983,2.2,2.2,0,1,1,.1-1.733Z" transform="translate(-3 -8.488)" fill="#fff" stroke="#3d7ce1" stroke-width="0.5"/>
      </g>
    </g>
  </g>
</svg>
