<svg xmlns="http://www.w3.org/2000/svg" width="36" height="31" viewBox="0 0 36 31">
  <g id="Group_75314" data-name="Group 75314" transform="translate(-1634 -2760)">
    <path id="Polygon_15" data-name="Polygon 15" d="M21.243,0a10,10,0,0,1,8.648,4.979l3.194,5.5a10,10,0,0,1,0,10.043l-3.194,5.5A10,10,0,0,1,21.243,31H14.757a10,10,0,0,1-8.648-4.979l-3.194-5.5a10,10,0,0,1,0-10.043l3.194-5.5A10,10,0,0,1,14.757,0Z" transform="translate(1634 2760)" fill="#3d7ce1"/>
    <g id="cloud-computing" transform="translate(1644.006 2765.191)">
      <path id="Path_119216" data-name="Path 119216" d="M12.318,11.471a3.471,3.471,0,0,1,6.941,0h1.388a2.429,2.429,0,1,1,0,4.859H10.929a2.429,2.429,0,1,1,0-4.859Zm0,0" transform="translate(-8.153 -7.653)" fill="#fff" stroke="#3d7ce1" stroke-width="0.5"/>
      <path id="Path_119217" data-name="Path 119217" d="M9.194,312h4.859a.694.694,0,0,1,.694.694v3.124H8.5v-3.124A.694.694,0,0,1,9.194,312Zm0,0" transform="translate(-8.153 -298.465)" fill="#fff" stroke="#3d7ce1" stroke-width="0.5"/>
      <path id="Path_119218" data-name="Path 119218" d="M8.5,400h6.247v1.041a.694.694,0,0,1-.694.694H9.194a.694.694,0,0,1-.694-.694Zm0,0" transform="translate(-8.153 -382.647)" fill="#fff" stroke="#3d7ce1" stroke-width="0.5"/>
      <path id="Path_119219" data-name="Path 119219" d="M201.194,304h3.471a.694.694,0,0,1,.694.694v4.859H200.5v-4.859A.694.694,0,0,1,201.194,304Zm0,0" transform="translate(-191.824 -290.812)" fill="#fff" stroke="#3d7ce1" stroke-width="0.5"/>
      <path id="Path_119220" data-name="Path 119220" d="M200.5,432h4.859v1.041a.694.694,0,0,1-.694.694h-3.471a.694.694,0,0,1-.694-.694Zm0,0" transform="translate(-191.824 -413.259)" fill="#fff" stroke="#3d7ce1" stroke-width="0.5"/>
      <path id="Path_119221" data-name="Path 119221" d="M65.888,240.694a.694.694,0,1,1-.694-.694A.694.694,0,0,1,65.888,240.694Zm0,0" transform="translate(-61.724 -229.588)" fill="#fff" stroke="#3d7ce1" stroke-width="0.5"/>
      <path id="Path_119222" data-name="Path 119222" d="M257.888,240.694a.694.694,0,1,1-.694-.694A.694.694,0,0,1,257.888,240.694Zm0,0" transform="translate(-245.394 -229.588)" fill="#fff" stroke="#3d7ce1" stroke-width="0.5"/>
      <path id="Path_119223" data-name="Path 119223" d="M12.994,3.471H11.937a3.818,3.818,0,0,0-7.6,0H3.276a2.776,2.776,0,1,0,0,5.553H7.094V8.329H3.276a2.082,2.082,0,0,1,0-4.165H5.012V3.818a3.124,3.124,0,0,1,6.247,0v.347h1.735a2.082,2.082,0,0,1,0,4.165H9.177v.694h3.818a2.776,2.776,0,0,0,0-5.553Zm0,0" transform="translate(-0.5)" fill="#fff" stroke="#3d7ce1" stroke-width="0.5"/>
      <path id="Path_119224" data-name="Path 119224" d="M13.341,124.467h-.694v-.758a1.039,1.039,0,1,0-1.324-1.324H8.482v-4.368l.8.8.491-.491-1.634-1.634L6.5,118.321l.491.491.8-.8v4.368H4.948a1.039,1.039,0,1,0-1.324,1.324v1.105H1.541A1.042,1.042,0,0,0,.5,125.855v4.165a1.042,1.042,0,0,0,1.041,1.041H3.624v.694H2.582v.694H5.359v-.694H4.318v-.694H6.4a1.042,1.042,0,0,0,1.041-1.041v-4.165A1.042,1.042,0,0,0,6.4,124.814H4.318v-1.105a1.04,1.04,0,0,0,.63-.63h6.375a1.039,1.039,0,0,0,.63.63v.758H9.871a1.042,1.042,0,0,0-1.041,1.041v5.9a1.042,1.042,0,0,0,1.041,1.041h3.471a1.042,1.042,0,0,0,1.041-1.041v-5.9A1.042,1.042,0,0,0,13.341,124.467Zm-6.941,5.9H1.541a.347.347,0,0,1-.347-.347v-.694H6.747v.694A.347.347,0,0,1,6.4,130.367Zm.347-4.512v2.776H1.194v-2.776a.347.347,0,0,1,.347-.347H6.4A.347.347,0,0,1,6.747,125.855Zm5.553-3.471a.347.347,0,1,1-.347.347A.347.347,0,0,1,12.3,122.384Zm-8.329.694a.347.347,0,1,1,.347-.347A.347.347,0,0,1,3.971,123.078Zm5.9,2.082h3.471a.347.347,0,0,1,.347.347v4.512H9.524v-4.512A.347.347,0,0,1,9.871,125.161Zm3.471,6.594H9.871a.347.347,0,0,1-.347-.347v-.694h4.165v.694A.347.347,0,0,1,13.341,131.755Zm0,0" transform="translate(-0.5 -111.625)" fill="#fff" stroke="#3d7ce1" stroke-width="0.5"/>
    </g>
  </g>
</svg>
