<svg xmlns="http://www.w3.org/2000/svg" width="36" height="31" viewBox="0 0 36 31">
  <g id="Group_75315" data-name="Group 75315" transform="translate(-1634 -2721)">
    <path id="Polygon_16" data-name="Polygon 16" d="M21.243,0a10,10,0,0,1,8.648,4.979l3.194,5.5a10,10,0,0,1,0,10.043l-3.194,5.5A10,10,0,0,1,21.243,31H14.757a10,10,0,0,1-8.648-4.979l-3.194-5.5a10,10,0,0,1,0-10.043l3.194-5.5A10,10,0,0,1,14.757,0Z" transform="translate(1634 2721)" fill="#3d7ce1"/>
    <g id="iot_1_" data-name="iot (1)" transform="translate(1640.66 2724.33)">
      <g id="Group_75292" data-name="Group 75292" transform="translate(5.38 15.966)">
        <path id="Path_119225" data-name="Path 119225" d="M31,47h.784v4.313H31Z" transform="translate(-25.119 -45.432)" fill="#fff"/>
        <path id="Path_119226" data-name="Path 119226" d="M37.96,50.7h-.784v-.622L36,48.907V46h.784v2.582l1.176,1.176Z" transform="translate(-28.159 -44.824)" fill="#fff"/>
        <path id="Path_119227" data-name="Path 119227" d="M43.744,48.881H42.96v-.622L41,46.3V43h.784v2.974l1.96,1.96Z" transform="translate(-31.199 -43)" fill="#fff"/>
        <path id="Path_119228" data-name="Path 119228" d="M23.784,50.7H23v-.946l1.176-1.176V46h.784v2.907l-1.176,1.176Z" transform="translate(-20.256 -44.824)" fill="#fff"/>
        <path id="Path_119229" data-name="Path 119229" d="M16.784,48.881H16v-.946l1.96-1.96V43h.784v3.3l-1.96,1.96Z" transform="translate(-16 -43)" fill="#fff"/>
        <path id="Path_119230" data-name="Path 119230" d="M46,60h.784v.784H46Z" transform="translate(-34.238 -53.335)" fill="#fff"/>
        <path id="Path_119231" data-name="Path 119231" d="M39,60h.784v.784H39Z" transform="translate(-29.983 -53.335)" fill="#fff"/>
        <path id="Path_119232" data-name="Path 119232" d="M16,60h.784v.784H16Z" transform="translate(-16 -53.335)" fill="#fff"/>
        <path id="Path_119233" data-name="Path 119233" d="M23,60h.784v.784H23Z" transform="translate(-20.256 -53.335)" fill="#fff"/>
        <path id="Path_119234" data-name="Path 119234" d="M31,60h.784v.784H31Z" transform="translate(-25.119 -53.335)" fill="#fff"/>
      </g>
      <circle id="Ellipse_40448" data-name="Ellipse 40448" cx="6.273" cy="6.273" r="6.273" transform="translate(5.38 5.38)" fill="#fff"/>
      <path id="Path_119235" data-name="Path 119235" d="M30.682,11.959a1.177,1.177,0,0,0-1.663,0l-.554-.554a1.962,1.962,0,0,1,2.772,0Z" transform="translate(-18.198 -7.478)" fill="#fff"/>
      <path id="Path_119236" data-name="Path 119236" d="M30,8.168a2.923,2.923,0,0,0-4.13,0l-.554-.554a3.708,3.708,0,0,1,5.238,0Z" transform="translate(-16.286 -4.863)" fill="#fff"/>
      <path id="Path_119237" data-name="Path 119237" d="M29.35,4.406a4.6,4.6,0,0,0-6.5,0l-.554-.554a5.387,5.387,0,0,1,7.611,0Z" transform="translate(-14.446 -2.277)" fill="#fff"/>
      <path id="Path_119238" data-name="Path 119238" d="M11.4,31.237a1.962,1.962,0,0,1,0-2.772l.554.554a1.177,1.177,0,0,0,0,1.663Z" transform="translate(-7.478 -18.198)" fill="#fff"/>
      <path id="Path_119239" data-name="Path 119239" d="M7.613,30.558a3.708,3.708,0,0,1,0-5.238l.554.554a2.923,2.923,0,0,0,0,4.13Z" transform="translate(-4.863 -16.286)" fill="#fff"/>
      <path id="Path_119240" data-name="Path 119240" d="M3.852,29.9a5.388,5.388,0,0,1,0-7.611l.554.554a4.6,4.6,0,0,0,0,6.5Z" transform="translate(-2.278 -14.446)" fill="#fff"/>
      <path id="Path_119241" data-name="Path 119241" d="M50.847,31.237l-.554-.554a1.177,1.177,0,0,0,0-1.663l.554-.554A1.962,1.962,0,0,1,50.847,31.237Z" transform="translate(-31.468 -18.198)" fill="#fff"/>
      <path id="Path_119242" data-name="Path 119242" d="M53.847,30.558,53.293,30a2.923,2.923,0,0,0,0-4.13l.554-.554A3.708,3.708,0,0,1,53.847,30.558Z" transform="translate(-33.292 -16.286)" fill="#fff"/>
      <path id="Path_119243" data-name="Path 119243" d="M56.847,29.9l-.554-.554a4.6,4.6,0,0,0,0-6.5l.554-.554A5.388,5.388,0,0,1,56.847,29.9Z" transform="translate(-35.116 -14.446)" fill="#fff"/>
      <path id="Path_119244" data-name="Path 119244" d="M24.9,19.54a10.183,10.183,0,0,0,2.377-.947l.048-.027a6.329,6.329,0,0,0-.514-.616,9.428,9.428,0,0,1-2.21.856,12.089,12.089,0,0,0-1.777-2.78c-.183-.016-.366-.028-.552-.028s-.37.012-.552.028a12.089,12.089,0,0,0-1.777,2.78,9.428,9.428,0,0,1-2.21-.856,6.274,6.274,0,0,0-.514.616l.048.027a10.2,10.2,0,0,0,2.377.947,8.213,8.213,0,0,0-.491,2.341H16.02c-.008.13-.02.26-.02.392s.012.262.02.392h3.135a8.213,8.213,0,0,0,.491,2.341,10.181,10.181,0,0,0-2.377.946l-.048.027a6.328,6.328,0,0,0,.514.616,9.428,9.428,0,0,1,2.21-.856,12.089,12.089,0,0,0,1.777,2.78c.183.016.366.028.552.028s.37-.012.552-.028a12.089,12.089,0,0,0,1.777-2.78,9.428,9.428,0,0,1,2.21.856,6.273,6.273,0,0,0,.514-.616l-.048-.027a10.181,10.181,0,0,0-2.377-.946,8.215,8.215,0,0,0,.491-2.341h3.135c.008-.131.02-.26.02-.392s-.012-.262-.02-.392H25.391A8.213,8.213,0,0,0,24.9,19.54Zm-2.627-2.949A11.644,11.644,0,0,1,23.8,18.967a9.677,9.677,0,0,1-3.064,0A11.658,11.658,0,0,1,22.273,16.591Zm0,11.363a11.643,11.643,0,0,1-1.532-2.376,9.677,9.677,0,0,1,3.064,0A11.659,11.659,0,0,1,22.273,27.955Zm1.85-3.118a10.49,10.49,0,0,0-3.7,0,7.483,7.483,0,0,1-.487-2.171H24.61A7.483,7.483,0,0,1,24.123,24.836Zm-4.187-2.955a7.481,7.481,0,0,1,.487-2.171,10.327,10.327,0,0,0,3.7,0,7.481,7.481,0,0,1,.487,2.171Z" transform="translate(-10.62 -10.62)" fill="#3d7ce1"/>
      <path id="Path_119245" data-name="Path 119245" d="M38.273,22.273A6.273,6.273,0,0,0,32,16V28.546A6.273,6.273,0,0,0,38.273,22.273Z" transform="translate(-20.347 -10.62)" fill="#fff"/>
      <path id="Path_119246" data-name="Path 119246" d="M34.329,25.738a9.428,9.428,0,0,1,2.21.856h0a6.372,6.372,0,0,0,.514-.615l-.048-.027a10.181,10.181,0,0,0-2.377-.946,8.216,8.216,0,0,0,.491-2.341h3.135c.007-.131.019-.26.019-.392s-.012-.262-.02-.392H35.118a8.213,8.213,0,0,0-.491-2.341A10.183,10.183,0,0,0,37,18.593l.048-.027a6.279,6.279,0,0,0-.514-.615h0a9.428,9.428,0,0,1-2.21.856,12.089,12.089,0,0,0-1.777-2.78C32.37,16.012,32.186,16,32,16v.591a11.644,11.644,0,0,1,1.532,2.376A9.692,9.692,0,0,1,32,19.089v.788a10.463,10.463,0,0,0,1.85-.167,7.481,7.481,0,0,1,.487,2.171H32v.784h2.337a7.483,7.483,0,0,1-.487,2.171A10.46,10.46,0,0,0,32,24.672v.785a9.692,9.692,0,0,1,1.532.122A11.683,11.683,0,0,1,32,27.955v.591c.186,0,.37-.012.552-.028a12.074,12.074,0,0,0,1.777-2.78Z" transform="translate(-20.347 -10.62)" fill="#3d7ce1"/>
    </g>
  </g>
</svg>
