<svg xmlns="http://www.w3.org/2000/svg" xmlns:xlink="http://www.w3.org/1999/xlink" width="32" height="32" viewBox="0 0 32 32"><defs><style>.a{fill:none;}.b{fill:url(#a);}.c,.d{fill:#be202e;}.d{opacity:0.35;}.e{fill:url(#b);}.f{fill:url(#c);}.g{fill:url(#d);}.h{fill:url(#e);}.i{fill:url(#f);}.j{fill:url(#g);}.k{fill:#fff;}.l{fill:#b0afb0;}.m{fill:url(#h);}.n{fill:url(#i);}.o{fill:url(#j);}.p{fill:#d22128;}</style><linearGradient id="a" x1="-5565.321" y1="882.067" x2="-5564.349" y2="880.813" gradientUnits="objectBoundingBox"><stop offset="0" stop-color="#f69923"/><stop offset="0.312" stop-color="#f79a23"/><stop offset="0.838" stop-color="#e97826"/></linearGradient><linearGradient id="b" x1="-5558.849" y1="487.894" x2="-5551.941" y2="487.894" gradientUnits="objectBoundingBox"><stop offset="0.323" stop-color="#9e2064"/><stop offset="0.63" stop-color="#c92037"/><stop offset="0.751" stop-color="#cd2335"/><stop offset="1" stop-color="#e97826"/></linearGradient><linearGradient id="c" x1="-4691.607" y1="698.534" x2="-4688.131" y2="698.534" gradientUnits="objectBoundingBox"><stop offset="0" stop-color="#282662"/><stop offset="0.095" stop-color="#662e8d"/><stop offset="0.788" stop-color="#9f2064"/><stop offset="0.949" stop-color="#cd2032"/></linearGradient><linearGradient id="d" x1="-4399.2" y1="277.17" x2="-4393.732" y2="277.17" xlink:href="#b"/><linearGradient id="e" x1="-6809.423" y1="289.534" x2="-6804.974" y2="289.534" xlink:href="#c"/><linearGradient id="f" x1="-2732.584" y1="300.081" x2="-2729.188" y2="300.081" xlink:href="#b"/><linearGradient id="g" x1="-3840.964" y1="548.787" x2="-3836.192" y2="548.787" xlink:href="#b"/><linearGradient id="h" x1="-2853.592" y1="190.004" x2="-2852.613" y2="190.004" xlink:href="#a"/><linearGradient id="i" x1="0.011" y1="0.473" x2="0.981" y2="0.473" xlink:href="#b"/><linearGradient id="j" x1="-0.024" y1="0.39" x2="1.024" y2="0.39" xlink:href="#b"/></defs><g transform="translate(-1228 -9104)"><rect class="a" width="32" height="32" transform="translate(1228 9104)"/><g transform="translate(1226.378 9109.477)"><path class="b" d="M23.812,14.2a3.013,3.013,0,0,0-.708.708l.261.521c.186-.261.41-.521.6-.745L24,14.652l-.037.037a5.693,5.693,0,0,0-.559.745,6.22,6.22,0,0,0,1.08-.149,1.05,1.05,0,0,0-.112-.857s-.261-.41-.559-.223Z" transform="translate(-16.056 -6.852)"/><path class="a" d="M7.368,10.577H7.331Zm-.3.931H7Zm-1.9,2.123h0a4.476,4.476,0,0,0,.187-.485,4.174,4.174,0,0,0,.185-.484,4.052,4.052,0,0,0,.187-.484c.074-.149.149-.336.224-.485a1.544,1.544,0,0,0,.148-.372c0-.037.038-.074.038-.111l.111-.224a.847.847,0,0,1,.112-.187c0-.037.037-.037.037-.074H6.363l-.037-.037c-.037.111-.111.185-.148.3-.038.074-.038.111-.075.185-.074.15-.149.336-.224.485s-.148.335-.223.484a2.611,2.611,0,0,0-.187.485,2.569,2.569,0,0,0-.185.484,2.54,2.54,0,0,0-.187.484c0,.037-.037.074-.037.112a3.9,3.9,0,0,1-.149.373l.037.074h.037A3.928,3.928,0,0,1,5.171,13.631Z" transform="translate(-0.096 -0.245)"/><g transform="translate(6.714 11.272)"><path class="c" d="M7.075,12.106H7.038Z" transform="translate(-6.964 -11.631)"/><path class="d" d="M7.075,12.106H7.038Z" transform="translate(-6.964 -11.631)"/><path class="c" d="M7.165,11.621h.074C7.239,11.584,7.2,11.584,7.165,11.621Z" transform="translate(-6.979 -11.593)"/><path class="d" d="M7.165,11.621h.074C7.239,11.584,7.2,11.584,7.165,11.621Z" transform="translate(-6.979 -11.593)"/></g><path class="e" d="M22.449,16.835c.074-.149.186-.3.261-.447s.186-.3.261-.447V15.9a3.925,3.925,0,0,1,.261-.41l-.261-.521-.074.074a2.047,2.047,0,0,1-.261.335,3.9,3.9,0,0,0-.3.41,2.842,2.842,0,0,1-.3.41c-.074.112-.149.261-.223.372l.372.708A2.778,2.778,0,0,0,22.449,16.835Z" transform="translate(-15.96 -6.913)"/><path class="f" d="M20.705,21.3c-.037.149-.112.261-.149.41,0,.037,0,.037-.037.074a1.509,1.509,0,0,0-.112.372c.112.037.186.186.261.335a.6.6,0,0,0-.186-.41,1.209,1.209,0,0,0,1.192-.484c.037-.037.037-.074.074-.112-.112.149-.223.186-.484.186a1.279,1.279,0,0,0,.708-.6c.037-.074.074-.112.112-.186a1.108,1.108,0,0,1-1.08.335l-.3.037c.037,0,0,0,0,.037Z" transform="translate(-15.854 -7.356)"/><path class="g" d="M20.845,20.357c.074-.149.112-.335.186-.484s.112-.335.186-.484A2.586,2.586,0,0,0,21.4,18.9c.074-.149.149-.335.223-.484s.149-.335.223-.484c.037-.074.037-.112.074-.186.037-.112.112-.186.149-.3l-.372-.708v.037c-.074.149-.186.261-.261.41a2.778,2.778,0,0,1-.261.447,1.739,1.739,0,0,0-.186.372c0,.037-.037.037-.037.074-.074.149-.149.335-.223.484a4.176,4.176,0,0,0-.186.484c0,.074-.037.186-.037.261-.037.074-.037.149-.074.223-.037.186-.112.372-.149.559l.372.708c.037-.112.112-.261.149-.372A.115.115,0,0,1,20.845,20.357Z" transform="translate(-15.845 -7.046)"/><path class="h" d="M20.22,20.407l-.112.67v.037a1.516,1.516,0,0,0-.41-.372,2.049,2.049,0,0,1,.41.931.7.7,0,0,1-.447-.074.625.625,0,0,0,.41.223,1.266,1.266,0,0,0-.559.261,1.08,1.08,0,0,1,.633-.112c-.261.708-.484,1.49-.745,2.309a.291.291,0,0,0,.149-.149c.037-.149.335-1.117.782-2.421,0-.037.037-.074.037-.112v-.037c.037-.149.112-.261.149-.41,0-.037.037-.074.037-.112Z" transform="translate(-15.779 -7.32)"/><path class="i" d="M22.185,17.524c0,.037-.037.037-.037.074a.814.814,0,0,1-.112.186l-.112.223c0,.037-.037.074-.037.112a3.864,3.864,0,0,0-.149.372c-.074.149-.149.3-.223.484a2.586,2.586,0,0,0-.186.484,2.586,2.586,0,0,0-.186.484c-.074.149-.112.3-.186.484v.037c-.074.149-.112.335-.186.484l.3-.037a2.024,2.024,0,0,0,1.117-.633,2.643,2.643,0,0,0,.372-.521c.074-.149.149-.335.261-.521A2.153,2.153,0,0,0,23,18.716c-.074.037-.186.074-.261.112h-.112a1.187,1.187,0,0,0,.67-.67.84.84,0,0,1-.41.186h-.074a2.211,2.211,0,0,0,.3-.149l.037-.037.074-.074.037-.037c.037-.037.074-.074.074-.112a.036.036,0,0,1,.037-.037c0-.037.037-.037.037-.074.037-.074.074-.186.112-.261,0-.037.037-.074.037-.112v-.037a.13.13,0,0,1,.037-.074.137.137,0,0,1,.037-.112c.037-.037-.037,0-.037.037a1.334,1.334,0,0,1-.41.149l.261-.037-.3.037h-.037Z" transform="translate(-15.881 -7.081)"/><path class="j" d="M23.345,15.519a3.925,3.925,0,0,0-.261.41v.037c-.074.149-.186.3-.261.447s-.149.3-.261.484l-.223.447.931-.112a.9.9,0,0,0,.484-.41.193.193,0,0,0,.074-.149,2.006,2.006,0,0,0,.261-.484,2.278,2.278,0,0,0,.186-.447.69.69,0,0,0,.074-.261c0-.074.037-.112.037-.186a2.629,2.629,0,0,1-1.043.223Z" transform="translate(-15.999 -6.937)"/><path class="c" d="M7,12.106H6.924Z" transform="translate(-0.247 -0.359)"/><path class="d" d="M7,12.106H6.924Z" transform="translate(-0.247 -0.359)"/><path class="k" d="M22.776,18.958h0Z" transform="translate(-16.026 -7.211)"/><path class="c" d="M7.165,11.622Z" transform="translate(-0.265 -0.322)"/><path class="d" d="M7.165,11.622Z" transform="translate(-0.265 -0.322)"/><path class="k" d="M22.943,18.474Z" transform="translate(-16.044 -7.174)"/><g transform="translate(7.253 10.294)"><path class="l" d="M7.632,10.565v.142H7.6v-.142H7.547v-.029h.142v.028Z" transform="translate(-7.547 -10.536)"/><path class="l" d="M7.839,10.592l-.056.085H7.755L7.7,10.592v.114H7.67v-.17h.056l.057.085.056-.085H7.9v.17H7.868Z" transform="translate(-7.556 -10.536)"/></g><path class="m" d="M67.348,101.569h-.37a.34.34,0,0,1-.278-.093v-.925a.34.34,0,0,1,.278.093h.555c.093,0,.185-.093.278-.093l.185-.185c0-.093.093-.185.093-.37V95H69.2v5a1.8,1.8,0,0,1-.093.74,1.935,1.935,0,0,1-.37.555.8.8,0,0,1-.555.278,2.447,2.447,0,0,0-.833,0" transform="translate(-58.485 -84.808)"/><path d="M13.814,15.407,12.7,11.336v4.071H11.686V10.226h1.48l1.11,3.978,1.2-3.978h1.48v5.181H15.942V11.336l-1.2,4.071Zm5.459-3.238a.707.707,0,0,0-.463.185,1.078,1.078,0,0,0-.185.648h1.388v-.37c0-.093-.093-.185-.093-.278l-.185-.185h-.463m.093,3.331a1.8,1.8,0,0,1-.74-.093,1.417,1.417,0,0,1-1.018-1.018,2.737,2.737,0,0,1-.185-.925,2.852,2.852,0,0,1,.093-.925,1.491,1.491,0,0,1,.37-.648,1.935,1.935,0,0,1,.555-.37,1.8,1.8,0,0,1,.74-.093,2.037,2.037,0,0,1,.74.093,1.7,1.7,0,0,1,.925.925,1.8,1.8,0,0,1,.093.74v.555H18.532c0,.185,0,.278.093.37,0,.093.093.185.185.278s.185.185.278.185.278.093.37.093h.37a.34.34,0,0,0,.278-.093c.093,0,.185-.093.278-.093s.185-.093.278-.093v.833a.34.34,0,0,1-.278.093c-.093,0-.185.093-.278.093a.7.7,0,0,0-.37.093h-.37m3.793-.833h.278c.093,0,.185-.093.278-.093v.833c-.093.093-.185.093-.37.093s-.278.093-.463.093a.693.693,0,0,1-.463-.093c-.093-.093-.278-.093-.37-.185s-.185-.278-.278-.37a1.372,1.372,0,0,1-.093-.648V12.261h-.555V11.8l.555-.37.278-.833H22.6v.833h.925v.833H22.6V14.2c0,.185,0,.278.093.37.185,0,.278.093.463.093m2.591-2.5a.707.707,0,0,0-.463.185A1.078,1.078,0,0,0,25.1,13h1.388v-.37c0-.093-.093-.185-.093-.278l-.185-.185h-.463m.093,3.331a1.8,1.8,0,0,1-.74-.093,2.319,2.319,0,0,1-.648-.37,1.491,1.491,0,0,1-.37-.648,2.737,2.737,0,0,1-.185-.925,2.852,2.852,0,0,1,.093-.925,1.491,1.491,0,0,1,.37-.648,1.935,1.935,0,0,1,.555-.37,1.8,1.8,0,0,1,.74-.093,2.037,2.037,0,0,1,.74.093,1.7,1.7,0,0,1,.925.925,1.8,1.8,0,0,1,.093.74v.555H25.009c0,.185,0,.278.093.37,0,.093.093.185.185.278s.185.185.278.185.278.093.37.093h.37a.34.34,0,0,0,.278-.093c.093,0,.185-.093.278-.093s.185-.093.278-.093v.833a.34.34,0,0,1-.278.093c-.093,0-.185.093-.278.093a.7.7,0,0,0-.37.093h-.37m3.978-4.071h.37v1.018h-.37c-.185,0-.278,0-.37.093-.093,0-.185.093-.278.185s-.185.185-.185.278a4.007,4.007,0,0,0-.093.463V15.5h-1.11V11.521h.74l.185.555H28.8c.093-.093.093-.185.185-.278l.185-.185a.34.34,0,0,1,.278-.093c.093-.093.185-.093.37-.093" transform="translate(-0.603 -0.219)"/><path class="n" d="M90.255,96.01h-.278v-.925H89.7V94.9h.833v.185h-.278Z" transform="translate(-60.206 -84.8)"/><path class="o" d="M91.263,96.018l-.278-.925V96.11H90.8V95h.37l.278.833L91.725,95h.185v1.11h-.185v-.925l-.278.925h-.185" transform="translate(-60.288 -84.808)"/><g transform="translate(9.472 7.411)"><path class="p" d="M9.945,9.292l.774-1.838h.161l.774,1.838H11.46l-.225-.581H10.4l-.226.581H9.945Zm.839-1.645-.388.9h.742Zm1.064,1.645V7.453h.774a.583.583,0,0,1,.031,1.161h-.612v.677Zm.161-.871h.581A.376.376,0,0,0,12.944,8a.4.4,0,0,0-.387-.419h-.581v.839Zm1.033.871.773-1.838h.161l.774,1.838h-.194l-.225-.581h-.838l-.226.581Zm.87-1.645-.387.9h.742Zm1.71-.226a.711.711,0,0,1,.677.387l-.161.1a.574.574,0,0,0-.549-.323.7.7,0,0,0-.677.774.727.727,0,0,0,.677.773.651.651,0,0,0,.581-.354l.161.065a.793.793,0,0,1-.742.419.919.919,0,0,1,.032-1.837Zm2.418,0V9.259h-.193V8.389H16.782v.87h-.194V7.422h.194v.806h1.1v-.8ZM19.717,9.1v.161H18.491V7.42h1.226v.161H18.683v.677h.9V8.42h-.9v.709h1.033Z" transform="translate(-9.945 -7.42)"/></g></g></g></svg>