<svg xmlns="http://www.w3.org/2000/svg" width="38" height="38" viewBox="0 0 38 38"><defs><style>.a{fill:#326de6;}.b{fill:#fff;}.c{fill:none;}</style></defs><g transform="translate(-1448 -9233)"><g transform="translate(1451.469 9235.835)"><path class="a" d="M12.345,28.035a1.958,1.958,0,0,1-1.544-.747l-5.81-7.221a1.949,1.949,0,0,1-.382-1.693L6.684,9.36A1.964,1.964,0,0,1,7.763,8.015L16.163,4a1.97,1.97,0,0,1,1.726,0l8.4,4a1.964,1.964,0,0,1,1.079,1.345l2.075,9.014a2,2,0,0,1-.382,1.693l-5.81,7.221a2.01,2.01,0,0,1-1.544.747l-9.363.017Z" transform="translate(-3.616 -3.268)"/><path class="b" d="M13.393.945a1.624,1.624,0,0,1,.681.149l8.4,4a1.612,1.612,0,0,1,.863,1.079l2.075,9.014A1.552,1.552,0,0,1,25.1,16.55l-5.81,7.221a1.581,1.581,0,0,1-1.245.6H8.728a1.581,1.581,0,0,1-1.245-.6L1.673,16.55a1.662,1.662,0,0,1-.315-1.361L3.433,6.174A1.585,1.585,0,0,1,4.3,5.1l8.4-4.017a2,2,0,0,1,.7-.133Zm0-.78h0A2.512,2.512,0,0,0,12.364.4l-8.4,4.017a2.351,2.351,0,0,0-1.295,1.61L.594,15.039a2.354,2.354,0,0,0,.465,2.025l5.81,7.221a2.345,2.345,0,0,0,1.843.88h9.313a2.345,2.345,0,0,0,1.843-.88l5.81-7.221a2.342,2.342,0,0,0,.465-2.025L24.067,6.025a2.351,2.351,0,0,0-1.295-1.61L14.406.4A2.38,2.38,0,0,0,13.393.165Z" transform="translate(0 0)"/><path class="b" d="M58.25,48.792h-.017c-.017,0-.033,0-.033-.017-.033,0-.066-.017-.1-.017a2.268,2.268,0,0,0-.315-.033.623.623,0,0,1-.166-.017H57.6a4.381,4.381,0,0,1-.9-.149.323.323,0,0,1-.183-.183c0-.017-.017-.017-.017-.033h0l-.216-.066a6.566,6.566,0,0,0-.116-2.341,6.84,6.84,0,0,0-.93-2.175l.166-.149V43.58a.375.375,0,0,1,.083-.249,4.842,4.842,0,0,1,.747-.515h0c.05-.033.1-.05.149-.083a2.5,2.5,0,0,0,.282-.166c.017-.017.05-.033.083-.066.017-.017.033-.017.033-.033h0a.554.554,0,0,0,.116-.747.472.472,0,0,0-.382-.183.617.617,0,0,0-.365.133h0l-.033.033c-.033.017-.05.05-.083.066a2.756,2.756,0,0,0-.216.232.767.767,0,0,1-.116.116h0a4.221,4.221,0,0,1-.664.6.268.268,0,0,1-.149.05.211.211,0,0,1-.1-.017h-.033l-.2.133a8.061,8.061,0,0,0-.681-.631,6.629,6.629,0,0,0-3.469-1.378l-.017-.216-.033-.033a.347.347,0,0,1-.133-.216,5.825,5.825,0,0,1,.05-.9V39.5a.59.59,0,0,1,.033-.166c.017-.1.033-.2.05-.315v-.149h0a.506.506,0,0,0-.88-.382.526.526,0,0,0-.149.382h0V39a.966.966,0,0,0,.05.315c.017.05.017.1.033.166V39.5a4.288,4.288,0,0,1,.05.9.347.347,0,0,1-.133.216l-.033.033h0l-.017.216a8.341,8.341,0,0,0-.9.133A6.4,6.4,0,0,0,45.1,42.849l-.166-.116H44.9c-.033,0-.066.017-.1.017a.268.268,0,0,1-.149-.05,4.4,4.4,0,0,1-.664-.614h0a.767.767,0,0,0-.116-.116,2.756,2.756,0,0,0-.216-.232c-.017-.017-.05-.033-.083-.066-.017-.017-.033-.017-.033-.033h0a.58.58,0,0,0-.365-.133.472.472,0,0,0-.382.183.554.554,0,0,0,.116.747h0c.017,0,.017.017.033.017.033.017.05.05.083.066a2.5,2.5,0,0,0,.282.166.673.673,0,0,1,.149.083h0a4.843,4.843,0,0,1,.747.515.3.3,0,0,1,.083.249v.033h0l.166.149a.582.582,0,0,0-.083.133,6.465,6.465,0,0,0-.93,4.382l-.216.066c0,.017-.017.017-.017.033a.386.386,0,0,1-.183.183,4.192,4.192,0,0,1-.9.149h-.017a.565.565,0,0,0-.166.017,2.269,2.269,0,0,0-.315.033c-.033,0-.066.017-.1.017a.061.061,0,0,0-.05.017h0a.544.544,0,0,0-.432.614.512.512,0,0,0,.531.382.365.365,0,0,0,.133-.017h0c.017,0,.033,0,.033-.017.033,0,.066-.017.1-.017a1.6,1.6,0,0,0,.3-.116c.05-.017.1-.05.149-.066h.017a4.078,4.078,0,0,1,.863-.249h.033a.369.369,0,0,1,.216.083c.017,0,.017.017.033.017h0l.232-.033a6.565,6.565,0,0,0,2.175,3.121,6.719,6.719,0,0,0,.714.481l-.1.216c0,.017.017.017.017.033a.341.341,0,0,1,.033.266,4.68,4.68,0,0,1-.432.78v.017c-.033.05-.066.083-.1.133-.066.083-.116.166-.183.266a.363.363,0,0,0-.05.083.058.058,0,0,1-.017.033h0a.525.525,0,0,0,.216.714.442.442,0,0,0,.2.05.6.6,0,0,0,.5-.315h0a.058.058,0,0,1,.017-.033.363.363,0,0,1,.05-.083,3.146,3.146,0,0,0,.1-.3l.05-.149h0a3.9,3.9,0,0,1,.349-.83.426.426,0,0,1,.216-.149c.017,0,.017,0,.033-.017h0l.116-.216a6.486,6.486,0,0,0,2.324.432,6.025,6.025,0,0,0,1.444-.166,7.378,7.378,0,0,0,.863-.249l.1.183c.017,0,.017,0,.033.017a.308.308,0,0,1,.216.149,5.683,5.683,0,0,1,.349.83v.017l.05.149a2.1,2.1,0,0,0,.1.3c.017.033.033.05.05.083a.058.058,0,0,0,.017.033h0a.564.564,0,0,0,.5.315.442.442,0,0,0,.2-.05.494.494,0,0,0,.249-.3.6.6,0,0,0-.033-.415h0c0-.017-.017-.017-.017-.033a.363.363,0,0,0-.05-.083,1.5,1.5,0,0,0-.183-.266c-.033-.05-.066-.083-.1-.133V54.22a3.726,3.726,0,0,1-.432-.78.463.463,0,0,1,.017-.266c0-.017.017-.017.017-.033h0l-.083-.2a6.586,6.586,0,0,0,2.888-3.635l.2.033c.017,0,.017-.017.033-.017a.422.422,0,0,1,.216-.083h.033a4.078,4.078,0,0,1,.863.249h.017c.05.017.1.05.149.066a1.6,1.6,0,0,0,.3.116c.033,0,.066.017.1.017a.061.061,0,0,1,.05.017h0a.366.366,0,0,0,.133.017.559.559,0,0,0,.531-.382.639.639,0,0,0-.481-.548Zm-7.686-.813-.73.349-.73-.349-.183-.78.5-.631h.813l.5.631-.166.78ZM54.9,46.252a5.234,5.234,0,0,1,.116,1.677l-2.54-.73a.45.45,0,0,1-.315-.531.4.4,0,0,1,.1-.183l2.009-1.809a5.319,5.319,0,0,1,.631,1.577Zm-1.428-2.573-2.175,1.544a.442.442,0,0,1-.581-.1.369.369,0,0,1-.083-.183l-.149-2.706a5.039,5.039,0,0,1,2.988,1.444Zm-4.814-1.361c.183-.033.349-.066.531-.1l-.149,2.656a.454.454,0,0,1-.448.432.394.394,0,0,1-.2-.05l-2.208-1.577a5.064,5.064,0,0,1,2.473-1.361Zm-3.27,2.357,1.975,1.76a.442.442,0,0,1,.05.614.33.33,0,0,1-.2.133l-2.573.747a5.344,5.344,0,0,1,.747-3.254Zm-.448,4.5,2.639-.448a.448.448,0,0,1,.465.349.474.474,0,0,1-.017.266h0l-1.013,2.44a5.232,5.232,0,0,1-2.075-2.606ZM51,52.477a5.422,5.422,0,0,1-1.162.133,5.624,5.624,0,0,1-1.677-.266l1.311-2.374A.436.436,0,0,1,50,49.855a.708.708,0,0,1,.2.183h0l1.278,2.307c-.149.05-.315.083-.481.133Zm3.237-2.307a5.269,5.269,0,0,1-1.594,1.61l-1.046-2.507a.447.447,0,0,1,.232-.515.53.53,0,0,1,.232-.05l2.656.448a3.341,3.341,0,0,1-.481,1.013Z" transform="translate(-36.441 -34.318)"/></g><rect class="c" width="32" height="32" transform="translate(1448 9233)"/></g></svg>