<svg xmlns="http://www.w3.org/2000/svg" width="32" height="32" viewBox="0 0 32 32"><defs><style>.a{fill:#fb503b;}.b{fill:none;}</style></defs><g transform="translate(-1013 -9145)"><path class="a" d="M22.164,7.1c-.159-.159-2.195-2.724-2.539-3.147-.37-.423-.529-.344-.767-.317s-2.8.476-3.094.5c-.291.053-.476.159-.291.423.159.238,1.851,2.618,2.221,3.173L10.952,9.35,5.61.386c-.212-.317-.264-.423-.74-.4S.665.333.4.333C.136.359-.155.465.11,1.1s4.5,9.732,4.6,10a.909.909,0,0,0,1.137.529c.74-.185,3.279-.846,4.681-1.216.74,1.322,2.221,4.02,2.512,4.416.37.529.635.423,1.19.264.45-.132,6.928-2.459,7.219-2.592s.476-.212.264-.5c-.159-.212-1.851-2.512-2.75-3.7.608-.159,2.8-.74,3.041-.82.264-.079.317-.212.159-.37ZM9.921,9.615c-.079.026-3.861.926-4.046.978-.212.053-.212.026-.212-.053-.053-.079-4.5-9.282-4.575-9.388-.053-.106-.053-.212,0-.212S4.658.624,4.764.624c.132,0,.106.026.159.106,0,0,4.945,8.542,5.024,8.674.106.132.053.185-.026.212ZM20.551,11.6c.053.106.132.159-.079.212-.185.079-6.373,2.168-6.505,2.221s-.212.079-.37-.159-2.168-3.7-2.168-3.7l6.585-1.719c.159-.053.212-.079.317.079.106.185,2.168,2.988,2.221,3.068Zm.423-4.654c-.159.026-2.565.635-2.565.635l-1.983-2.7c-.053-.079-.106-.159.026-.185s2.38-.423,2.486-.45.185-.053.317.132c.132.159,1.825,2.327,1.9,2.406s-.026.132-.185.159Z" transform="translate(1016.994 9154.594)"/><rect class="b" width="32" height="32" transform="translate(1013 9145)"/></g></svg>