<svg xmlns="http://www.w3.org/2000/svg" width="29" height="29" viewBox="0 0 29 29">
  <g id="Group_75317" data-name="Group 75317" transform="translate(-1425 -2724)">
    <circle id="Ellipse_40446" data-name="Ellipse 40446" cx="14.5" cy="14.5" r="14.5" transform="translate(1425 2724)" fill="#e22626"/>
    <path id="Path_119285" data-name="Path 119285" d="M8.1-8.6,7.038,0H6.48a.424.424,0,0,1-.222-.051A.576.576,0,0,1,6.1-.21L2.388-6.786q-.012.12-.018.225t-.018.2L1.578,0H.588L1.644-8.6h.582a.478.478,0,0,1,.216.036.42.42,0,0,1,.138.156l3.714,6.57q.012-.138.021-.264t.021-.234L7.11-8.6Zm5.64,7.65L13.626,0H9.108l1.056-8.6h1.122l-.942,7.65Zm3.942-3.168a2.411,2.411,0,0,0,.9-.156,1.812,1.812,0,0,0,.654-.435,1.868,1.868,0,0,0,.4-.666,2.493,2.493,0,0,0,.138-.843,1.791,1.791,0,0,0-.1-.624,1.233,1.233,0,0,0-.306-.471,1.363,1.363,0,0,0-.516-.3,2.277,2.277,0,0,0-.726-.105H16.878l-.444,3.6ZM18.234-8.6a3.9,3.9,0,0,1,1.188.162,2.209,2.209,0,0,1,.831.462,1.883,1.883,0,0,1,.489.72,2.582,2.582,0,0,1,.162.936,3.387,3.387,0,0,1-.222,1.245,2.708,2.708,0,0,1-.645.975,2.974,2.974,0,0,1-1.044.639,4.053,4.053,0,0,1-1.419.231H16.326L15.93,0H14.814l1.05-8.6Z" transform="translate(1429 2743)" fill="#fff"/>
  </g>
</svg>
