<svg xmlns="http://www.w3.org/2000/svg" width="32" height="32" viewBox="0 0 32 32"><defs><style>.a{fill:none;}.b{fill:#83cd29;}.c{fill:#404137;}</style></defs><g transform="translate(-1013 -9198)"><rect class="a" width="32" height="32" transform="translate(1013 9198)"/><g transform="translate(1013.845 9206.413)"><g transform="translate(12.542 10.601)"><path class="b" d="M433.019,51.611a.5.5,0,0,0-.25.061l-2.407,1.39a.507.507,0,0,0-.25.44v2.775a.508.508,0,0,0,.25.439l.629.363a1.028,1.028,0,0,0,.557.148.666.666,0,0,0,.71-.751V53.737a.069.069,0,0,0-.072-.066h-.3a.068.068,0,0,0-.072.066v2.739c0,.211-.22.424-.577.245l-.654-.383a.072.072,0,0,1-.041-.061V53.5a.081.081,0,0,1,.041-.066l2.4-1.385a.071.071,0,0,1,.072,0l2.4,1.385a.082.082,0,0,1,.041.066v2.775a.077.077,0,0,1-.036.066l-2.407,1.385a.074.074,0,0,1-.072,0l-.618-.368a.064.064,0,0,0-.061,0,1.593,1.593,0,0,1-.363.163c-.039.014-.1.035.02.1l.807.475a.5.5,0,0,0,.5,0l2.407-1.385a.508.508,0,0,0,.25-.439V53.5a.507.507,0,0,0-.25-.439l-2.407-1.39a.5.5,0,0,0-.25-.061Z" transform="translate(-430.111 -51.611)"/><path class="b" d="M464.743,79.528c-.685,0-1.093.292-1.093.777,0,.526.405.671,1.063.736.787.077.848.193.848.348,0,.269-.214.383-.72.383-.636,0-.776-.159-.823-.475a.069.069,0,0,0-.066-.061h-.312a.073.073,0,0,0-.071.072c0,.405.22.884,1.272.884.761,0,1.2-.3,1.2-.823s-.355-.659-1.094-.756-.818-.147-.818-.322c0-.144.06-.337.613-.337.494,0,.676.107.751.44a.07.07,0,0,0,.066.056h.312a.075.075,0,0,0,.051-.026.067.067,0,0,0,.02-.051C465.9,79.8,465.513,79.528,464.743,79.528Z" transform="translate(-461.192 -77.545)"/></g><path class="c" d="M20.1.383a.153.153,0,0,0-.153.153V4.445a.1.1,0,0,1-.051.092.107.107,0,0,1-.107,0l-.639-.368a.306.306,0,0,0-.307,0l-2.55,1.472a.314.314,0,0,0-.153.271V8.855a.306.306,0,0,0,.153.266l2.55,1.472a.305.305,0,0,0,.307,0L21.7,9.121a.306.306,0,0,0,.153-.266V1.517a.311.311,0,0,0-.158-.271L20.178.4A.149.149,0,0,0,20.1.383ZM3.7,4.057a.288.288,0,0,0-.138.036L1.01,5.564a.305.305,0,0,0-.153.266L.862,9.78a.151.151,0,0,0,.077.133.149.149,0,0,0,.153,0L2.6,9.044a.312.312,0,0,0,.158-.266V6.934a.305.305,0,0,1,.153-.266l.644-.373a.308.308,0,0,1,.307,0l.644.373a.305.305,0,0,1,.153.266V8.778a.313.313,0,0,0,.158.266l1.513.869a.149.149,0,0,0,.153,0,.154.154,0,0,0,.077-.133l0-3.95a.3.3,0,0,0-.153-.266L3.867,4.092a.286.286,0,0,0-.138-.036Zm22.913.036a.306.306,0,0,0-.153.041L23.908,5.6a.306.306,0,0,0-.153.266V8.814a.308.308,0,0,0,.158.266l2.529,1.441a.307.307,0,0,0,.3,0l1.533-.853a.155.155,0,0,0,.082-.133.151.151,0,0,0-.077-.133L25.717,7.935a.165.165,0,0,1-.082-.138v-.92a.158.158,0,0,1,.082-.133l.8-.46a.153.153,0,0,1,.153,0l.8.46a.153.153,0,0,1,.077.133V7.6a.153.153,0,0,0,.23.133L29.3,6.847a.307.307,0,0,0,.153-.266v-.71A.307.307,0,0,0,29.3,5.6L26.764,4.133a.3.3,0,0,0-.153-.041Zm-7.624,2.2a.086.086,0,0,1,.041.01l.874.506a.079.079,0,0,1,.041.066V7.884a.079.079,0,0,1-.041.066l-.874.506a.077.077,0,0,1-.077,0l-.874-.506a.079.079,0,0,1-.041-.066V6.872a.079.079,0,0,1,.041-.066l.874-.506a.067.067,0,0,1,.036-.01h0Z" transform="translate(0)"/><path class="b" d="M111.35,52.4a.306.306,0,0,0-.153.041l-2.55,1.467a.314.314,0,0,0-.153.271v2.943a.306.306,0,0,0,.153.266l2.55,1.472a.305.305,0,0,0,.307,0l2.55-1.472a.306.306,0,0,0,.153-.266V54.18a.314.314,0,0,0-.153-.271l-2.55-1.467A.305.305,0,0,0,111.35,52.4ZM126.6,55.029a.063.063,0,0,0-.031.005l-.491.286a.06.06,0,0,0-.031.051v.562a.06.06,0,0,0,.031.051l.491.281a.053.053,0,0,0,.056,0l.491-.281a.06.06,0,0,0,.031-.051v-.562a.06.06,0,0,0-.031-.051l-.491-.286a.043.043,0,0,0-.026,0Z" transform="translate(-99.993 -48.325)"/></g></g></svg>