<svg xmlns="http://www.w3.org/2000/svg" width="32" height="32" viewBox="0 0 32 32"><defs><style>.a{fill:#ee4323;}.b{fill:none;}</style></defs><g transform="translate(-1013 -9104)"><path class="a" d="M35.844,27.187a5.208,5.208,0,0,1-3.159-4.328,6.083,6.083,0,0,1,2.837-4.809,2.171,2.171,0,0,0,.176,2.009,1.9,1.9,0,0,0,1.921.727c1.685-.369,1.762-2.221.763-3.3s-1.943-2.276-1.567-3.826a3.985,3.985,0,0,1,1.269-2.025c-.464,1.221.855,2.424,1.725,3.024a46.217,46.217,0,0,1,4.551,3.046,5.928,5.928,0,0,1,2.319,5.025,5.706,5.706,0,0,1-3.909,4.459c4.1-.906,8.343-4.09,8.43-8.641.072-3.744-2.5-6.625-5.678-8.275l-.166-.091a1.355,1.355,0,0,1,.113.553,1.936,1.936,0,0,0,.053-.367,1.791,1.791,0,0,1-.058.444l.005-.077a1.865,1.865,0,0,1-.236.561l.047-.05a2,2,0,0,1-3.2.191c-1.365-1.753.029-3.644.223-5.5A6.941,6.941,0,0,0,39.277,0c1,1.612-.316,3.745-1.367,4.937-1.019,1.156-2.257,2.121-3.382,3.171a28.188,28.188,0,0,0-3.362,3.64c-1.986,2.65-3.2,5.983-2.308,9.288a8.979,8.979,0,0,0,6.986,6.15Z" transform="translate(989 9106)"/><rect class="b" width="32" height="32" transform="translate(1013 9104)"/></g></svg>