<svg xmlns="http://www.w3.org/2000/svg" xmlns:xlink="http://www.w3.org/1999/xlink" width="32" height="32" viewBox="0 0 32 32"><defs><style>.a{fill:none;}.b{fill:url(#a);}.c{fill:url(#b);}</style><linearGradient id="a" x1="0.13" y1="0.12" x2="0.796" y2="0.782" gradientUnits="objectBoundingBox"><stop offset="0" stop-color="#387eb8"/><stop offset="1" stop-color="#366994"/></linearGradient><linearGradient id="b" x1="0.191" y1="0.206" x2="0.907" y2="0.884" gradientUnits="objectBoundingBox"><stop offset="0" stop-color="#ffe052"/><stop offset="1" stop-color="#ffc331"/></linearGradient></defs><g transform="translate(-1013 -9065)"><rect class="a" width="32" height="32" transform="translate(1013 9065)"/><g transform="translate(1016.855 9069.928)"><path class="b" d="M11.609.072c-5.863,0-5.5,2.542-5.5,2.542l.007,2.634h5.595v.791H3.9S.145,5.614.145,11.529s3.274,5.706,3.274,5.706H5.374V14.49A3.106,3.106,0,0,1,8.6,11.215h5.549s3.118.05,3.118-3.013V3.137S17.736.072,11.609.072ZM8.524,1.843a1.006,1.006,0,1,1-.712.295,1.006,1.006,0,0,1,.712-.295Z" transform="translate(0 0)"/><path class="c" d="M71.806,81.485c5.863,0,5.5-2.542,5.5-2.542L77.3,76.308H71.7v-.791h7.817s3.752.425,3.752-5.49S80,64.322,80,64.322H78.041v2.745a3.106,3.106,0,0,1-3.222,3.274H69.27s-3.118-.05-3.118,3.013v5.065s-.473,3.065,5.653,3.065Zm3.085-1.771a1.006,1.006,0,1,1,.712-.295,1.006,1.006,0,0,1-.712.295Z" transform="translate(-60.031 -58.439)"/></g></g></svg>