<svg xmlns="http://www.w3.org/2000/svg" width="32" height="32" viewBox="0 0 32 32"><defs><style>.a{fill:#53c1de;}.b{fill:#fff;}.c{fill:none;}</style></defs><g transform="translate(-570 -9163)"><g transform="translate(569.472 9164.216)"><path class="a" d="M38.594,22.7q-.453-.156-.914-.288.076-.31.141-.624c.692-3.359.24-6.066-1.306-6.957-1.482-.854-3.9.036-6.352,2.166q-.362.315-.707.649-.231-.222-.471-.435c-2.565-2.277-5.135-3.237-6.679-2.343-1.48.857-1.919,3.4-1.3,6.585q.093.473.21.941c-.364.1-.715.213-1.051.331-3.007,1.048-4.927,2.691-4.927,4.4,0,1.76,2.061,3.526,5.193,4.6q.381.13.768.24-.126.5-.223,1.014c-.594,3.128-.13,5.612,1.346,6.464,1.525.879,4.084-.025,6.576-2.2q.3-.258.593-.546.374.361.768.7c2.414,2.077,4.8,2.916,6.273,2.062,1.523-.882,2.018-3.55,1.376-6.8q-.074-.372-.17-.759.27-.08.528-.165c3.256-1.079,5.374-2.823,5.374-4.606,0-1.71-1.982-3.364-5.049-4.42Z" transform="translate(-12.668 -12.004)"/><path class="b" d="M46.327,39c-.155.051-.315.1-.477.149a28.476,28.476,0,0,0-1.438-3.6A28.464,28.464,0,0,0,45.794,32c.29.084.573.173.844.266,2.628.9,4.231,2.242,4.231,3.273,0,1.1-1.731,2.523-4.542,3.455ZM45.16,41.31a10.273,10.273,0,0,1,.137,3.748,2.507,2.507,0,0,1-.93,1.763c-.9.518-2.809-.155-4.873-1.932q-.355-.305-.714-.651a28.51,28.51,0,0,0,2.381-3.023,28.323,28.323,0,0,0,3.847-.593Q45.093,40.974,45.16,41.31Zm-11.8,5.422a2.507,2.507,0,0,1-1.992.075c-.9-.517-1.268-2.511-.76-5.187q.091-.474.207-.943a28.529,28.529,0,0,0,3.827.554,29.523,29.523,0,0,0,2.438,3.012q-.264.256-.541.5a10.275,10.275,0,0,1-3.179,1.99Zm-4.1-7.74a10.278,10.278,0,0,1-3.312-1.76,2.508,2.508,0,0,1-1.06-1.688c0-1.034,1.542-2.353,4.113-3.25q.484-.168.977-.308a29.1,29.1,0,0,0,1.384,3.587,29.54,29.54,0,0,0-1.4,3.638Q29.615,39.111,29.268,38.992Zm1.373-9.348c-.534-2.728-.179-4.786.713-5.3.95-.55,3.051.234,5.266,2.2.142.126.284.257.426.393a29.074,29.074,0,0,0-2.419,2.994,29.645,29.645,0,0,0-3.79.589q-.109-.435-.2-.875ZM42.891,32.67q-.416-.719-.864-1.42c.906.114,1.774.266,2.59.453a25.88,25.88,0,0,1-.909,2.446q-.394-.747-.817-1.478Zm-5-4.866a25.946,25.946,0,0,1,1.671,2.018q-1.677-.079-3.357,0C36.762,29.093,37.327,28.417,37.9,27.8Zm-5.028,4.874q-.418.725-.8,1.469c-.353-.838-.656-1.662-.9-2.457.81-.181,1.674-.33,2.575-.442q-.452.705-.871,1.431Zm.9,7.25a25.833,25.833,0,0,1-2.617-.421c.251-.81.56-1.651.921-2.507q.385.744.805,1.47t.892,1.459Zm4.165,3.443c-.575-.621-1.149-1.307-1.709-2.045q.816.032,1.662.032.868,0,1.714-.038A25.8,25.8,0,0,1,37.929,43.371Zm5.791-6.414a25.766,25.766,0,0,1,.954,2.5,25.748,25.748,0,0,1-2.649.452q.45-.714.872-1.445t.824-1.5Zm-1.875.9q-.645,1.121-1.362,2.2c-.843.06-1.713.091-2.6.091s-1.743-.028-2.571-.081q-.735-1.074-1.388-2.2t-1.212-2.288q.561-1.167,1.208-2.29h0q.647-1.122,1.377-2.192c.845-.064,1.711-.1,2.586-.1s1.746.034,2.591.1q.723,1.068,1.368,2.185t1.224,2.279q-.569,1.171-1.22,2.3Zm2.5-13.548c.951.549,1.321,2.76.723,5.661q-.059.283-.128.565a29.064,29.064,0,0,0-3.8-.6,28.5,28.5,0,0,0-2.4-3q.319-.308.653-.6C41.5,24.512,43.455,23.792,44.348,24.307Z" transform="translate(-21.107 -20.424)"/><path class="a" d="M110.58,94.665a2.536,2.536,0,1,1-2.536,2.536,2.536,2.536,0,0,1,2.536-2.536" transform="translate(-93.805 -82.081)"/></g><rect class="c" width="32" height="32" transform="translate(570 9163)"/></g></svg>