<svg xmlns="http://www.w3.org/2000/svg" xmlns:xlink="http://www.w3.org/1999/xlink" width="32" height="32" viewBox="0 0 32 32"><defs><style>.a{fill:none;}.b{fill:url(#a);}.c{fill:#fff;}.d{fill:url(#b);}.e{fill:url(#c);}.f{fill:url(#d);}</style><radialGradient id="a" cx="0.118" cy="0.936" r="0.79" gradientTransform="translate(-0.006) scale(1.019 1)" gradientUnits="objectBoundingBox"><stop offset="0" stop-color="#2b2b2b"/><stop offset="1" stop-color="#838383"/></radialGradient><radialGradient id="b" cx="0.317" cy="-0.155" r="1.102" gradientTransform="translate(0.078) scale(0.758 1)" gradientUnits="objectBoundingBox"><stop offset="0" stop-color="#fff" stop-opacity="0.8"/><stop offset="1" stop-color="#fff" stop-opacity="0.2"/></radialGradient><linearGradient id="c" x1="-0.152" y1="-0.023" x2="-0.064" y2="-0.156" gradientUnits="objectBoundingBox"><stop offset="0" stop-color="#227716"/><stop offset="1" stop-color="#20b228"/></linearGradient><radialGradient id="d" cx="0.404" cy="0.822" r="0.785" gradientTransform="matrix(0.513, -0.618, 1.149, 2.235, 0.302, 0.321)" gradientUnits="objectBoundingBox"><stop offset="0" stop-color="#fff" stop-opacity="0.4"/><stop offset="0.998" stop-color="#fff" stop-opacity="0"/></radialGradient></defs><g transform="translate(-1228 -9061)"><rect class="a" width="32" height="32" transform="translate(1228 9061)"/><g transform="translate(1226.524 9060.516)"><path class="b" d="M24.785,29.484,7.859,29c-2.049-.088-4.412-2.525-4.383-4.559L3.557,7.436c.03-2.041,2.348-3.973,4.391-3.952l16.7.614c2.034.03,4.369,1.91,4.34,3.945V25.409a4.088,4.088,0,0,1-4.2,4.076Z" transform="translate(0 0)"/><path class="c" d="M131.5,973.686l2.693-.651a4.3,4.3,0,0,0,.922,1.442,3.687,3.687,0,0,0,2.158.431,1.245,1.245,0,0,0,1.1-1.149.977.977,0,0,0-.608-.988,9.5,9.5,0,0,0-1.544-.534,9.438,9.438,0,0,1-2.766-1.083,3.488,3.488,0,0,1-1.156-2.583,3.721,3.721,0,0,1,.446-1.815A4.01,4.01,0,0,1,136.286,965a4.98,4.98,0,0,1,3.519,1.075,9.03,9.03,0,0,1,1.273,1.808l-2.459.885a2.147,2.147,0,0,0-2.254-1.64c-1.062,0-1.31.674-1.31,1.075s.234.885,1.244,1.149a14.885,14.885,0,0,1,3.476,1.192,3.445,3.445,0,0,1,1.529,2.81,3.259,3.259,0,0,1-.9,2.371,4.493,4.493,0,0,1-3.578,1.508,5.565,5.565,0,0,1-5.326-3.549Zm18.711-.307s.4-5.005-4.274-5.005c-4.229,0-4.069,4.34-4.069,4.639a4.275,4.275,0,0,0,4.3,4.464,3.794,3.794,0,0,0,4.039-3l-2.437-.286c-.117.307-.358,1.412-1.5,1.412a1.623,1.623,0,0,1-1.6-1.222,4.725,4.725,0,0,1-.066-1Zm-5.62-1.45s-.066-1.9,1.574-1.9,1.529,1.9,1.529,1.9Z" transform="translate(-126.568 -950.576)"/><path class="d" d="M84.5,112.224v8.422s1,4.449,4.112,4.536,14.768.563,15.821.512a4.614,4.614,0,0,0,3.828-4.31v-8.333a4.73,4.73,0,0,0-4.508-4.932c-3.57-.168-13.6-.424-14.737-.424-1.852-.008-4.516.7-4.516,4.53Z" transform="translate(-80.102 -103.024)"/><path class="e" d="M1035.1,39.752l4.91,6.184,11.569-9.63-1.6-3.205-9.608,8.181-3.425-3.871Z" transform="translate(-1019.886 -29.279)"/><path class="f" d="M1058.9,271.616l4.794,4.346,7.852-6.184-.907-2.079-6.754,5.752-3.4-3.834Z" transform="translate(-1043.415 -261.21)"/></g></g></svg>