<svg xmlns="http://www.w3.org/2000/svg" width="32" height="32" viewBox="0 0 32 32"><defs><style>.a{fill:#95bf46;}.b{fill:#5e8e3e;}.c{fill:#fff;}.d{fill:none;}</style></defs><g transform="translate(-570 -9253)"><g transform="translate(574.962 9254.901)"><path class="a" d="M19.607,5.726a.246.246,0,0,0-.222-.206L17.34,5.367s-1.356-1.347-1.505-1.5a.617.617,0,0,0-.553-.07l-.759.234c-.453-1.3-1.253-2.5-2.659-2.5-.039,0-.079,0-.119,0A1.709,1.709,0,0,0,10.421.779c-3.277,0-4.842,4.1-5.333,6.178l-2.293.711c-.711.223-.733.245-.827.915C1.9,9.09.038,23.472.038,23.472l14.491,2.715,7.852-1.7S19.624,5.854,19.607,5.726ZM13.722,4.284l-1.226.38c0-.086,0-.171,0-.264a6.014,6.014,0,0,0-.293-1.98C12.929,2.51,13.411,3.335,13.722,4.284ZM11.3,2.58a6.078,6.078,0,0,1,.333,2.207c0,.05,0,.1,0,.142L9.1,5.713A4.33,4.33,0,0,1,11.3,2.58Zm-.974-.922a.74.74,0,0,1,.42.142C9.7,2.294,8.575,3.539,8.1,6.024l-2,.62c.557-1.9,1.879-4.986,4.233-4.986Z" transform="translate(0 0)"/><path class="b" d="M170.579,36.786l-2.045-.152s-1.356-1.347-1.505-1.5a.372.372,0,0,0-.209-.1l-1.1,22.411,7.851-1.7S170.819,37.12,170.8,36.992a.246.246,0,0,0-.222-.206" transform="translate(-151.194 -31.266)"/><path class="c" d="M47.619,100.626l-.968,2.88a4.454,4.454,0,0,0-1.888-.453c-1.524,0-1.6.957-1.6,1.2,0,1.315,3.429,1.819,3.429,4.9,0,2.424-1.537,3.985-3.61,3.985a5.023,5.023,0,0,1-3.76-1.548l.666-2.2A4.761,4.761,0,0,0,42.3,110.51a.973.973,0,0,0,1.014-.982c0-1.716-2.813-1.792-2.813-4.611,0-2.373,1.7-4.669,5.141-4.669a4.229,4.229,0,0,1,1.979.379" transform="translate(-35.756 -90.768)"/></g><rect class="d" width="32" height="32" transform="translate(570 9253)"/></g></svg>