<svg xmlns="http://www.w3.org/2000/svg" width="32" height="32" viewBox="0 0 32 32"><defs><style>.a{fill:none;}.b{fill:#464342;}</style></defs><g transform="translate(-570 -9207)"><rect class="a" width="32" height="32" transform="translate(570 9207)"/><path class="b" d="M1.654,11.634a9.982,9.982,0,0,0,5.625,8.982L2.518,7.572a9.943,9.943,0,0,0-.864,4.062Zm16.718-.5a5.255,5.255,0,0,0-.823-2.752,4.671,4.671,0,0,1-.98-2.34,1.728,1.728,0,0,1,1.676-1.772c.044,0,.086.005.129.008A9.978,9.978,0,0,0,3.3,6.152c.234.007.455.012.642.012,1.044,0,2.66-.127,2.66-.127a.412.412,0,0,1,.064.822s-.541.064-1.142.1L9.154,17.766l2.184-6.551L9.783,6.955c-.537-.031-1.047-.1-1.047-.1A.412.412,0,0,1,8.8,6.037s1.648.127,2.629.127c1.044,0,2.66-.127,2.66-.127a.412.412,0,0,1,.064.822s-.542.064-1.142.1l3.607,10.729,1-3.327a12.059,12.059,0,0,0,.76-3.226Zm-6.562,1.377-2.995,8.7a9.986,9.986,0,0,0,6.134-.159.876.876,0,0,1-.071-.138Zm8.582-5.661a7.663,7.663,0,0,1,.067,1.026,9.414,9.414,0,0,1-.759,3.575l-3.049,8.814a9.982,9.982,0,0,0,3.74-13.415ZM11.634,0A11.634,11.634,0,1,0,23.269,11.634,11.647,11.647,0,0,0,11.634,0Zm0,22.735a11.1,11.1,0,1,1,11.1-11.1A11.114,11.114,0,0,1,11.634,22.735Z" transform="translate(574 9211)"/></g></svg>