<svg xmlns="http://www.w3.org/2000/svg" width="32" height="32" viewBox="0 0 32 32"><defs><style>.a{fill:none;}.b{fill:#3498db;}</style></defs><g transform="translate(-357 -9113)"><rect class="a" width="32" height="32" transform="translate(357 9113)"/><path class="b" d="M7.458,0A2.051,2.051,0,0,0,5.725,1L.259,10.5a2.065,2.065,0,0,0,0,2L5.725,22a2.051,2.051,0,0,0,1.733,1H18.391a2.051,2.051,0,0,0,1.733-1l5.466-9.5a2.066,2.066,0,0,0,0-2L20.124,1a2.051,2.051,0,0,0-1.733-1Zm.1,5.555a.232.232,0,0,1,.046,0H9.489a.249.249,0,0,1,.206.122l3.2,5.7a.243.243,0,0,1,.03.092.247.247,0,0,1,.03-.092l3.191-5.7a.249.249,0,0,1,.214-.122h1.886a.258.258,0,0,1,.214.36L15.337,11.5l3.122,5.578a.258.258,0,0,1-.214.367H16.36a.249.249,0,0,1-.214-.13l-3.191-5.7a.245.245,0,0,1-.03-.092.245.245,0,0,1-.03.092l-3.2,5.7a.249.249,0,0,1-.206.13H7.6a.258.258,0,0,1-.214-.367L10.512,11.5,7.39,5.914a.257.257,0,0,1,.168-.36Z" transform="translate(360 9118)"/></g></svg>