<svg xmlns="http://www.w3.org/2000/svg" width="73.442" height="46.191" viewBox="0 0 73.442 46.191"><defs><style>.a{fill:#fff;}</style></defs><g transform="translate(0 0)"><g transform="translate(0 0)"><g transform="translate(41.419 14.169)"><path class="a" d="M314.732,239.042a.618.618,0,0,0-.022-.8l-1.545-1.715.9-3.028,2.23-.6a.617.617,0,0,0,.453-.662l-.571-5.386a.617.617,0,0,0-.584-.55l-2.3-.12-1.509-2.776,1.153-2a.618.618,0,0,0-.147-.789h0l-4.209-3.407a.617.617,0,0,0-.8.021l-1.715,1.545-3.029-.894-.6-2.232a.616.616,0,0,0-.661-.453l-5.387.571a.617.617,0,0,0-.55.585l-.12,2.3-2.776,1.512-2-1.152a.618.618,0,0,0-.79.145l-3.407,4.209a.618.618,0,0,0,.021.8l1.545,1.715-.9,3.028-2.23.6a.619.619,0,0,0-.454.662l.571,5.386a.618.618,0,0,0,.582.552l2.3.12L289.692,239l-1.152,2a.617.617,0,0,0,.147.787h0L292.9,245.2a.618.618,0,0,0,.8-.022l1.716-1.545,3.027.9.6,2.23a.617.617,0,0,0,.662.453l5.386-.571a.618.618,0,0,0,.552-.582l.12-2.3,2.775-1.509,2,1.152a.618.618,0,0,0,.789-.147ZM308.856,241a.617.617,0,0,0-.6-.007l-3.385,1.838a.618.618,0,0,0-.319.512l-.111,2.123-4.336.459-.555-2.056a.619.619,0,0,0-.42-.434l-3.691-1.091a.618.618,0,0,0-.589.133l-1.58,1.423-3.389-2.743,1.061-1.842a.618.618,0,0,0,.007-.6l-1.837-3.384a.619.619,0,0,0-.512-.32l-2.124-.108-.458-4.336,2.053-.552a.618.618,0,0,0,.434-.42l1.092-3.691a.618.618,0,0,0-.133-.589l-1.423-1.58,2.743-3.389,1.842,1.061a.618.618,0,0,0,.6.007l3.384-1.837a.62.62,0,0,0,.32-.512l.107-2.124,4.337-.459.553,2.054a.616.616,0,0,0,.419.434l3.691,1.091a.616.616,0,0,0,.588-.133l1.58-1.424,3.389,2.743-1.061,1.842a.616.616,0,0,0-.007.6l1.837,3.384a.618.618,0,0,0,.512.319l2.123.111.458,4.337-2.052.549a.616.616,0,0,0-.434.42l-1.092,3.691a.618.618,0,0,0,.133.588l1.423,1.581-2.743,3.389Z" transform="translate(-284.723 -215.191)"/></g><g transform="translate(51.519 24.547)"><path class="a" d="M304.1,240.629a5.683,5.683,0,1,1,3.583-10.1h0a5.682,5.682,0,0,1-3.583,10.1Zm.01-10.109a4.427,4.427,0,1,0,2.783.984A4.425,4.425,0,0,0,304.108,230.519Z" transform="translate(-298.423 -229.266)"/></g><path class="a" d="M269.22,217.65l-.728-6.891a.638.638,0,0,0-.608-.577l-3.031-.158-2.008-3.7.042-.071,1.476-2.557a.641.641,0,0,0-.156-.82l-5.386-4.36a.64.64,0,0,0-.832.021l-2.255,2.031-4.033-1.192-.793-2.927a.629.629,0,0,0-.689-.473l-6.889.728a.641.641,0,0,0-.575.605l-.157,3.031-3.7,2.008-2.631-1.514a.64.64,0,0,0-.818.153l-4.36,5.386a.642.642,0,0,0,.02.833l2.032,2.255L231.95,213.5l-2.927.793a.638.638,0,0,0-.472.688l.728,6.89a.639.639,0,0,0,.605.575l3.03.158,2.008,3.7-.041.072-1.474,2.558a.64.64,0,0,0,.155.818l5.384,4.36a.642.642,0,0,0,.834-.02l2.255-2.032,4.033,1.192.788,2.932a.631.631,0,0,0,.689.472l6.89-.728a.639.639,0,0,0,.574-.605l.159-3.031,3.7-2.008.072.041,2.558,1.473a.64.64,0,0,0,.819-.154l4.361-5.391a.638.638,0,0,0-.021-.832l-2.031-2.256,1.191-4.032,2.932-.79A.638.638,0,0,0,269.22,217.65Zm-4.088.327a.64.64,0,0,0-.449.439l-1.4,4.722a.646.646,0,0,0,.14.613l1.9,2.115-3.669,4.533-2.466-1.423a.644.644,0,0,0-.627-.007l-4.328,2.353a.636.636,0,0,0-.335.53l-.149,2.842-.125.013-5.674.6-.739-2.746a.649.649,0,0,0-.438-.45l-4.722-1.4a.646.646,0,0,0-.612.14l-2.116,1.9-4.533-3.67,1.422-2.465a.649.649,0,0,0,.007-.628l-2.353-4.327a.637.637,0,0,0-.531-.335l-2.842-.149-.013-.125-.6-5.673,2.75-.74a.646.646,0,0,0,.448-.438l1.4-4.724a.646.646,0,0,0-.139-.613l-1.905-2.115,3.67-4.532,2.466,1.422a.648.648,0,0,0,.627.007l4.328-2.353a.647.647,0,0,0,.335-.532l.147-2.842.125-.014,5.675-.6.74,2.749a.64.64,0,0,0,.437.45l4.723,1.4a.653.653,0,0,0,.613-.139l2.115-1.905,4.532,3.669L261.548,206a.646.646,0,0,0-.007.627l2.353,4.328a.638.638,0,0,0,.531.335l2.841.149.014.125.6,5.674Z" transform="translate(-228.547 -195.973)"/><g transform="translate(12.755 12.742)"><path class="a" d="M253.17,228.657a7.3,7.3,0,0,1-7.3-6.761,8.046,8.046,0,0,1,6.945-8.578,7.316,7.316,0,0,1,5.584,1.561,7.681,7.681,0,0,1,.921,10.805,7.933,7.933,0,0,1-5.177,2.911A7.68,7.68,0,0,1,253.17,228.657Zm.624-14.148a6.5,6.5,0,0,0-.816.052,6.794,6.794,0,0,0-5.854,7.232,6.056,6.056,0,0,0,6.866,5.558,6.684,6.684,0,0,0,4.36-2.457,6.425,6.425,0,0,0-.735-9.041A6.028,6.028,0,0,0,253.794,214.509Z" transform="translate(-245.847 -213.255)"/></g></g></g></svg>