<svg xmlns="http://www.w3.org/2000/svg" width="50.51" height="50.504" viewBox="0 0 50.51 50.504"><defs><style>.a{fill:#fff;}</style></defs><path class="a" d="M238.594,160.62a3.333,3.333,0,0,0,.229-6.424v.057l-.269-.134.059-.164h-.159V140.943a.628.628,0,0,0-.627-.627h-5.413a.627.627,0,1,0,0,1.253H237.2V154.1l-.142.034a3.334,3.334,0,1,0,1.537,6.487Zm-.766-5.321a2.078,2.078,0,1,1,0,4.156h0a2.078,2.078,0,1,1,0-4.157Z" transform="translate(-216.899 -110.207)"/><g transform="translate(23.547 30.109)"><path class="a" d="M250.338,160.62a3.334,3.334,0,0,0,.229-6.424v.057l-.269-.134.059-.164H250.2V140.943a.628.628,0,0,0-.626-.627h-5.415a.627.627,0,0,0,0,1.253h4.784V154.1l-.142.034a3.334,3.334,0,1,0,1.537,6.487Zm-.765-5.321a2.078,2.078,0,0,1,.4,4.116l.04.04h-.444a2.078,2.078,0,1,1,0-4.157Z" transform="translate(-243.531 -140.316)"/></g><g transform="translate(32.207 30.109)"><path class="a" d="M261.315,152.591h2.677l.034.142a3.333,3.333,0,1,0,3.327-4.1h-.083a3.328,3.328,0,0,0-3.243,2.564l-.034.142h-2.05V140.943a.628.628,0,0,0-.626-.627H255.9a.627.627,0,1,0,0,1.253h4.784v10.4A.627.627,0,0,0,261.315,152.591Zm5.955-2.7a2.078,2.078,0,1,1-2.078,2.078A2.08,2.08,0,0,1,267.27,149.887Z" transform="translate(-255.277 -140.316)"/></g><g transform="translate(0 0)"><path class="a" d="M253.087,130.839h.445a8.574,8.574,0,0,0,8.573-8.573,8.6,8.6,0,0,0-1.8-5.259l-.09-.111a8.6,8.6,0,0,0-4.145-2.815l-.123-.038-.007-.128a15.185,15.185,0,0,0-28.112-7.187l-.074.122-.138-.043a6.834,6.834,0,0,0-8.566,4.474c-.061.2-.114.4-.159.6l-.024.111-.109.029a9.565,9.565,0,0,0,2.406,18.823h2.073v9.766h-2.048l-.034-.142a3.333,3.333,0,1,0,0,1.537l.033-.142h2.677a.627.627,0,0,0,.627-.627v-11.02a.628.628,0,0,0-.627-.627h-2.7a8.311,8.311,0,0,1-1.625-16.461.624.624,0,0,0,.5-.534,5.575,5.575,0,0,1,7.739-4.388.625.625,0,0,0,.8-.272,13.93,13.93,0,0,1,26.126,6.6.623.623,0,0,0,.485.606,7.319,7.319,0,0,1-1.655,14.446h-.443a.627.627,0,0,0,0,1.253ZM217.91,143.315a2.078,2.078,0,1,1,2.078-2.078A2.08,2.08,0,0,1,217.91,143.315Z" transform="translate(-211.595 -99.478)"/></g></svg>