<svg xmlns="http://www.w3.org/2000/svg" width="140" height="140" viewBox="0 0 140 140">
  <g id="Group_121819" data-name="Group 121819" transform="translate(-19401 7363)">
    <rect id="Rectangle_13470" data-name="Rectangle 13470" width="140" height="140" transform="translate(19401 -7363)" fill="none"/>
    <path id="Path_196474" data-name="Path 196474" d="M169.479,109.608c-1.552-9.647-10.534-16.189-18.628-15.856-7.984-20.513-37.589-20.07-44.8.555a19.1,19.1,0,0,0-22.842,15.745,17.13,17.13,0,0,0-11.532,16.3,17.344,17.344,0,0,0,17.409,17.3h31.823a12.707,12.707,0,0,0,10.534,10.756l-.887.887a1.878,1.878,0,0,0,0,2.55,1.619,1.619,0,0,0,2.439,0l4.99-4.99-4.99-4.99a1.8,1.8,0,0,0-2.55,2.55l.222.222a9.32,9.32,0,1,1,12.2-8.871,12.84,12.84,0,0,0,25.614,1.331,17.32,17.32,0,0,0,13.306-16.743,16.408,16.408,0,0,0-12.307-16.745Zm-1,29.938a12.724,12.724,0,0,0-10.423-10.423l.887-.887a1.8,1.8,0,1,0-2.55-2.55l-4.879,4.99,4.99,4.99a1.619,1.619,0,0,0,2.439,0,1.878,1.878,0,0,0,0-2.55l-.221-.222a9.32,9.32,0,1,1-12.2,8.871,12.853,12.853,0,0,0-25.614-1.552H89.089a13.951,13.951,0,0,1-3.77-27.388,1.779,1.779,0,0,0,1.22-1.552,15.411,15.411,0,0,1,20.07-13.306,1.609,1.609,0,0,0,2.107-1.22c5.322-19.294,32.821-19.848,39.031-.665a1.688,1.688,0,0,0,1.885,1.22c6.764-1,15.413,4.99,16.189,13.86a1.9,1.9,0,0,0,1.33,1.552,13.715,13.715,0,0,1,11.2,13.638,13.573,13.573,0,0,1-9.869,13.194ZM128.119,92.532a12.009,12.009,0,0,0-11.421,8.649,1.77,1.77,0,0,0,1.22,2.107,1.694,1.694,0,0,0,2.107-1,8.418,8.418,0,0,1,8.094-6.209,1.688,1.688,0,0,0,1.774-1.774,1.632,1.632,0,0,0-1.774-1.774Z" transform="translate(19344.254 -7411.499)" fill="#e41e29" stroke="#e41e29" stroke-width="0.5"/>
  </g>
</svg>
