<?xml version="1.0" encoding="UTF-8"?><svg id="Layer_2" xmlns="http://www.w3.org/2000/svg" viewBox="0 0 104.53 60.33"><defs><style>.cls-1{fill:#e41e28;}</style></defs><g id="Layer_1-2"><path class="cls-1" d="M27.83,15.91h-1.74V5.95c0-.79,.05-1.75,.14-2.88h-.03c-.16,.66-.32,1.14-.45,1.43l-5.06,11.4h-.85L14.77,4.59c-.14-.32-.29-.83-.44-1.52h-.04c.05,.59,.08,1.56,.08,2.89V15.91h-1.68V1.07h2.29l4.55,10.35c.34,.78,.56,1.37,.67,1.77h.07c.3-.81,.54-1.42,.71-1.82L25.65,1.07h2.18V15.91Zm5.36,0h-1.69V5.32h1.69V15.91Zm.29-14.39c0,.31-.11,.57-.33,.79-.22,.21-.48,.32-.79,.32s-.57-.1-.78-.31c-.21-.21-.32-.47-.32-.8,0-.3,.11-.57,.32-.78,.21-.21,.48-.32,.78-.32s.57,.1,.79,.32c.22,.21,.33,.47,.33,.78m10.28,13.91c-.81,.5-1.78,.75-2.9,.75-1.52,0-2.74-.5-3.68-1.51-.91-.98-1.36-2.24-1.36-3.79,0-1.74,.5-3.14,1.5-4.21,1-1.07,2.33-1.6,4.02-1.6,.92,0,1.73,.18,2.45,.54v1.74c-.79-.55-1.62-.83-2.52-.83-1.08,0-1.96,.38-2.64,1.12-.71,.77-1.07,1.8-1.07,3.08s.33,2.21,.98,2.93c.65,.72,1.52,1.08,2.62,1.08,.93,0,1.79-.31,2.61-.91v1.61Zm8.09-8.39c-.3-.23-.73-.34-1.3-.34-.69,0-1.26,.31-1.73,.93-.53,.69-.8,1.66-.8,2.89v5.4h-1.69V5.32h1.69v2.18h.04c.25-.77,.64-1.37,1.15-1.79,.48-.39,1.03-.58,1.62-.58,.45,0,.79,.05,1.02,.14v1.76Zm9.45,3.6c0-1.36-.31-2.4-.92-3.11-.59-.68-1.43-1.02-2.5-1.02s-1.9,.35-2.53,1.04c-.67,.74-1,1.78-1,3.14,0,1.27,.32,2.26,.96,2.97,.64,.71,1.5,1.07,2.57,1.07s1.97-.36,2.55-1.08c.57-.71,.86-1.71,.86-3m1.74-.06c0,1.69-.48,3.04-1.43,4.06-.96,1.02-2.24,1.53-3.86,1.53s-2.85-.51-3.78-1.53c-.91-.98-1.37-2.28-1.37-3.9,0-1.84,.52-3.26,1.55-4.27,.96-.94,2.24-1.41,3.85-1.41s2.81,.5,3.7,1.47c.88,.98,1.33,2.33,1.33,4.05m8.41,2.5c0,.87-.32,1.58-.97,2.16-.71,.62-1.68,.93-2.91,.93-1,0-1.88-.21-2.63-.64v-1.82c.83,.68,1.75,1.02,2.75,1.02,1.34,0,2.01-.5,2.01-1.48,0-.41-.15-.76-.45-1.02-.3-.27-.88-.59-1.74-.97-.89-.39-1.52-.79-1.89-1.2-.45-.49-.67-1.13-.67-1.92,0-.88,.35-1.61,1.05-2.19,.7-.59,1.59-.88,2.69-.88,.84,0,1.59,.16,2.26,.5v1.71c-.7-.5-1.5-.76-2.41-.76-.56,0-1.01,.14-1.35,.41-.34,.28-.51,.63-.51,1.07,0,.47,.14,.84,.42,1.1,.25,.24,.79,.53,1.59,.88,.91,.38,1.56,.77,1.96,1.17,.52,.51,.78,1.16,.78,1.95m10.37-2.45c0-1.36-.31-2.4-.92-3.11-.59-.68-1.43-1.02-2.49-1.02s-1.9,.35-2.54,1.04c-.67,.74-1,1.78-1,3.14,0,1.27,.32,2.26,.95,2.97,.64,.71,1.5,1.07,2.58,1.07s1.97-.36,2.56-1.08c.57-.71,.86-1.71,.86-3m1.74-.06c0,1.69-.48,3.04-1.43,4.06-.95,1.02-2.23,1.53-3.85,1.53s-2.86-.51-3.78-1.53c-.91-.98-1.37-2.28-1.37-3.9,0-1.84,.52-3.26,1.55-4.27,.96-.94,2.24-1.41,3.85-1.41s2.81,.5,3.7,1.47c.89,.98,1.34,2.33,1.34,4.05m7.47-8.86c-.33-.18-.7-.28-1.12-.28-1.19,0-1.78,.75-1.78,2.25v1.63h2.48v1.44h-2.48V15.91h-1.7V6.75h-1.8v-1.44h1.8v-1.72c0-1.16,.36-2.08,1.08-2.74,.62-.57,1.39-.86,2.29-.86,.53,0,.93,.06,1.23,.18V1.71Zm6.69,14.09c-.4,.23-.93,.34-1.59,.34-1.85,0-2.77-1.04-2.77-3.13V6.75h-1.82v-1.44h1.82V2.73c.54-.17,1.1-.36,1.7-.55v3.14h2.66v1.44h-2.66v5.98c0,.71,.11,1.21,.36,1.51,.24,.3,.64,.45,1.21,.45,.42,0,.79-.11,1.09-.34v1.45ZM6.05,57.27c0,.83-.29,1.55-.89,2.16-.59,.6-1.32,.91-2.17,.91s-1.54-.3-2.12-.91c-.58-.61-.87-1.32-.87-2.16s.29-1.57,.87-2.17c.58-.6,1.29-.9,2.12-.9s1.57,.3,2.17,.91c.6,.61,.89,1.33,.89,2.16m37.98,2.44h-5.53L18.41,28.7c-.47-.75-.88-1.56-1.22-2.44h-.16c.14,.83,.22,2.61,.22,5.34v28.11h-4.56V20.8h5.92l19.48,30.52c.78,1.21,1.31,2.08,1.58,2.6h.11c-.18-1.12-.27-3.03-.27-5.72V20.8h4.53V59.71Zm29.24,0h-20.62V20.8h19.72v4.12h-15.17v12.94h14.05v4.12h-14.05v13.59h16.07v4.12Zm31.27-34.78h-11.21V59.71h-4.56V24.93h-11.23v-4.12h26.99v4.12Z"/></g></svg>