<svg xmlns="http://www.w3.org/2000/svg" width="59.344" height="72.72" viewBox="0 0 59.344 72.72"><defs><style>.a{fill:none;stroke:#e41e28;stroke-miterlimit:10;stroke-width:2px;}</style></defs><g transform="translate(-650.964 673.703)"><path class="a" d="M709.064-623.571a1.477,1.477,0,0,0-1.041-.66,10.246,10.246,0,0,1-8.832-11.486,10.247,10.247,0,0,1,7.109-8.454,1.473,1.473,0,0,0,.953-1.853,1.423,1.423,0,0,0-.161-.342,17.188,17.188,0,0,0-12.4-8.657,24.248,24.248,0,0,0-7.717,1.653,18.658,18.658,0,0,1-5.543,1.293,18.645,18.645,0,0,1-5.542-1.293,24.248,24.248,0,0,0-7.718-1.653c-5.5,0-16.206,7.8-16.206,22.1,0,13.59,9.912,30.94,17.68,30.94a18.8,18.8,0,0,0,8.545-1.968,8.1,8.1,0,0,1,3.241-.979,8.1,8.1,0,0,1,3.242.979,18.8,18.8,0,0,0,8.545,1.968c6.159,0,13.11-10.573,16.021-20.37A1.476,1.476,0,0,0,709.064-623.571Z"/><path class="a" d="M679.957-655.023a16.225,16.225,0,0,0,16.206-16.207,1.473,1.473,0,0,0-1.473-1.473A16.225,16.225,0,0,0,678.483-656.5,1.474,1.474,0,0,0,679.957-655.023Z"/></g></svg>