<svg xmlns="http://www.w3.org/2000/svg" width="35.169" height="53.601" viewBox="0 0 35.169 53.601"><defs><style>.a{fill:#fff;}</style></defs><g transform="translate(0 0)"><path class="a" d="M168.788,259.838H140.771a3.58,3.58,0,0,1-3.576-3.575v-46.45a3.58,3.58,0,0,1,3.576-3.576h28.017a3.58,3.58,0,0,1,3.576,3.576v46.45A3.58,3.58,0,0,1,168.788,259.838ZM140.771,207.49a2.325,2.325,0,0,0-2.322,2.323v46.45a2.325,2.325,0,0,0,2.322,2.323h28.017a2.325,2.325,0,0,0,2.323-2.323v-46.45a2.325,2.325,0,0,0-2.323-2.323Z" transform="translate(-137.195 -206.237)"/><g transform="translate(14.746 43.501)"><path class="a" d="M160.4,271.651a3.207,3.207,0,1,1,3.207-3.207A3.21,3.21,0,0,1,160.4,271.651Zm0-5.161a1.954,1.954,0,1,0,1.954,1.955A1.957,1.957,0,0,0,160.4,266.49Z" transform="translate(-157.195 -265.237)"/></g></g></svg>