<svg xmlns="http://www.w3.org/2000/svg" width="260.02" height="76.716" viewBox="0 0 260.02 76.716">
  <g id="Group_73237" data-name="Group 73237" transform="translate(-782.98 -413.001)">
    <g id="Group_73238" data-name="Group 73238" transform="translate(782.98 413.001)">
      <g id="nodejs-icon" transform="translate(65.162 0)">
        <path id="Path_24781" data-name="Path 24781" d="M32.27,1.4a6.433,6.433,0,0,1,6.28,0q14.342,8.1,28.686,16.2a5.905,5.905,0,0,1,2.983,5.086V55.2a5.969,5.969,0,0,1-3.205,5.2q-14.3,8.06-28.584,16.126a6.251,6.251,0,0,1-6.35-.177q-4.286-2.484-8.577-4.959a5.049,5.049,0,0,1-1.654-1.191c.364-.491,1.016-.552,1.546-.767a20.018,20.018,0,0,0,3.384-1.579.79.79,0,0,1,.881.053c2.443,1.4,4.865,2.842,7.316,4.23.523.3,1.052-.1,1.5-.348Q50.5,63.853,64.541,55.943a.928.928,0,0,0,.51-.914q.01-16.084,0-32.17a1,1,0,0,0-.6-1Q50.21,13.833,35.971,5.8a.989.989,0,0,0-1.119,0Q20.609,13.827,6.371,21.861a.993.993,0,0,0-.6,1q0,16.084,0,32.172a.91.91,0,0,0,.516.9q3.8,2.155,7.607,4.3a5.878,5.878,0,0,0,4.756.637,3.608,3.608,0,0,0,2.336-3.39c.013-10.66-.007-21.322.01-31.981a.8.8,0,0,1,.874-.82c1.218-.008,2.437-.016,3.654,0a.843.843,0,0,1,.8.975c0,10.728.013,21.456-.008,32.183,0,2.859-1.171,5.97-3.816,7.369a11.752,11.752,0,0,1-10.5-.289C9.2,63.526,6.544,61.885,3.807,60.4A5.955,5.955,0,0,1,.6,55.2V22.692a5.916,5.916,0,0,1,3.085-5.15Q17.981,9.476,32.27,1.4Z" transform="translate(-0.603 -0.584)" fill="#e41e28"/>
        <path id="Path_24782" data-name="Path 24782" d="M116.3,85.708c4.156-.267,8.6-.158,12.344,1.889a9.335,9.335,0,0,1,4.552,8.078.874.874,0,0,1-.949.643c-1.206,0-2.412.016-3.618-.008a.932.932,0,0,1-.873-.9,5.507,5.507,0,0,0-2.634-3.806c-2.224-1.113-4.8-1.057-7.227-1.034a9.811,9.811,0,0,0-5.174,1.288,3.278,3.278,0,0,0-1.09,3.662c.387.921,1.45,1.217,2.319,1.491,5.008,1.31,10.315,1.18,15.228,2.9a7.169,7.169,0,0,1,4.72,4.2,8.969,8.969,0,0,1-1.519,8.557,11.991,11.991,0,0,1-6.437,3.469,30.926,30.926,0,0,1-9.716.413c-3.039-.346-6.2-1.145-8.547-3.215a8.969,8.969,0,0,1-2.889-7.075.81.81,0,0,1,.887-.715c1.214-.01,2.428-.013,3.643,0a.851.851,0,0,1,.869.842,5.519,5.519,0,0,0,2.054,3.875c2.468,1.592,5.564,1.483,8.39,1.528,2.341-.1,4.969-.135,6.879-1.683a3.8,3.8,0,0,0,1.034-3.629c-.3-1.072-1.417-1.572-2.38-1.9-4.944-1.564-10.311-1-15.207-2.765a7.4,7.4,0,0,1-4.674-4.073,8.342,8.342,0,0,1,1.666-8.679c2.187-2.2,5.345-3.05,8.347-3.354Z" transform="translate(-76.315 -62.373)" fill="#e41e28"/>
      </g>
      <path id="Path_28279" data-name="Path 28279" d="M67.005-85.98v69.151H62.324a4.023,4.023,0,0,1-1.858-.386,4.691,4.691,0,0,1-1.472-1.3l-40-52.117q.1,1.206.145,2.365t.048,2.172v49.269h-8.2V-85.98h4.826a6.593,6.593,0,0,1,1.062.072,2.717,2.717,0,0,1,.772.241,2.933,2.933,0,0,1,.676.483,7.4,7.4,0,0,1,.724.8l40,52.068q-.1-1.255-.169-2.437T58.8-37V-85.98Z" transform="translate(-10.98 89.213)" fill="#e41e28"/>
      <path id="Path_28278" data-name="Path 28278" d="M70.914-51.38a38.94,38.94,0,0,1-2.461,14.139A31.357,31.357,0,0,1,61.5-26.335a30.933,30.933,0,0,1-10.785,7.021A37.617,37.617,0,0,1,36.8-16.829H10.98V-85.98H36.8a37.617,37.617,0,0,1,13.922,2.485A30.765,30.765,0,0,1,61.5-76.449a31.609,31.609,0,0,1,6.949,10.93A38.94,38.94,0,0,1,70.914-51.38Zm-9.6,0a34.707,34.707,0,0,0-1.737-11.388,24,24,0,0,0-4.922-8.493,20.993,20.993,0,0,0-7.721-5.308A26.819,26.819,0,0,0,36.8-78.4H20.342v54H36.8a26.818,26.818,0,0,0,10.134-1.834,21.129,21.129,0,0,0,7.721-5.284,23.752,23.752,0,0,0,4.922-8.469A34.707,34.707,0,0,0,61.311-51.38Zm65.725,26.927-.048,7.624H84.378V-85.98h42.61v7.624H93.739v22.97h26.927v7.335H93.739v23.6Z" transform="translate(132.984 89.213)" fill="#e41e28"/>
    </g>
  </g>
</svg>
