<svg id="php" xmlns="http://www.w3.org/2000/svg" width="115.468" height="115.468" viewBox="0 0 115.468 115.468">
  <path id="Path_49338" data-name="Path 49338" d="M115.468,57.734A57.74,57.74,0,0,1,7.694,86.547,57.752,57.752,0,1,1,115.468,57.734Z" fill="#e41e28"/>
  <g id="Group_73948" data-name="Group 73948" transform="translate(2.036 27.845)">
    <path id="Path_49339" data-name="Path 49339" d="M36.349,178.239H15.086L9.028,211.022a57.284,57.284,0,0,0,5.658,13.566h1.972l2.347-12.7H30.689c14.226,0,18.051-12.772,18.967-19.045A13.015,13.015,0,0,0,36.349,178.239ZM39.434,193.9c-.521,3.556-3.148,10.8-11.212,10.8H20.334l3.525-19.08h8.029C39.714,185.622,39.954,190.349,39.434,193.9Z" transform="translate(-9.028 -165.887)" fill="#f2f2f2"/>
    <path id="Path_49340" data-name="Path 49340" d="M377.4,179.727a13.91,13.91,0,0,0-6.45-1.489H349.683l-8.566,46.35h10.137l2.347-12.7h11.683c6.327,0,10.6-2.526,13.465-5.884a58.173,58.173,0,0,0-1.355-26.28ZM374.03,193.9c-.521,3.556-3.148,10.8-11.215,10.8h-7.885l3.525-19.08h8.029C374.311,185.621,374.551,190.348,374.03,193.9Z" transform="translate(-266.223 -165.886)" fill="#f2f2f2"/>
    <path id="Path_49341" data-name="Path 49341" d="M210.8,135.973H198.491l2.311-12.505h-10.1l-8.566,46.349h10.1l4.926-26.654h6.452c4.283,0,7.189.918,6.577,4.895s-4.13,21.568-4.13,21.568H216.31s3.977-19.579,4.589-25.086S216.463,135.973,210.8,135.973Z" transform="translate(-143.099 -123.468)" fill="#f2f2f2"/>
  </g>
</svg>
