<svg xmlns="http://www.w3.org/2000/svg" width="56.348" height="50.27" viewBox="0 0 56.348 50.27"><defs><style>.a{fill:#fff;}</style></defs><path class="a" d="M47.73,19.508A12.122,12.122,0,0,0,31.109,8.252V2.589A2.592,2.592,0,0,0,28.52,0H17.371a.828.828,0,0,0,0,1.657H28.52a.933.933,0,0,1,.932.932V9.534a.241.241,0,0,0,0,.025v3.936a.933.933,0,0,1-.932.932H23.149a1.39,1.39,0,0,0-.988.409L20.026,16.97l-2.134-2.134a1.389,1.389,0,0,0-.988-.409H11.533a.933.933,0,0,1-.932-.932V2.589a.933.933,0,0,1,.932-.932h2.505a.828.828,0,0,0,0-1.657H11.533A2.592,2.592,0,0,0,8.944,2.589V13.5a2.592,2.592,0,0,0,2.589,2.589H16.8l2.242,2.242a1.4,1.4,0,0,0,1.977,0l2.242-2.242h.721a12.18,12.18,0,0,0,.225,7.537H3.405A3.408,3.408,0,0,0,0,27.026V42.986a3.409,3.409,0,0,0,3.405,3.405h7.863l3.392,3.392a1.664,1.664,0,0,0,2.35,0L20.4,46.392h7.86a3.409,3.409,0,0,0,3.405-3.4V36a.828.828,0,1,0-1.657,0v6.988a1.75,1.75,0,0,1-1.748,1.748H20.4a1.65,1.65,0,0,0-1.175.487l-3.4,3.392L12.44,45.221a1.651,1.651,0,0,0-1.174-.486H3.405a1.75,1.75,0,0,1-1.748-1.748V27.026A1.75,1.75,0,0,1,3.4,25.278h24.86a1.75,1.75,0,0,1,1.748,1.748v5.456a.829.829,0,0,0,1.657,0V30.975A12.129,12.129,0,0,0,47.73,19.508ZM28.265,23.621H25.982a10.5,10.5,0,0,1-.266-7.537h2.8a2.592,2.592,0,0,0,2.589-2.589V10.059a10.465,10.465,0,1,1,4.5,19.914,10.369,10.369,0,0,1-3.937-.767v-2.18A3.409,3.409,0,0,0,28.265,23.621Zm0,0"/><path class="a" d="M356.906,300.363H342.628a2.311,2.311,0,0,0-2.308,2.308v9.167a2.311,2.311,0,0,0,2.308,2.308H347l1.846,1.846a1.309,1.309,0,0,0,1.848,0l1.845-1.846h4.37a2.311,2.311,0,0,0,2.308-2.308v-9.166A2.311,2.311,0,0,0,356.906,300.363Zm.651,11.475a.652.652,0,0,1-.651.651h-4.514a1.3,1.3,0,0,0-.924.383l-1.7,1.7-1.7-1.7a1.3,1.3,0,0,0-.924-.383h-4.514a.652.652,0,0,1-.651-.651v-9.166a.652.652,0,0,1,.651-.651h14.278a.652.652,0,0,1,.651.651Zm0,0" transform="translate(-302.866 -267.307)"/><path class="a" d="M120.546,266.9l.332-.278.455-.434q.141-.139.43-.5a3.9,3.9,0,0,0,.439-.643,4.438,4.438,0,0,0,.281-.7,2.815,2.815,0,0,0,.132-.852,2.653,2.653,0,0,0-.973-2.1,3.871,3.871,0,0,0-2.606-.834,3.755,3.755,0,0,0-2.329.66,1.811,1.811,0,0,0-.869,1.39.748.748,0,0,0,.268.617.927.927,0,0,0,.6.217.668.668,0,0,0,.458-.177,2.1,2.1,0,0,0,.338-.379,1.275,1.275,0,0,1,.52-.379,2.262,2.262,0,0,1,.952-.177,2.027,2.027,0,0,1,1.3.386,1.317,1.317,0,0,1,.485,1.091,1.718,1.718,0,0,1-.2.8,2.342,2.342,0,0,1-.4.584q-.2.2-.6.541l-.5.412a3.444,3.444,0,0,0-1.043,2.714,1.166,1.166,0,0,0,.183.756.789.789,0,0,0,.617.206q.869,0,.869-.626a5.036,5.036,0,0,1,.139-1.355A2,2,0,0,1,120.546,266.9Zm0,0" transform="translate(-103.088 -231.879)"/><path class="a" d="M134.284,356.09a.975.975,0,0,0-.782.348,1.313,1.313,0,0,0,0,1.659.965.965,0,0,0,.782.356,1.123,1.123,0,0,0,.834-.356,1.177,1.177,0,0,0-.834-2.007Zm0,0" transform="translate(-118.547 -316.9)"/><path class="a" d="M313.841,119.415q0,.661.882.66a1.119,1.119,0,0,0,.6-.174.544.544,0,0,0,.279-.487q0-1.147.126-3.824t.126-3.823a.846.846,0,0,0-.324-.7,1.25,1.25,0,0,0-.81-.261,1.263,1.263,0,0,0-.806.252.847.847,0,0,0-.319.7q0,1.147.122,3.823T313.841,119.415Zm0,0" transform="translate(-279.085 -98.617)"/><path class="a" d="M314.037,208.715a1.18,1.18,0,0,0,.862-.356,1.136,1.136,0,0,0,0-1.659,1.26,1.26,0,0,0-1.739,0,1.164,1.164,0,0,0,0,1.668A1.2,1.2,0,0,0,314.037,208.715Zm0,0" transform="translate(-278.382 -183.642)"/><path class="a" d="M127.939,31.52H114.86a.828.828,0,0,0,0,1.657h13.079a.828.828,0,0,0,0-1.657Zm0,0" transform="translate(-101.482 -28.051)"/><path class="a" d="M128.767,62.7a.828.828,0,0,0-.828-.828H114.86a.828.828,0,0,0,0,1.657h13.079A.829.829,0,0,0,128.767,62.7Zm0,0" transform="translate(-101.482 -55.062)"/><path class="a" d="M114.86,92.219a.829.829,0,0,0,0,1.657h6.648a.829.829,0,0,0,0-1.657Zm0,0" transform="translate(-101.482 -82.07)"/><path class="a" d="M384.783,356.423a.864.864,0,1,1-.865-.864A.864.864,0,0,1,384.783,356.423Zm0,0" transform="translate(-340.898 -316.428)"/><path class="a" d="M418.221,356.423a.864.864,0,1,1-.865-.864A.864.864,0,0,1,418.221,356.423Zm0,0" transform="translate(-370.655 -316.428)"/><path class="a" d="M452.424,356.423a.864.864,0,1,1-.864-.864A.864.864,0,0,1,452.424,356.423Zm0,0" transform="translate(-401.094 -316.428)"/></svg>