<svg xmlns="http://www.w3.org/2000/svg" width="131.725" height="131.725" viewBox="0 0 131.725 131.725">
  <g id="Group_14460" data-name="Group 14460" transform="translate(154 188)">
    <g id="Group_14459" data-name="Group 14459" transform="translate(-154 -188)">
      <path id="Path_24351" data-name="Path 24351" d="M129.589,59.173h-2.779A61.34,61.34,0,0,0,88.348,8.825h30.358a6.689,6.689,0,1,0,0-4.271H72.551V2.135A2.13,2.13,0,0,0,70.416,0H61.309a2.13,2.13,0,0,0-2.135,2.135V4.554H13.018a6.689,6.689,0,1,0,0,4.271H43.377A61.34,61.34,0,0,0,4.914,59.173H2.135A2.13,2.13,0,0,0,0,61.309v9.108a2.13,2.13,0,0,0,2.135,2.135h9.108a2.13,2.13,0,0,0,2.135-2.135V61.309a2.13,2.13,0,0,0-2.135-2.135H9.21A57.028,57.028,0,0,1,59.173,9.21v2.032a2.164,2.164,0,0,0,1.183,1.9l-28.3,60.923a2.156,2.156,0,0,0,.232,2.187c.154.18,14.073,18.7,15.411,37.922a6.713,6.713,0,0,0-4.477,6.3v4.554a6.709,6.709,0,0,0,6.689,6.689H81.788a6.709,6.709,0,0,0,6.689-6.689v-4.554a6.713,6.713,0,0,0-4.477-6.3c1.338-19.193,15.256-37.742,15.411-37.922a2.1,2.1,0,0,0,.232-2.187l-28.3-60.923a2.164,2.164,0,0,0,1.183-1.9V9.21a57.028,57.028,0,0,1,49.963,49.963h-2.032a2.13,2.13,0,0,0-2.135,2.135v9.108a2.13,2.13,0,0,0,2.135,2.135h9.108a2.13,2.13,0,0,0,2.135-2.135V61.309A2.092,2.092,0,0,0,129.589,59.173Zm-4.554-54.9a2.418,2.418,0,1,1-2.418,2.418A2.416,2.416,0,0,1,125.035,4.271ZM6.689,9.108A2.418,2.418,0,1,1,9.108,6.689,2.416,2.416,0,0,1,6.689,9.108ZM9.108,68.281H4.271V63.444H9.108v4.837ZM63.444,4.271h4.837V9.108H63.444V4.271ZM84.206,120.482v4.554a2.416,2.416,0,0,1-2.418,2.418H49.937a2.416,2.416,0,0,1-2.418-2.418v-4.554a2.416,2.416,0,0,1,2.418-2.418H81.813A2.41,2.41,0,0,1,84.206,120.482ZM95.269,74.713c-3.087,4.322-14.227,21.1-15.488,39.08H51.969c-1.286-17.983-12.4-34.758-15.488-39.08L63.753,15.977V66.248a8.953,8.953,0,1,0,4.271,0V16ZM65.862,70.262a4.682,4.682,0,1,1-4.682,4.682A4.683,4.683,0,0,1,65.862,70.262Zm61.592-1.981h-4.837V63.444h4.837v4.837Z" fill="#ff4e4e"/>
    </g>
  </g>
</svg>
