<svg xmlns="http://www.w3.org/2000/svg" width="51.971" height="45.813" viewBox="0 0 51.971 45.813"><defs><style>.a{fill:#fff;}</style></defs><g transform="translate(0 0)"><path class="a" d="M165.776,103.742a5.622,5.622,0,0,0-5.617-5.617H119.422a5.622,5.622,0,0,0-5.617,5.617v34.579a5.621,5.621,0,0,0,5.617,5.617H160.16a5.621,5.621,0,0,0,5.617-5.617Zm-1.358,34.579a4.267,4.267,0,0,1-4.259,4.259H119.422a4.267,4.267,0,0,1-4.259-4.259V111.593h49.255Zm0-28.084H115.163v-6.495a4.268,4.268,0,0,1,4.259-4.259H160.16a4.268,4.268,0,0,1,4.259,4.259Z" transform="translate(-113.805 -98.125)"/><path class="a" d="M132.668,103.868a2.555,2.555,0,1,0,2.555,2.555A2.556,2.556,0,0,0,132.668,103.868Zm0,3.74a1.2,1.2,0,1,1,1.2-1.2A1.2,1.2,0,0,1,132.668,107.608Z" transform="translate(-118.089 -99.634)"/><path class="a" d="M121.271,103.834a2.549,2.549,0,1,0,2.555,2.543A2.549,2.549,0,0,0,121.271,103.834Zm0,3.74a1.2,1.2,0,1,1,1.2-1.2A1.2,1.2,0,0,1,121.271,107.574Z" transform="translate(-115.099 -99.625)"/><path class="a" d="M144.075,103.9a2.549,2.549,0,1,0,2.555,2.543,2.549,2.549,0,0,0-2.555-2.543Zm0,3.74a1.2,1.2,0,1,1,1.2-1.2h0a1.188,1.188,0,0,1-1.178,1.2Z" transform="translate(-121.089 -99.642)"/></g></svg>